<?xml version="1.0" encoding="utf-8"?>
<!-- Generator: Adobe Illustrator 26.0.1, SVG Export Plug-In . SVG Version: 6.00 Build 0)  -->
<svg version="1.1" id="Layer_1" xmlns="http://www.w3.org/2000/svg" xmlns:xlink="http://www.w3.org/1999/xlink" x="0px" y="0px"
	 viewBox="0 0 500 500" style="enable-background:new 0 0 500 500;" xml:space="preserve">
<style type="text/css">
	.st0{fill:#010101;}
	.st1{fill:#F8C684;}
	.st2{fill:#FFD176;}
	.st3{fill:#BDE2DF;}
</style>
<path class="st0" d="M228.88,81.52c-0.06-0.63,0.42-1.23,1.04-1.36c0.71-0.14,1.35,0.33,1.51,1.02c0.01,0.06,0.02,0.13,0.03,0.19
	c-0.72-0.22-1.51-0.07-2.11,0.43c-0.2,0.17-0.36,0.36-0.49,0.57C228.87,82.1,228.88,81.81,228.88,81.52z"/>
<path class="st0" d="M229.19,81.39c-0.02,0-0.05,0-0.08,0c-0.04,0-0.08,0-0.12,0c-0.03,0-0.05,0-0.08,0c-0.01,0-0.01,0-0.02,0
	c-2.37-0.04-4.74-0.2-7.1-0.34c-1.13-0.07-2.25-0.13-3.38-0.2c-0.9-0.05-1.8-0.11-2.71-0.12c-0.75-0.01-1.51,0.01-2.26,0.03
	c-0.56,0.01-1.12,0.02-1.68,0.04c-0.7,0.03-1.32-0.52-1.35-1.23c-0.03-0.7,0.52-1.32,1.23-1.35c0.98-0.04,1.96-0.05,2.94-0.07
	c1.87-0.03,3.74,0.11,5.61,0.22c2.87,0.16,5.73,0.36,8.61,0.44c0.03,0,0.05,0,0.08,0c0.01,0,0.02,0,0.03,0c0.11,0,0.21,0,0.32,0.01
	c0.33,0,0.66,0,0.99-0.02c0,0,0,0,0.01,0c0,0,0,0,0,0c0.01,0,0.01,0,0.02,0c0.29-0.05,0.59,0,0.86,0.14
	c-0.02-0.01-0.04-0.02-0.06-0.03c0.05,0.02,0.09,0.05,0.13,0.08c0,0,0,0,0,0c0,0,0,0,0,0c0,0,0,0,0,0c0,0,0,0,0,0c0,0,0,0,0,0
	c0.29,0.19,0.5,0.5,0.56,0.85c0.1,0.56-0.19,1.16-0.72,1.4c-0.05,0.02-0.09,0.04-0.14,0.05c-0.25-0.01-0.5,0.03-0.74,0.11
	c-0.07,0-0.13,0-0.2,0.01c-0.14,0-0.29,0.01-0.43,0.01C229.4,81.4,229.3,81.4,229.19,81.39z"/>
<path class="st0" d="M210.65,77.83c0.01-0.71,0.6-1.28,1.3-1.28c0.7,0,1.28,0.6,1.28,1.3c-0.01,0.71-0.6,1.28-1.3,1.28
	C211.22,79.13,210.64,78.53,210.65,77.83z"/>
<path class="st0" d="M210.71,79.11c-0.17-0.24-0.28-0.5-0.27-0.8c0-0.09,0.01-0.17,0.01-0.26c0.01-0.28,0.01-0.57,0.01-0.85
	c0-0.57-0.01-1.14-0.02-1.71c-0.04-1.22-0.07-2.44-0.11-3.66c-0.07-2.32-0.1-4.64-0.09-6.96c0-1.15,0.03-2.3,0.04-3.45
	c0.01-0.62,0-1.25,0.08-1.86c0.09-0.7,0.76-1.2,1.45-1.1c0.7,0.1,1.19,0.76,1.1,1.45c-0.01,0.05-0.01,0.1-0.02,0.16
	c-0.03,0.49-0.03,0.98-0.04,1.47c-0.01,1-0.04,2.01-0.04,3.01c-0.01,1.13,0.01,2.26,0.02,3.39c0.01,1.21,0.03,2.41,0.07,3.62
	c0.04,1.16,0.07,2.31,0.11,3.47c0.03,1.09,0.03,2.18,0.01,3.27c0,0.17-0.04,0.34-0.1,0.51c-0.18,0.51-0.7,0.79-1.22,0.79
	C211.32,79.6,210.94,79.45,210.71,79.11z"/>
<path class="st0" d="M210.98,60.43c-0.54-0.42-0.68-1.27-0.24-1.81c0.16-0.2,0.35-0.35,0.58-0.45c0.35-0.15,0.75-0.17,1.12-0.17
	c0.57,0,1.14,0,1.71-0.01c1.14-0.02,2.29-0.05,3.43-0.09c2.08-0.07,4.15-0.15,6.23-0.22c0.7-0.02,1.3,0.58,1.31,1.27
	c0.01,0.71-0.57,1.28-1.27,1.31c-1.86,0.06-3.71,0.14-5.57,0.2c-1.02,0.03-2.04,0.06-3.06,0.09c-0.51,0.01-1.01,0.02-1.52,0.03
	c-0.48,0-0.96,0-1.43,0.01c-0.16,0.07-0.33,0.1-0.51,0.1C211.48,60.7,211.22,60.61,210.98,60.43z"/>
<path class="st0" d="M225.61,60.26c-0.44-0.01-0.87-0.02-1.31-0.03c-0.33-0.01-0.66-0.03-0.99-0.01c0,0-0.01,0-0.01,0
	c0,0,0,0,0.01,0c-0.01,0-0.02,0-0.03,0c-0.27,0.03-0.55-0.01-0.8-0.16c-0.05-0.03-0.1-0.06-0.14-0.1c-0.35-0.3-0.55-0.71-0.49-1.17
	c0.05-0.44,0.35-0.88,0.78-1.04c0.51-0.18,1.08-0.12,1.61-0.11c0.59,0.01,1.18,0.04,1.78,0.04c1.21-0.01,2.41-0.05,3.62-0.08
	c1.77-0.04,3.55-0.04,5.32-0.04c0.71,0,1.42,0,2.13,0c3.57-0.01,7.15-0.01,10.72-0.07c0.7-0.01,1.3,0.57,1.31,1.27
	c0.01,0.7-0.57,1.3-1.27,1.31c-2.36,0.03-4.73,0.04-7.09,0.05c-2.49,0.01-4.99,0.02-7.48,0.03c-1.74,0-3.47,0.03-5.2,0.07
	c-0.69,0.02-1.39,0.04-2.08,0.04C225.84,60.26,225.72,60.26,225.61,60.26z"/>
<path class="st0" d="M214.3,60.41c-0.45-0.04-0.86-0.37-1.04-0.78c-0.2-0.48-0.09-1.05,0.28-1.41c0,0,0,0,0,0c0,0,0,0,0,0
	c0,0,0.01-0.01,0.01-0.01c0,0,0,0,0,0c0.05-0.05,0.11-0.09,0.16-0.13c0.08-0.06,0.17-0.11,0.25-0.17c0.89-0.62,1.74-1.31,2.57-2.01
	c1.09-0.97,2.11-1.99,3.1-3.07c0.72-0.83,1.45-1.66,2.13-2.53c0.73-0.95,1.42-1.93,2.1-2.92c0.57-0.87,1.11-1.75,1.62-2.66
	c0.54-0.96,1.04-1.93,1.53-2.91c1.34-2.78,2.49-5.65,3.64-8.52c0.26-0.65,1.03-0.97,1.68-0.71c0.65,0.27,0.97,1.03,0.71,1.68
	c-0.85,2.11-1.71,4.2-2.61,6.28c-0.98,2.25-2.09,4.44-3.35,6.56c-1.27,2.13-2.73,4.16-4.32,6.06c-1.6,1.92-3.32,3.74-5.27,5.31
	c-0.73,0.59-1.47,1.17-2.25,1.69c-0.23,0.18-0.52,0.27-0.81,0.27C214.38,60.41,214.34,60.41,214.3,60.41z"/>
<path class="st0" d="M246.37,35.1c-2.27-0.04-4.54-0.06-6.81-0.08c-1.17-0.01-2.33-0.02-3.5-0.04c-0.6-0.01-1.2-0.03-1.8-0.05
	c-0.53-0.02-1.05-0.05-1.57-0.02c-0.03,0-0.06,0.01-0.09,0.01c-0.58,0.22-1.26,0-1.58-0.55c-0.35-0.6-0.14-1.41,0.47-1.76
	c0.47-0.27,1.04-0.29,1.57-0.29c0.58,0.01,1.16,0.03,1.74,0.05c1.25,0.04,2.51,0.05,3.77,0.06c2.34,0.02,4.67,0.05,7.01,0.08
	c0.26,0,0.51,0.01,0.77,0.01c0.7,0.01,1.3,0.55,1.31,1.27c0.01,0.68-0.56,1.31-1.25,1.31C246.38,35.1,246.37,35.1,246.37,35.1z"/>
<path class="st0" d="M75.11,133.39c-0.58-0.43-0.67-1.23-0.26-1.8c3.61-5.15,7.47-10.11,11.66-14.79c1.12-1.25,2.25-2.48,3.43-3.67
	c0.6-0.6,1.21-1.19,1.82-1.79c0.26-0.25,0.53-0.49,0.8-0.74c0.29-0.26,0.57-0.53,0.86-0.79c0.64-0.55,1.27-1.1,1.93-1.63
	c0.7-0.57,1.4-1.12,2.12-1.67c1.32-1.02,2.69-1.97,4.06-2.91c0.68-0.47,1.38-0.91,2.09-1.35c0.68-0.43,1.37-0.83,2.06-1.23
	c1.37-0.79,2.77-1.55,4.21-2.22c0.74-0.35,1.48-0.73,2.24-1.04c0.87-0.36,1.74-0.72,2.61-1.08c0.27-0.11,0.55-0.2,0.82-0.3
	c0.57-0.2,1.13-0.41,1.7-0.61c0.7-0.25,1.42-0.47,2.13-0.69c0.7-0.22,1.4-0.44,2.1-0.63c0.96-0.25,1.93-0.5,2.89-0.75
	c0.23-0.06,0.47-0.1,0.7-0.15c0.61-0.13,1.21-0.26,1.82-0.39c0.66-0.14,1.32-0.28,1.99-0.4c0.95-0.17,1.9-0.34,2.86-0.5
	c0.26-0.05,0.53-0.07,0.79-0.11c0.62-0.08,1.23-0.17,1.85-0.25c1.56-0.21,3.13-0.34,4.69-0.49c0.32-0.03,0.65-0.04,0.98-0.06
	c0.63-0.04,1.26-0.08,1.88-0.11c0.67-0.04,1.34-0.07,2.01-0.08c0.58-0.01,1.15-0.03,1.73-0.04c0.28-0.01,0.56-0.02,0.84-0.02
	c1,0.01,2.01,0.02,3.01,0.04c0.72,0.01,1.44,0.06,2.17,0.1c0.74,0.04,1.47,0.06,2.21,0.13c0.95,0.09,1.9,0.18,2.85,0.27
	c0.29,0.03,0.58,0.08,0.86,0.12c0.6,0.08,1.19,0.16,1.79,0.24c0.75,0.1,1.49,0.24,2.24,0.37c0.75,0.13,1.49,0.26,2.24,0.42
	c0.8,0.17,1.61,0.32,2.41,0.51c0.88,0.22,1.76,0.44,2.65,0.66c0.34,0.09,0.68,0.19,1.02,0.29c0.53,0.15,1.05,0.3,1.58,0.45
	c0.81,0.23,1.62,0.51,2.42,0.77c1.53,0.49,3.04,1.06,4.54,1.63c3.04,1.16,6.02,2.44,9,3.74c3.07,1.34,6.13,2.67,9.24,3.92
	c3.05,1.23,6.11,2.44,9.19,3.61c1.57,0.6,3.15,1.19,4.73,1.78c1.52,0.56,3.03,1.13,4.57,1.63c0.46,0.15,0.92,0.3,1.37,0.45
	c0.93,0.28,1.86,0.54,2.8,0.79c0.81,0.22,1.63,0.36,2.46,0.51c0.47,0.07,0.93,0.14,1.4,0.18c0.51,0.05,1.01,0.08,1.52,0.11
	c0.4,0,0.8,0,1.2-0.01c-0.08,0.86-0.18,1.72-0.26,2.59c-1.45,0.03-2.92-0.08-4.35-0.34c-0.4-0.07-0.79-0.15-1.19-0.22
	c-0.42-0.08-0.83-0.19-1.25-0.28c-0.75-0.17-1.49-0.39-2.22-0.61c-1.53-0.46-3.05-0.97-4.55-1.51c-6.32-2.27-12.57-4.71-18.77-7.27
	c-6.07-2.5-12-5.34-18.19-7.54c-0.65-0.23-1.29-0.47-1.94-0.68c-0.74-0.24-1.47-0.47-2.21-0.71c-0.77-0.22-1.54-0.44-2.3-0.66
	c-0.61-0.17-1.22-0.32-1.83-0.47c-0.61-0.15-1.22-0.31-1.84-0.44c-0.84-0.18-1.69-0.36-2.53-0.53c-0.49-0.08-0.97-0.17-1.46-0.25
	c-0.49-0.08-0.97-0.19-1.46-0.25c-0.57-0.08-1.14-0.15-1.7-0.23c-0.48-0.07-0.97-0.15-1.45-0.2c-0.6-0.06-1.2-0.11-1.8-0.17
	c-0.47-0.04-0.94-0.11-1.41-0.13c-1.07-0.06-2.14-0.11-3.21-0.17c-0.97-0.01-1.94-0.02-2.92-0.04c-0.79-0.01-1.59,0.02-2.38,0.04
	c-0.79,0.02-1.58,0.03-2.37,0.08c-1,0.06-2.01,0.12-3.01,0.18c-0.96,0.09-1.93,0.19-2.89,0.28c-0.81,0.08-1.61,0.19-2.41,0.3
	c-0.82,0.11-1.63,0.21-2.45,0.35c-1.03,0.18-2.06,0.36-3.09,0.54c-0.91,0.2-1.81,0.39-2.72,0.59c-0.72,0.16-1.42,0.34-2.14,0.53
	c-0.76,0.2-1.52,0.38-2.27,0.61c-0.92,0.28-1.84,0.57-2.76,0.85c-0.76,0.27-1.53,0.55-2.29,0.82c-0.6,0.22-1.19,0.46-1.78,0.71
	c-0.64,0.26-1.28,0.51-1.9,0.8c-0.76,0.36-1.53,0.72-2.29,1.07c-0.64,0.33-1.27,0.67-1.91,1c-0.49,0.26-0.97,0.54-1.46,0.81
	c-0.52,0.3-1.05,0.59-1.56,0.91c-0.65,0.41-1.3,0.82-1.95,1.23c-1.39,0.95-2.78,1.89-4.11,2.92c-0.82,0.63-1.63,1.26-2.43,1.92
	c-0.66,0.54-1.3,1.1-1.95,1.66c-0.79,0.73-1.58,1.46-2.35,2.21c-0.74,0.72-1.46,1.46-2.16,2.2c-1.42,1.49-2.77,3.04-4.12,4.59
	c-3.34,3.94-6.48,8.03-9.44,12.25c-0.24,0.34-0.63,0.51-1.03,0.51C75.61,133.64,75.34,133.56,75.11,133.39z"/>
<path class="st0" d="M44.1,180.65c-0.66-0.05-1.31-0.11-1.96-0.25c-0.67-0.15-1.34-0.33-1.99-0.54c-0.95-0.31-1.86-0.73-2.69-1.28
	c-0.39-0.26-0.75-0.55-1.11-0.85c-0.24-0.2-0.49-0.42-0.7-0.65c-0.2-0.21-0.41-0.42-0.59-0.64c-0.25-0.3-0.5-0.6-0.73-0.92
	c-0.37-0.5-0.7-1.04-0.99-1.59c-0.6-1.15-1.08-2.34-1.47-3.56c-0.2-0.61-0.37-1.22-0.51-1.84c-0.14-0.59-0.22-1.19-0.31-1.78
	c-0.18-1.21-0.3-2.45-0.3-3.67c0-0.7,0.06-1.41,0.11-2.11c0.05-0.72,0.11-1.45,0.25-2.15c0.29-1.44,0.63-2.87,1.02-4.29
	c0.18-0.68,0.98-1.04,1.62-0.83c0.32,0.1,0.59,0.33,0.75,0.62c0.17,0.32,0.18,0.66,0.09,1c-0.1,0.37-0.2,0.74-0.29,1.11
	c0.01-0.06,0.03-0.11,0.04-0.17c-0.32,1.32-0.68,2.65-0.83,4.01c-0.11,1.03-0.19,2.06-0.19,3.09c0.04,1.24,0.18,2.47,0.37,3.7
	c0.13,0.73,0.3,1.45,0.5,2.16c0.15,0.45,0.29,0.9,0.45,1.34c0.15,0.41,0.32,0.82,0.49,1.22c0.26,0.55,0.54,1.09,0.85,1.62
	c0.23,0.34,0.46,0.68,0.71,1.01c0.27,0.31,0.53,0.61,0.82,0.91c0.35,0.32,0.71,0.64,1.09,0.93c0.26,0.19,0.54,0.36,0.82,0.52
	c0.24,0.13,0.48,0.24,0.72,0.35c0.3,0.12,0.6,0.23,0.91,0.33c0.35,0.12,0.71,0.22,1.07,0.32c0.24,0.05,0.48,0.11,0.73,0.16
	c0.24,0.05,0.49,0.08,0.73,0.11c0.23,0.02,0.47,0.04,0.7,0.05c0.17,0.01,0.35,0.01,0.53,0.01c0.05,0,0.11,0,0.16,0
	c0.25-0.02,0.5-0.03,0.75-0.05c0.26-0.02,0.51-0.06,0.77-0.1c0.42-0.07,0.83-0.17,1.24-0.29c0.44-0.14,0.88-0.3,1.31-0.49
	c0.48-0.23,0.93-0.5,1.39-0.77c0.36-0.23,0.71-0.46,1.06-0.71c0.33-0.24,0.65-0.49,0.96-0.74c0.69-0.61,1.35-1.24,2-1.9
	c0.44-0.48,0.87-0.96,1.29-1.45c0.41-0.48,0.79-0.99,1.17-1.49c0.53-0.76,1.05-1.52,1.54-2.31c0.46-0.73,0.88-1.48,1.3-2.23
	c0.65-1.21,1.27-2.43,1.85-3.68c0.6-1.3,1.15-2.62,1.69-3.95c0.92-2.38,1.77-4.78,2.69-7.15c0.93-2.39,1.96-4.73,2.97-7.09
	c0.94-2.22,1.86-4.45,2.92-6.61c1.08-2.21,2.29-4.34,3.62-6.4c0.31-0.48,0.63-0.95,0.96-1.41c0.17-0.23,0.34-0.47,0.52-0.69
	c0.13-0.16,0.26-0.33,0.43-0.45c0.58-0.4,1.39-0.27,1.8,0.31c0.36,0.51,0.29,1.22-0.14,1.65c-0.1,0.12-0.2,0.25-0.3,0.38
	c-1.17,1.61-2.2,3.32-3.18,5.05c0,0,0-0.01,0.01-0.01c-0.6,1.09-1.16,2.19-1.69,3.31c-0.52,1.1-1.01,2.22-1.5,3.34
	c-0.49,1.13-0.97,2.27-1.45,3.4c-0.48,1.13-0.97,2.25-1.45,3.39c-0.34,0.82-0.67,1.64-1,2.46c-0.93,2.38-1.78,4.79-2.7,7.17
	c-0.92,2.39-1.98,4.72-3.14,7.01c-0.57,1.12-1.2,2.2-1.84,3.29c-0.66,1.13-1.42,2.21-2.2,3.25c-0.76,1-1.57,1.97-2.45,2.86
	c-0.44,0.44-0.87,0.89-1.34,1.31c-0.5,0.44-1,0.9-1.54,1.29c-0.53,0.38-1.06,0.75-1.62,1.09c-0.37,0.22-0.74,0.45-1.13,0.65
	c-0.5,0.26-1.03,0.46-1.56,0.65c-0.58,0.21-1.18,0.36-1.79,0.48c-0.41,0.08-0.82,0.12-1.23,0.17c-0.15,0.02-0.31,0.02-0.47,0.03
	c-0.18,0.01-0.35,0.03-0.53,0.03c-0.09,0-0.18,0-0.26,0c-0.08,0-0.16,0-0.24,0C44.34,180.66,44.22,180.66,44.1,180.65z"/>
<path class="st0" d="M42.87,192.4c-0.56-0.01-1.11-0.01-1.67-0.04c-0.64-0.03-1.27-0.09-1.91-0.15c-1.05-0.1-2.09-0.28-3.12-0.49
	c-2.13-0.43-4.24-1.03-6.22-1.94c-0.52-0.24-1.04-0.49-1.55-0.76c-0.56-0.29-1.1-0.62-1.64-0.96c-0.93-0.58-1.78-1.26-2.62-1.97
	c-0.23-0.2-0.45-0.43-0.67-0.64c-0.18-0.17-0.35-0.36-0.52-0.55c-0.37-0.41-0.73-0.83-1.05-1.28c-0.15-0.22-0.32-0.43-0.46-0.66
	c-0.15-0.25-0.31-0.5-0.46-0.75c-0.32-0.53-0.56-1.09-0.8-1.66c-0.4-0.96-0.68-1.95-0.84-2.98c-0.14-0.85-0.14-1.71-0.15-2.57
	c0-0.46,0.04-0.93,0.1-1.39c0.03-0.29,0.07-0.59,0.1-0.88c0.04-0.34,0.12-0.68,0.18-1.01c0.05-0.26,0.12-0.52,0.18-0.77
	c0.05-0.22,0.1-0.44,0.17-0.66c0.09-0.3,0.18-0.6,0.27-0.89c0.1-0.31,0.23-0.62,0.34-0.93c0.35-0.96,0.8-1.9,1.3-2.8
	c0.34-0.61,0.68-1.23,1.06-1.81c0.43-0.66,0.87-1.31,1.33-1.95c0.81-1.15,1.69-2.26,2.62-3.32c0.96-1.1,1.96-2.15,3.1-3.06
	c0.56-0.45,1.15-0.87,1.82-1.15c0.62-0.26,1.38,0.02,1.68,0.61c0.32,0.62,0.07,1.41-0.55,1.74c-0.1,0.05-0.21,0.09-0.31,0.11
	c-0.04,0.02-0.08,0.04-0.12,0.07c-0.41,0.27-0.8,0.56-1.19,0.87c-0.43,0.38-0.85,0.77-1.26,1.17c-0.63,0.67-1.24,1.36-1.83,2.07
	c-0.63,0.75-1.22,1.53-1.8,2.32c-0.45,0.64-0.89,1.29-1.32,1.95c-0.41,0.62-0.76,1.27-1.12,1.92c-0.17,0.34-0.34,0.68-0.5,1.03
	c-0.16,0.32-0.29,0.66-0.42,0.99c-0.11,0.31-0.23,0.62-0.34,0.93c-0.13,0.35-0.22,0.71-0.33,1.07c-0.12,0.48-0.23,0.97-0.32,1.46
	c-0.08,0.47-0.14,0.94-0.2,1.41c-0.02,0.34-0.04,0.68-0.06,1.01c-0.02,0.28,0,0.56,0,0.83c0,0,0-0.01,0-0.01
	c0.02,0.4,0.05,0.79,0.1,1.18c0.08,0.46,0.18,0.92,0.3,1.37c0.17,0.55,0.38,1.08,0.6,1.61c0.13,0.26,0.27,0.53,0.4,0.79
	c0.13,0.22,0.26,0.43,0.4,0.65c0.16,0.26,0.36,0.51,0.54,0.76c0.24,0.29,0.47,0.59,0.73,0.86c0.31,0.34,0.63,0.66,0.96,0.98
	c0.24,0.21,0.48,0.41,0.72,0.61c0.22,0.19,0.46,0.36,0.69,0.53c0.35,0.24,0.71,0.49,1.07,0.71c0.41,0.25,0.83,0.49,1.24,0.73
	c0.44,0.22,0.88,0.44,1.33,0.65c0.39,0.18,0.78,0.34,1.18,0.5c0.46,0.17,0.92,0.34,1.39,0.49c0.51,0.16,1.02,0.31,1.53,0.45
	c0.72,0.17,1.43,0.33,2.15,0.48c0.74,0.15,1.49,0.24,2.24,0.35c0.59,0.06,1.19,0.11,1.78,0.15c0.66,0.04,1.31,0.04,1.97,0.05
	c0.64-0.02,1.28-0.03,1.92-0.07c0.69-0.04,1.37-0.12,2.05-0.19c0.94-0.14,1.88-0.28,2.8-0.5c0.49-0.12,0.98-0.23,1.47-0.35
	c0.44-0.11,0.88-0.24,1.32-0.37c0.74-0.24,1.48-0.48,2.21-0.75c0.71-0.26,1.4-0.55,2.09-0.84c0.72-0.34,1.43-0.67,2.13-1.04
	c0.71-0.37,1.4-0.77,2.1-1.18c0.44-0.28,0.89-0.56,1.33-0.84c0.47-0.3,0.92-0.63,1.38-0.94c0.91-0.62,1.77-1.31,2.64-1.99
	c0.86-0.7,1.7-1.42,2.55-2.14c0.9-0.78,1.76-1.61,2.63-2.42c1.59-1.49,3.12-3.05,4.63-4.62c2.96-3.23,5.84-6.54,8.6-9.94
	c1.45-1.78,2.9-3.56,4.39-5.31c1.34-1.58,2.73-3.13,4.2-4.6c0.8-0.79,1.6-1.58,2.42-2.34c0.86-0.8,1.74-1.56,2.64-2.32
	c0.41-0.35,0.84-0.67,1.26-1.01c0.41-0.33,0.84-0.64,1.27-0.94c0.94-0.65,1.88-1.3,2.84-1.91c1.91-1.22,3.86-2.38,5.85-3.48
	c0.92-0.51,1.87-0.97,2.81-1.44c0.47-0.23,0.94-0.44,1.41-0.66c0.53-0.25,1.06-0.49,1.6-0.71c1.01-0.41,2.02-0.84,3.05-1.19
	c1.1-0.37,2.2-0.73,3.31-1.07c1.16-0.36,2.35-0.67,3.52-0.98c1.05-0.28,2.11-0.52,3.17-0.75c2.15-0.47,4.32-0.78,6.5-1.06
	c0.59-0.08,1.19-0.12,1.79-0.18c0.56-0.05,1.12-0.08,1.69-0.12c1-0.07,2.01-0.1,3.02-0.09c0.18,0,0.36,0,0.54,0
	c0.37,0,0.75,0,1.12,0.01c0.65,0.02,1.29,0.05,1.94,0.07c1.12,0.04,2.25,0.14,3.37,0.23c2.22,0.18,4.42,0.46,6.62,0.76
	c2.23,0.3,4.44,0.72,6.65,1.16c2.16,0.43,4.31,0.9,6.43,1.45c4.31,1.1,8.57,2.35,12.81,3.7c2.1,0.66,4.17,1.38,6.23,2.15
	c1.99,0.74,3.95,1.53,5.92,2.31c1.32,0.53,2.64,1.05,3.97,1.57c1.98,0.76,3.98,1.47,6,2.14c2.03,0.67,4.08,1.23,6.15,1.76
	c0,0,0,0-0.01,0c0.01,0,0.02,0.01,0.03,0.01c0.21,0.03,0.42,0.1,0.62,0.15c0.87,0.2,1.74,0.39,2.61,0.55
	c0.94,0.17,1.88,0.3,2.82,0.41c1.88,0.21,3.76,0.38,5.65,0.53c1.75,0.13,3.51,0.23,5.26,0.22c0.48-0.01,0.96-0.03,1.44-0.09
	c0.36-0.06,0.72-0.13,1.07-0.21c0.68-0.16,1.39,0.32,1.53,0.99c0.15,0.7-0.31,1.37-0.99,1.53c-0.51,0.12-1.02,0.21-1.53,0.28
	c-0.51,0.07-1.02,0.07-1.53,0.08c-0.96,0.01-1.92-0.02-2.89-0.06c-1.94-0.09-3.87-0.25-5.8-0.44c-2.19-0.21-4.36-0.46-6.52-0.9
	c-0.49-0.1-0.97-0.21-1.45-0.32c-0.15-0.04-0.31-0.06-0.46-0.11c-0.2-0.04-0.39-0.1-0.59-0.15c-0.01,0-0.02-0.01-0.04-0.01
	c-0.03-0.01-0.05-0.01-0.08-0.02c-0.3-0.08-0.6-0.15-0.9-0.23c-1.11-0.29-2.22-0.6-3.32-0.92c-1.01-0.3-2-0.63-3-0.97
	c-1.07-0.36-2.14-0.73-3.2-1.13c-2.04-0.76-4.06-1.57-6.09-2.38c-1.04-0.41-2.07-0.82-3.11-1.23c0.01,0,0.02,0.01,0.03,0.01
	c-1.68-0.65-3.36-1.29-5.06-1.88c-1.83-0.64-3.68-1.23-5.54-1.8c-3.56-1.1-7.14-2.13-10.75-3.06c-2.67-0.65-5.35-1.25-8.05-1.75
	c-1.48-0.27-2.95-0.52-4.44-0.74c-1.33-0.2-2.67-0.37-4.01-0.53c-1.62-0.16-3.25-0.32-4.87-0.42c-0.92-0.06-1.84-0.09-2.76-0.13
	c-0.75-0.03-1.49-0.02-2.24-0.02c-0.64,0.02-1.27,0.04-1.91,0.06c-0.66,0.02-1.33,0.09-2,0.13c-0.67,0.04-1.33,0.13-2,0.2
	c-0.64,0.06-1.28,0.16-1.91,0.25c-1.49,0.24-2.97,0.49-4.44,0.81c-1.54,0.34-3.06,0.73-4.58,1.14c-1.29,0.37-2.57,0.74-3.84,1.17
	c-0.75,0.25-1.5,0.52-2.24,0.8c-0.63,0.23-1.24,0.49-1.86,0.75c-1.51,0.67-3.02,1.36-4.48,2.13c-1.55,0.81-3.06,1.68-4.56,2.57
	c-1.23,0.76-2.45,1.54-3.65,2.33c-1.2,0.8-2.35,1.67-3.48,2.57c-1.06,0.9-2.11,1.81-3.12,2.77c-1,0.96-1.99,1.94-2.95,2.93
	c-1.46,1.57-2.86,3.18-4.24,4.82c-1.41,1.69-2.77,3.41-4.18,5.1c-1.38,1.67-2.78,3.31-4.21,4.94c-1.49,1.69-2.97,3.39-4.55,4.98
	c-1.61,1.62-3.23,3.21-4.89,4.77c-1.6,1.5-3.29,2.91-5.02,4.26c-3.47,2.71-7.33,4.97-11.46,6.5c-1.03,0.38-2.07,0.71-3.12,1.01
	c-1.08,0.3-2.17,0.55-3.27,0.77c-1.1,0.22-2.21,0.35-3.32,0.47c-0.5,0.05-1,0.07-1.49,0.1c-0.29,0.02-0.59,0.01-0.88,0.02
	c-0.22,0.01-0.44,0.01-0.66,0.01C42.95,192.4,42.91,192.4,42.87,192.4z"/>
<path class="st0" d="M230.35,395.67C230.34,395.67,230.34,395.67,230.35,395.67c-0.72-0.01-1.29-0.6-1.29-1.3
	c0-11.58,0-23.15,0-34.73c0-13.1,0-26.19,0-39.29c0-12.75,0-25.49,0-38.24c0-12.71,0-25.42,0-38.13c0-12.56,0-25.12,0-37.68
	c0-12.47,0-24.94,0-37.41c0-12.58,0-25.16,0-37.73c0-10.77,0-21.53,0-32.3c0-5.33,0-10.65,0-15.98c0-0.57,0-1.15,0-1.72
	c0-0.7,0.6-1.28,1.3-1.28c0.71,0.01,1.28,0.6,1.28,1.3c0,4.76,0,9.52,0,14.28c0,10.13,0,20.27,0,30.4c0,12.13,0,24.27,0,36.4
	c0,12.68,0,25.36,0,38.05c0,12.64,0,25.28,0,37.91c0,12.53,0,25.05,0,37.58c0,12.76,0,25.53,0,38.29c0,12.97,0,25.94,0,38.91
	c0,12.82,0,25.64,0,38.46c0,0.97,0,1.95,0,2.92c0,0,0,0,0,0C231.64,395.09,231.04,395.67,230.35,395.67z"/>
<path class="st0" d="M227.36,116.19c-1.01-0.02-2.01-0.07-3.01-0.14c-1.05-0.07-2.11-0.15-3.16-0.26c-1.08-0.11-2.14-0.3-3.2-0.49
	c-0.41-0.08-0.82-0.15-1.23-0.23c-0.69-0.13-1.14-0.84-1.01-1.52c0.14-0.7,0.83-1.14,1.52-1.01c1.12,0.21,2.25,0.44,3.38,0.6
	c1.35,0.17,2.7,0.27,4.06,0.36c1.33,0.09,2.66,0.13,3.99,0.14c0.04,0,0.08,0,0.12,0c0.01,0,0.01,0,0.02,0c0,0-0.01,0-0.01,0
	c0.03,0,0.06,0,0.09,0c0.24,0,0.47,0,0.71-0.01c0.21-0.03,0.42-0.02,0.63,0.05c0.38,0.13,0.66,0.44,0.8,0.81
	c0.2,0.52-0.03,1.21-0.51,1.49c-0.26,0.15-0.52,0.22-0.82,0.22c-0.24,0.01-0.48,0.01-0.72,0.01c-0.08,0-0.16,0-0.24,0
	C228.3,116.2,227.83,116.19,227.36,116.19z"/>
<path class="st0" d="M128.21,429.75c-2.62-0.06-5.24-0.12-7.86-0.11c-2.73,0.01-5.46,0.06-8.19,0.06c-1.49,0-2.98-0.01-4.47-0.02
	c-1.27-0.01-2.54-0.05-3.81,0.05c-0.18,0.02-0.37,0.04-0.55,0.07c-0.24,0.04-0.48,0-0.69-0.09c0.03-0.61,0.08-1.21,0.14-1.82
	c0.03-0.21,0.07-0.42,0.09-0.63c0.02,0,0.05-0.01,0.07-0.01c0.91-0.15,1.85-0.16,2.77-0.16c1.27,0,2.55,0.02,3.82,0.03
	c2.72,0.02,5.45-0.01,8.17-0.04c2.7-0.03,5.4-0.01,8.1,0.05c2.75,0.06,5.49,0.12,8.24,0.15c2.82,0.03,5.64-0.07,8.46-0.18
	c2.68-0.11,5.36-0.31,8.03-0.52c1.41-0.13,2.81-0.27,4.22-0.42c1.25-0.13,2.49-0.28,3.74-0.43c2.94-0.35,5.88-0.69,8.81-1.07
	c5.4-0.71,10.77-1.67,16.13-2.63c2.74-0.49,5.49-0.97,8.22-1.53c0.48-0.11,0.96-0.22,1.43-0.33c0.51-0.12,1.02-0.27,1.53-0.4
	c0.94-0.25,1.86-0.58,2.77-0.89c1.44-0.56,2.87-1.15,4.27-1.79c0.81-0.37,1.62-0.75,2.42-1.14c0.64-0.31,1.27-0.64,1.9-0.97
	c1.29-0.71,2.57-1.44,3.82-2.21c1.24-0.77,2.45-1.57,3.66-2.38c1.2-0.85,2.38-1.71,3.55-2.61c1.12-0.86,2.21-1.76,3.29-2.69
	c1.55-1.4,3.05-2.84,4.45-4.4c0.83-0.97,1.62-1.97,2.34-3.03c0.4-0.63,0.76-1.27,1.09-1.93c0.16-0.35,0.32-0.71,0.45-1.08
	c0.06-0.2,0.11-0.4,0.16-0.61c0.04-0.26,0.08-0.53,0.1-0.79c0,0.05,0,0.09-0.01,0.14c0.01-0.15,0.03-0.28,0.07-0.41
	c-0.01,0.03-0.02,0.05-0.03,0.08c0.04-0.17,0.12-0.32,0.22-0.45c-0.03,0.04-0.06,0.09-0.09,0.13v0c-0.01,0.02-0.02,0.05-0.03,0.07
	c0.03-0.07,0.07-0.14,0.12-0.2c0.31-0.4,0.84-0.61,1.36-0.48c0.58,0.15,0.96,0.68,0.96,1.25c0-0.01,0-0.01,0-0.02
	c0,0.01,0,0.02,0,0.03c0,0.03,0,0.07,0,0.1c-0.05,0.97-0.32,1.92-0.7,2.8c-0.54,1.26-1.25,2.43-2.05,3.55
	c-1.59,2.23-3.51,4.21-5.51,6.08c-2.03,1.89-4.21,3.61-6.44,5.27c-2.19,1.62-4.47,3.12-6.81,4.5c-0.65,0.38-1.29,0.75-1.95,1.11
	c-0.66,0.36-1.32,0.71-1.99,1.05c-1.19,0.61-2.41,1.17-3.63,1.73c-1.3,0.6-2.62,1.13-3.95,1.65c-0.58,0.22-1.17,0.43-1.77,0.61
	c-0.7,0.21-1.41,0.42-2.12,0.61c-2.68,0.7-5.41,1.19-8.14,1.67c-2.68,0.48-5.36,0.97-8.05,1.42c-2.73,0.46-5.46,0.93-8.2,1.31
	c-2.87,0.41-5.75,0.77-8.63,1.11c-5.41,0.64-10.81,1.28-16.25,1.57c-2.93,0.15-5.87,0.26-8.8,0.31c-0.6,0.01-1.2,0.01-1.81,0.01
	C132.5,429.85,130.36,429.8,128.21,429.75z"/>
<path class="st0" d="M104,459.19c-0.68,0-1.29-0.57-1.29-1.26c0-2.13,0-4.26,0-6.4c0-3.98,0-7.96,0-11.93c0-3.65,0-7.29,0-10.94
	c0.01-0.1,0.02-0.2,0.02-0.3c0.11-0.59,0.62-1.05,1.24-1.06c0.69-0.01,1.31,0.56,1.31,1.26c0,0,0,0,0,0c0,3.64,0,7.29,0,10.93
	c0,3.98,0,7.96,0,11.94c0,2.14,0,4.28,0,6.41c0,0.01,0,0.02,0,0.03c0,0.7-0.55,1.3-1.26,1.31
	C104.02,459.19,104.01,459.19,104,459.19z"/>
<path class="st0" d="M257.17,461.32c-0.1,0-0.21,0-0.31,0c-4.56,0-9.11,0-13.67,0c-6.18,0-12.35,0-18.53,0c-6.5,0-12.99,0-19.49,0
	c-6.4,0-12.79,0-19.19,0c-6.48,0-12.96,0-19.44,0c-6.45,0-12.89,0-19.34,0c-6.57,0-13.14,0-19.71,0c-6.34,0-12.69,0-19.03,0
	c-1.26,0-2.53,0-3.79,0c-0.35,0-0.68-0.1-0.94-0.34c-0.25-0.23-0.4-0.55-0.41-0.89c-0.03-0.68,0.52-1.35,1.23-1.35
	c5.15,0,10.29,0,15.44,0c6.55,0,13.1,0,19.66,0c6.47,0,12.94,0,19.41,0c6.39,0,12.78,0,19.18,0c6.48,0,12.95,0,19.43,0
	c6.48,0,12.95,0,19.43,0c6.4,0,12.8,0,19.2,0c5.7,0,11.39,0,17.09,0c1.22,0,2.45,0,3.67,0c0.35,0,0.68,0.1,0.94,0.34
	c0.25,0.23,0.4,0.55,0.41,0.89c0,0.02,0,0.04,0,0.06C258.39,460.68,257.85,461.32,257.17,461.32z"/>
<path class="st0" d="M252.49,393.79c-4.78,0-9.56,0-14.35,0c-1.77,0-3.55,0-5.32,0c-0.11,0-0.23,0-0.34,0
	c-0.35,0-0.68-0.1-0.94-0.34c-0.25-0.23-0.4-0.55-0.41-0.89c0-0.02,0-0.04,0-0.06c0-0.65,0.55-1.29,1.23-1.29c4.55,0,9.1,0,13.65,0
	c4.58,0,9.15,0,13.73,0c1.65,0,3.3,0,4.94,0c0.35,0,0.68,0.1,0.94,0.34c0.25,0.23,0.4,0.55,0.41,0.89c0.03,0.68-0.52,1.35-1.23,1.35
	C260.7,393.79,256.6,393.79,252.49,393.79z"/>
<path class="st0" d="M102.8,459.96c-0.02-0.39-0.03-0.79-0.05-1.19c-0.01-0.3-0.02-0.6-0.03-0.89c-0.01-0.4-0.05-0.81,0.02-1.2
	c0.12-0.69,0.88-1.12,1.54-0.97c0.33,0.08,0.62,0.28,0.8,0.56c0.15,0.23,0.21,0.49,0.2,0.75c0,0.03,0,0.05,0,0.08
	c0-0.01,0-0.01,0-0.02c0,0.01,0,0.01,0,0.02c0,0.55,0.03,1.11,0.05,1.66c0.01,0.36,0.02,0.72,0.04,1.07
	c0.04,0.7-0.53,1.32-1.23,1.35c-0.02,0-0.04,0-0.06,0C103.41,461.19,102.84,460.64,102.8,459.96z"/>
<path class="st0" d="M65.75,317.03c-0.07-0.03-0.14-0.06-0.2-0.1c0-0.01,0-0.02,0-0.04c0-0.14,0-0.28,0-0.41
	c0.02-0.51,0.05-1.02,0.09-1.53c0-0.01,0-0.01,0-0.02c0.04-0.22,0.09-0.45,0.13-0.67c0.12-0.59,0.29-1.18,0.45-1.77
	c0.27-1.01,0.53-2.03,0.77-3.05c0.59-1.76,1.18-3.51,1.77-5.27c2.22-6.6,4.44-13.2,6.66-19.8c2.43-7.23,4.87-14.47,7.3-21.7
	c2.46-7.31,4.92-14.62,7.38-21.93c2.44-7.25,4.88-14.5,7.31-21.74c2.45-7.29,4.9-14.57,7.35-21.86c2.47-7.35,4.95-14.7,7.42-22.05
	c2.38-7.08,4.76-14.16,7.15-21.24c1.08-3.21,2.16-6.42,3.24-9.63c0.52-1.55,1.04-3.1,1.56-4.65c0.4-1.2,0.83-2.4,1.22-3.61
	c0-0.02,0.01-0.03,0.01-0.05c0.01-0.03,0.02-0.05,0.03-0.08c0.23-0.66,1.01-1,1.66-0.76c0.31,0.12,0.57,0.36,0.72,0.66
	c0.15,0.32,0.15,0.67,0.04,1c-0.42,1.3-0.87,2.6-1.31,3.89c-0.57,1.7-1.14,3.39-1.71,5.09c-1.13,3.37-2.26,6.73-3.4,10.1
	c-2.4,7.12-4.79,14.24-7.19,21.36c-2.45,7.29-4.91,14.58-7.36,21.87c-2.44,7.26-4.89,14.52-7.33,21.78
	c-2.5,7.44-5.01,14.88-7.51,22.32c-2.43,7.21-4.85,14.42-7.28,21.64c-2.43,7.21-4.85,14.42-7.28,21.63
	c-2.21,6.57-4.42,13.14-6.63,19.72c-1.14,3.38-2.27,6.76-3.41,10.14c-0.17,0.52-0.7,0.84-1.22,0.84
	C66.04,317.11,65.89,317.09,65.75,317.03z"/>
<path class="st0" d="M184.98,308.2c-2.32-6.58-4.65-13.17-6.97-19.76c-2.41-6.82-4.81-13.64-7.22-20.45
	c-2.5-7.09-5-14.18-7.51-21.27c-2.58-7.31-5.16-14.62-7.74-21.93c-2.47-6.99-4.93-13.98-7.4-20.97c-2.55-7.22-5.1-14.44-7.65-21.67
	c-2.55-7.23-5.1-14.46-7.66-21.69c-2.39-6.78-4.78-13.55-7.17-20.33c-0.17-0.47-0.33-0.94-0.5-1.41c-0.01-0.02-0.02-0.05-0.02-0.07
	c-0.23-0.66,0.17-1.41,0.83-1.62c0.68-0.22,1.39,0.17,1.62,0.83c2.22,6.36,4.48,12.71,6.73,19.06c2.52,7.14,5.04,14.28,7.56,21.43
	c2.56,7.25,5.11,14.49,7.67,21.74c2.5,7.07,4.99,14.15,7.49,21.22c2.54,7.2,5.08,14.41,7.63,21.61c2.53,7.16,5.05,14.32,7.58,21.48
	c2.4,6.81,4.8,13.62,7.21,20.42c2.36,6.69,4.72,13.38,7.08,20.07c0.61,1.71,1.21,3.43,1.81,5.14c0.13,0.65,0.31,1.29,0.55,1.91
	c0.15,0.39,0.31,0.77,0.48,1.16c-0.02,0-0.05,0.01-0.07,0.01c-0.31,0.04-0.64,0.11-0.95,0.2c-0.32,0.1-0.64,0.19-0.93,0.36
	c-0.13,0.08-0.26,0.17-0.38,0.28c-0.02,0-0.03,0.01-0.05,0.01C186.34,312.04,185.66,310.12,184.98,308.2z"/>
<path class="st0" d="M177.39,314.28c-4.7,0-9.4,0-14.1,0c-5.05,0-10.1,0-15.15,0c-5.13,0-10.25,0-15.37,0c-5.18,0-10.36,0-15.54,0
	c-5.19,0-10.37,0-15.56,0c-5.16,0-10.31,0-15.47,0c-5.09,0-10.18,0-15.27,0c-0.83,0-1.66,0-2.49,0c-0.22,0-0.43,0-0.65,0
	c-0.35,0-0.68-0.1-0.94-0.34c-0.25-0.23-0.4-0.55-0.41-0.89c0-0.02,0-0.04,0-0.06c0-0.65,0.55-1.29,1.23-1.29c4.82,0,9.64,0,14.46,0
	c5.1,0,10.2,0,15.3,0c5.2,0,10.4,0,15.6,0c5.12,0,10.24,0,15.36,0c5.16,0,10.32,0,15.48,0c5.19,0,10.38,0,15.57,0
	c4.87,0,9.73,0,14.6,0c3.86,0,7.73,0,11.59,0c0.57,0,1.14,0,1.71,0c0.35,0,0.68,0.1,0.94,0.34c0.25,0.23,0.4,0.55,0.41,0.89
	c0,0.1,0,0.21-0.03,0.31c-0.1,0.02-0.19,0.05-0.28,0.08c-0.32,0.1-0.64,0.19-0.93,0.36c-0.13,0.08-0.26,0.17-0.38,0.28
	c-0.23,0.06-0.45,0.15-0.66,0.28c-0.02,0.02-0.05,0.03-0.07,0.05C183.36,314.28,180.37,314.28,177.39,314.28z"/>
<path class="st0" d="M124.8,384.96c-4.47-0.21-8.9-0.95-13.21-2.16c-4.19-1.18-8.25-2.84-12.07-4.93
	c-4.06-2.21-7.86-4.88-11.31-7.96c-3.85-3.43-7.29-7.34-10.22-11.59c-2.78-4.03-5.12-8.37-6.98-12.9c-1.64-4-2.91-8.15-3.82-12.37
	c-0.53-2.48-0.94-4.99-1.23-7.51c-0.09-0.8-0.17-1.61-0.24-2.41c-0.05-0.14-0.08-0.3-0.09-0.46c-0.03-0.54-0.04-1.09-0.06-1.63
	c-0.01-0.17-0.03-0.34-0.02-0.5c0.01-0.64,0.47-1.19,1.11-1.28c0.7-0.09,1.35,0.41,1.45,1.1c0.03,0.2,0.02,0.41,0.03,0.61
	c0,0.07,0,0.14,0.01,0.21c0.01,0.12,0.02,0.24,0.03,0.35c0,0.01,0,0.03,0,0.04c0,0.02,0,0.04,0,0.07c0,0,0,0,0-0.01
	c0,0.02,0,0.04,0,0.06c0.24,3.4,0.7,6.79,1.38,10.14c-0.01-0.06-0.02-0.11-0.03-0.17c0.64,3.12,1.48,6.19,2.51,9.2
	c0.98,2.79,2.12,5.52,3.44,8.16c1.27,2.51,2.68,4.95,4.25,7.29c1.53,2.26,3.21,4.41,5.01,6.47c1.7,1.92,3.52,3.73,5.43,5.44
	c1.87,1.63,3.82,3.14,5.87,4.53c2.05,1.37,4.17,2.62,6.37,3.73c2.2,1.1,4.47,2.05,6.79,2.87c2.34,0.8,4.72,1.47,7.14,1.96
	c2.46,0.5,4.95,0.84,7.46,1.01c2.46,0.16,4.93,0.16,7.39,0c2.47-0.18,4.91-0.51,7.34-1c2.5-0.52,4.95-1.21,7.36-2.03
	c1.8-0.63,3.57-1.34,5.3-2.14c0.42-0.19,0.83-0.39,1.24-0.59c0.11-0.05,0.22-0.11,0.33-0.16c0.02-0.01,0.03-0.02,0.05-0.03
	c0.04-0.02,0.09-0.05,0.13-0.07c0,0,0.01,0,0.01,0c2.21-1.13,4.34-2.39,6.39-3.77c-0.05,0.03-0.09,0.06-0.14,0.09
	c2.26-1.53,4.44-3.18,6.5-4.97c0,0,0,0,0,0c0,0,0.01-0.01,0.01-0.01c0.03-0.03,0.06-0.05,0.09-0.08c-0.02,0.02-0.04,0.04-0.06,0.05
	c1.98-1.75,3.85-3.64,5.61-5.62c1.84-2.1,3.55-4.31,5.12-6.62c1.67-2.49,3.18-5.09,4.53-7.77c-0.01,0.02-0.02,0.04-0.03,0.06
	c1.25-2.51,2.36-5.08,3.3-7.73c0.03-0.09,0.06-0.18,0.1-0.27c0.04-0.13,0.09-0.26,0.13-0.4c0.1-0.3,0.2-0.6,0.3-0.91
	c0.19-0.58,0.37-1.16,0.55-1.75c0.67-2.2,1.2-4.44,1.67-6.69c-0.01,0.06-0.02,0.11-0.03,0.17c0.28-1.38,0.53-2.76,0.74-4.16
	c0.09,0.02,0.18,0.04,0.27,0.06c0.01,0,0.02,0,0.03,0.01c0.22,0.1,0.45,0.19,0.67,0.28c0.49,0.19,0.99,0.38,1.49,0.53
	c-0.65,4.09-1.58,8.13-2.85,12.07c-0.1,0.3-0.2,0.6-0.3,0.9c-0.05,0.15-0.1,0.3-0.15,0.45c-0.05,0.14-0.09,0.29-0.15,0.43
	c-0.04,0.11-0.08,0.23-0.12,0.34c-0.21,0.61-0.43,1.21-0.67,1.81c-0.9,2.32-1.94,4.57-3.08,6.78c-2.38,4.62-5.26,8.99-8.61,12.96
	c-3.24,3.84-6.9,7.31-10.93,10.29c-1.87,1.38-3.81,2.68-5.81,3.87c-1.15,0.68-2.32,1.32-3.51,1.91c-0.04,0.03-0.09,0.05-0.14,0.07
	c-0.02,0.01-0.04,0.02-0.07,0.03c-4.34,2.17-8.97,3.8-13.7,4.86c-4.12,0.93-8.35,1.4-12.57,1.4
	C126.62,385.02,125.71,385,124.8,384.96z"/>
<path class="st0" d="M189.18,319.94c-0.02,0.01-0.04,0.03-0.07,0.04C189.14,319.96,189.16,319.95,189.18,319.94z"/>
<path class="st0" d="M68.19,321.64c0,0,0,0.01,0,0.01C68.19,321.64,68.19,321.64,68.19,321.64z"/>
<path class="st0" d="M68.18,321.55C68.18,321.54,68.18,321.54,68.18,321.55c0,0,0,0.01,0,0.02
	C68.18,321.56,68.18,321.55,68.18,321.55z"/>
<path class="st0" d="M68.18,321.49c0,0.02,0,0.03,0,0.05C68.18,321.52,68.18,321.5,68.18,321.49z"/>
<path class="st0" d="M65.9,325.56c-0.28-3.12-0.37-6.27-0.32-9.4c0-0.19,0.01-0.39,0.01-0.58c0.01-0.21,0.03-0.41,0.05-0.62
	c0-0.01,0-0.01,0-0.02c0.04-0.22,0.09-0.45,0.13-0.67c0.12-0.59,0.29-1.18,0.45-1.77c0.02-0.09,0.05-0.18,0.07-0.26
	c0.2-0.12,0.44-0.19,0.67-0.19c0.72,0,1.27,0.59,1.29,1.29c0.01,0.22-0.02,0.45-0.03,0.67c-0.01,0.37-0.03,0.74-0.04,1.11
	c-0.02,0.89-0.04,1.78-0.04,2.67c0,1.74,0.06,3.49,0.15,5.23c0.02,0.28,0.03,0.55,0.05,0.83c0,0.04,0.01,0.09,0.01,0.13
	c0,0.01,0,0.01,0,0.02c0,0,0-0.01,0-0.01c0.03,0.41,0.06,0.82,0.1,1.22c0.03,0.35-0.04,0.68-0.26,0.96
	c-0.21,0.27-0.51,0.44-0.85,0.49c-0.05,0.01-0.11,0.01-0.16,0.01C66.57,326.67,65.95,326.2,65.9,325.56z"/>
<path class="st0" d="M187.85,327.93c-0.11-0.28-0.16-0.57-0.08-0.87c0.03-0.13,0.06-0.26,0.09-0.4c0.09-0.67,0.11-1.34,0.13-2.01
	c0.04-1.95-0.09-3.9-0.3-5.84c-0.11-0.98-0.23-1.95-0.36-2.93c-0.09-0.69-0.16-1.38-0.31-2.06c-0.09-0.35-0.2-0.68-0.34-1.02
	c0.02,0.05,0.04,0.11,0.06,0.16c-0.08-0.2-0.16-0.4-0.24-0.6c-0.13-0.32-0.17-0.64-0.05-0.98c0.11-0.32,0.36-0.59,0.67-0.74
	c0.61-0.28,1.46-0.03,1.71,0.62c0.25,0.62,0.5,1.23,0.66,1.88c0.18,0.75,0.26,1.52,0.36,2.28c0.3,2.26,0.59,4.53,0.68,6.81
	c0.04,0.97,0.03,1.95,0.01,2.92c-0.01,0.47-0.04,0.95-0.09,1.42c-0.04,0.34-0.1,0.66-0.17,0.99c-0.03,0.24-0.14,0.47-0.31,0.66
	c0,0,0,0,0-0.01c-0.23,0.26-0.56,0.44-0.91,0.44C188.58,328.67,188.05,328.42,187.85,327.93z"/>
<path class="st0" d="M267.69,81.39c0.06-0.63-0.42-1.23-1.04-1.36c-0.71-0.14-1.35,0.33-1.51,1.02c-0.01,0.06-0.02,0.13-0.03,0.19
	c0.72-0.22,1.51-0.07,2.11,0.43c0.2,0.17,0.36,0.36,0.49,0.57C267.7,81.96,267.7,81.68,267.69,81.39z"/>
<path class="st0" d="M267.38,81.26c0.02,0,0.05,0,0.08,0c0.04,0,0.08,0,0.12,0c0.03,0,0.05,0,0.08,0c0.01,0,0.01,0,0.02,0
	c2.37-0.04,4.74-0.2,7.1-0.34c1.13-0.07,2.25-0.13,3.38-0.2c0.9-0.05,1.8-0.11,2.71-0.12c0.75-0.01,1.51,0.01,2.26,0.03
	c0.56,0.01,1.12,0.02,1.68,0.04c0.7,0.03,1.32-0.52,1.35-1.23c0.03-0.7-0.52-1.32-1.23-1.35c-0.98-0.04-1.96-0.05-2.94-0.07
	c-1.87-0.03-3.74,0.11-5.61,0.22c-2.87,0.16-5.73,0.36-8.61,0.44c-0.03,0-0.05,0-0.08,0c-0.01,0-0.02,0-0.03,0
	c-0.11,0-0.21,0-0.32,0.01c-0.33,0-0.66,0-0.99-0.02c0,0,0,0-0.01,0c0,0,0,0,0,0c-0.01,0-0.01,0-0.02,0c-0.29-0.05-0.59,0-0.86,0.14
	c0.02-0.01,0.04-0.02,0.06-0.03c-0.05,0.02-0.09,0.05-0.13,0.08c0,0,0,0,0,0c0,0,0,0,0,0c0,0,0,0,0,0c0,0,0,0,0,0c0,0,0,0,0,0
	c-0.29,0.19-0.5,0.5-0.56,0.85c-0.1,0.56,0.19,1.16,0.72,1.4c0.05,0.02,0.09,0.04,0.14,0.05c0.25-0.01,0.5,0.03,0.74,0.11
	c0.07,0,0.13,0,0.2,0.01c0.14,0,0.29,0.01,0.43,0.01C267.18,81.26,267.28,81.26,267.38,81.26z"/>
<path class="st0" d="M285.93,77.7c-0.01-0.71-0.6-1.28-1.3-1.28c-0.7,0-1.28,0.6-1.28,1.3c0.01,0.71,0.6,1.28,1.3,1.28
	C285.35,79,285.93,78.4,285.93,77.7z"/>
<path class="st0" d="M285.87,78.98c0.17-0.24,0.28-0.5,0.27-0.8c0-0.09-0.01-0.17-0.01-0.26c-0.01-0.28-0.01-0.57-0.01-0.85
	c0-0.57,0.01-1.14,0.02-1.71c0.04-1.22,0.07-2.44,0.11-3.66c0.07-2.32,0.1-4.64,0.09-6.96c0-1.15-0.03-2.3-0.04-3.45
	c-0.01-0.62,0-1.25-0.08-1.86c-0.09-0.7-0.76-1.2-1.45-1.1c-0.7,0.1-1.19,0.76-1.1,1.45c0.01,0.05,0.01,0.1,0.02,0.16
	c0.03,0.49,0.03,0.98,0.04,1.47c0.01,1,0.04,2.01,0.04,3.01c0.01,1.13-0.01,2.26-0.02,3.39c-0.01,1.21-0.03,2.41-0.07,3.62
	c-0.04,1.16-0.07,2.31-0.11,3.47c-0.03,1.09-0.03,2.18-0.01,3.27c0,0.17,0.04,0.34,0.1,0.51c0.18,0.51,0.7,0.79,1.22,0.79
	C285.26,79.47,285.63,79.31,285.87,78.98z"/>
<path class="st0" d="M285.59,60.3c0.54-0.42,0.68-1.27,0.24-1.81c-0.16-0.2-0.35-0.35-0.58-0.45c-0.35-0.15-0.75-0.17-1.12-0.17
	c-0.57,0-1.14,0-1.71-0.01c-1.14-0.02-2.29-0.05-3.43-0.09c-2.08-0.07-4.15-0.15-6.23-0.22c-0.7-0.02-1.3,0.58-1.31,1.27
	c-0.01,0.71,0.57,1.28,1.27,1.31c1.86,0.06,3.71,0.14,5.57,0.2c1.02,0.03,2.04,0.06,3.06,0.09c0.51,0.01,1.01,0.02,1.52,0.03
	c0.48,0,0.96,0,1.43,0.01c0.16,0.07,0.33,0.1,0.51,0.1C285.09,60.56,285.36,60.48,285.59,60.3z"/>
<path class="st0" d="M270.97,60.12c0.44-0.01,0.87-0.02,1.31-0.03c0.33-0.01,0.66-0.03,0.99-0.01c0,0,0.01,0,0.01,0c0,0,0,0-0.01,0
	c0.01,0,0.02,0,0.03,0c0.27,0.03,0.55-0.01,0.8-0.16c0.05-0.03,0.1-0.06,0.14-0.1c0.35-0.3,0.55-0.71,0.49-1.17
	c-0.05-0.44-0.35-0.88-0.78-1.04c-0.51-0.18-1.08-0.12-1.61-0.11c-0.59,0.01-1.18,0.04-1.78,0.04c-1.21-0.01-2.41-0.05-3.62-0.08
	c-1.77-0.04-3.55-0.04-5.32-0.04c-0.71,0-1.42,0-2.13,0c-3.57-0.01-7.15-0.01-10.72-0.07c-0.7-0.01-1.3,0.57-1.31,1.27
	c-0.01,0.7,0.57,1.3,1.27,1.31c2.36,0.03,4.73,0.04,7.09,0.05c2.49,0.01,4.99,0.02,7.48,0.03c1.74,0,3.47,0.03,5.2,0.07
	c0.69,0.02,1.39,0.04,2.08,0.04C270.73,60.13,270.85,60.13,270.97,60.12z"/>
<path class="st0" d="M282.28,60.27c0.45-0.04,0.86-0.37,1.04-0.78c0.2-0.48,0.09-1.05-0.28-1.41c0,0,0,0,0,0c0,0,0,0,0,0
	c0,0-0.01-0.01-0.01-0.01c0,0,0,0,0,0c-0.05-0.05-0.11-0.09-0.16-0.13c-0.08-0.06-0.17-0.11-0.25-0.17
	c-0.89-0.62-1.74-1.31-2.57-2.01c-1.09-0.97-2.11-1.99-3.1-3.07c-0.72-0.83-1.45-1.66-2.13-2.53c-0.73-0.95-1.42-1.93-2.1-2.92
	c-0.57-0.87-1.11-1.75-1.62-2.66c-0.54-0.96-1.04-1.93-1.53-2.91c-1.34-2.78-2.49-5.65-3.64-8.52c-0.26-0.65-1.03-0.97-1.68-0.71
	c-0.65,0.27-0.97,1.03-0.71,1.68c0.85,2.11,1.71,4.2,2.61,6.28c0.98,2.25,2.09,4.44,3.35,6.56c1.27,2.13,2.73,4.16,4.32,6.06
	c1.6,1.92,3.32,3.74,5.27,5.31c0.73,0.59,1.47,1.17,2.25,1.69c0.23,0.18,0.52,0.27,0.81,0.27
	C282.19,60.28,282.23,60.28,282.28,60.27z"/>
<path class="st0" d="M250.21,34.96c2.27-0.04,4.54-0.06,6.81-0.08c1.17-0.01,2.33-0.02,3.5-0.04c0.6-0.01,1.2-0.03,1.8-0.05
	c0.53-0.02,1.05-0.05,1.57-0.02c0.03,0,0.06,0.01,0.09,0.01c0.58,0.22,1.26,0,1.58-0.55c0.35-0.6,0.14-1.41-0.47-1.76
	c-0.47-0.27-1.04-0.29-1.57-0.29c-0.58,0.01-1.16,0.03-1.74,0.05c-1.25,0.04-2.51,0.05-3.77,0.06c-2.34,0.02-4.67,0.05-7.01,0.08
	c-0.26,0-0.51,0.01-0.77,0.01c-0.7,0.01-1.3,0.55-1.31,1.27c-0.01,0.68,0.56,1.31,1.25,1.31C250.19,34.96,250.2,34.96,250.21,34.96z
	"/>
<path class="st0" d="M421.46,133.26c0.58-0.43,0.67-1.23,0.26-1.8c-3.61-5.15-7.47-10.11-11.66-14.79
	c-1.12-1.25-2.25-2.48-3.43-3.67c-0.6-0.6-1.21-1.19-1.82-1.79c-0.26-0.25-0.53-0.49-0.8-0.74c-0.29-0.26-0.57-0.53-0.86-0.79
	c-0.64-0.55-1.27-1.1-1.93-1.63c-0.7-0.57-1.4-1.12-2.12-1.67c-1.32-1.02-2.69-1.97-4.06-2.91c-0.68-0.47-1.38-0.91-2.09-1.35
	c-0.68-0.43-1.37-0.83-2.06-1.23c-1.37-0.79-2.77-1.55-4.21-2.22c-0.74-0.35-1.48-0.73-2.24-1.04c-0.87-0.36-1.74-0.72-2.61-1.08
	c-0.27-0.11-0.55-0.2-0.82-0.3c-0.57-0.2-1.13-0.41-1.7-0.61c-0.7-0.25-1.42-0.47-2.13-0.69c-0.7-0.22-1.4-0.44-2.1-0.63
	c-0.96-0.25-1.93-0.5-2.89-0.75c-0.23-0.06-0.47-0.1-0.7-0.15c-0.61-0.13-1.21-0.26-1.82-0.39c-0.66-0.14-1.32-0.28-1.99-0.4
	c-0.95-0.17-1.9-0.34-2.86-0.5c-0.26-0.05-0.53-0.07-0.79-0.11c-0.62-0.08-1.23-0.17-1.85-0.25c-1.56-0.21-3.13-0.34-4.69-0.49
	c-0.32-0.03-0.65-0.04-0.98-0.06c-0.63-0.04-1.26-0.08-1.88-0.11c-0.67-0.04-1.34-0.07-2.01-0.08c-0.58-0.01-1.15-0.03-1.73-0.04
	c-0.28-0.01-0.56-0.02-0.84-0.02c-1,0.01-2.01,0.02-3.01,0.04c-0.72,0.01-1.44,0.06-2.17,0.1c-0.74,0.04-1.47,0.06-2.21,0.13
	c-0.95,0.09-1.9,0.18-2.85,0.27c-0.29,0.03-0.58,0.08-0.86,0.12c-0.6,0.08-1.19,0.16-1.79,0.24c-0.75,0.1-1.49,0.24-2.24,0.37
	c-0.75,0.13-1.49,0.26-2.24,0.42c-0.8,0.17-1.61,0.32-2.41,0.51c-0.88,0.22-1.76,0.44-2.65,0.66c-0.34,0.09-0.68,0.19-1.02,0.29
	c-0.53,0.15-1.05,0.3-1.58,0.45c-0.81,0.23-1.62,0.51-2.42,0.77c-1.53,0.49-3.04,1.06-4.54,1.63c-3.04,1.16-6.02,2.44-9,3.74
	c-3.07,1.34-6.13,2.67-9.24,3.92c-3.05,1.23-6.11,2.44-9.19,3.61c-1.57,0.6-3.15,1.19-4.73,1.78c-1.52,0.56-3.03,1.13-4.57,1.63
	c-0.46,0.15-0.92,0.3-1.37,0.45c-0.93,0.28-1.86,0.54-2.8,0.79c-0.81,0.22-1.63,0.36-2.46,0.51c-0.47,0.07-0.93,0.14-1.4,0.18
	c-0.51,0.05-1.01,0.08-1.52,0.11c-0.4,0-0.8,0-1.2-0.01c0.08,0.86,0.18,1.72,0.26,2.59c1.45,0.03,2.92-0.08,4.35-0.34
	c0.4-0.07,0.79-0.15,1.19-0.22c0.42-0.08,0.83-0.19,1.25-0.28c0.75-0.17,1.49-0.39,2.22-0.61c1.53-0.46,3.05-0.97,4.55-1.51
	c6.32-2.27,12.57-4.71,18.77-7.27c6.07-2.5,12-5.34,18.19-7.54c0.65-0.23,1.29-0.47,1.94-0.68c0.74-0.24,1.47-0.47,2.21-0.71
	c0.77-0.22,1.54-0.44,2.3-0.66c0.61-0.17,1.22-0.32,1.83-0.47c0.61-0.15,1.22-0.31,1.84-0.44c0.84-0.18,1.69-0.36,2.53-0.53
	c0.49-0.08,0.97-0.17,1.46-0.25c0.49-0.08,0.97-0.19,1.46-0.25c0.57-0.08,1.14-0.15,1.7-0.23c0.48-0.07,0.97-0.15,1.45-0.2
	c0.6-0.06,1.2-0.11,1.8-0.17c0.47-0.04,0.94-0.11,1.41-0.13c1.07-0.06,2.14-0.11,3.21-0.17c0.97-0.01,1.94-0.02,2.92-0.04
	c0.79-0.01,1.59,0.02,2.38,0.04c0.79,0.02,1.58,0.03,2.37,0.08c1,0.06,2.01,0.12,3.01,0.18c0.96,0.09,1.93,0.19,2.89,0.28
	c0.81,0.08,1.61,0.19,2.41,0.3c0.82,0.11,1.63,0.21,2.45,0.35c1.03,0.18,2.06,0.36,3.09,0.54c0.91,0.2,1.81,0.39,2.72,0.59
	c0.72,0.16,1.42,0.34,2.14,0.53c0.76,0.2,1.52,0.38,2.27,0.61c0.92,0.28,1.84,0.57,2.76,0.85c0.76,0.27,1.53,0.55,2.29,0.82
	c0.6,0.22,1.19,0.46,1.78,0.71c0.64,0.26,1.28,0.51,1.9,0.8c0.76,0.36,1.53,0.72,2.29,1.07c0.64,0.33,1.27,0.67,1.91,1
	c0.49,0.26,0.97,0.54,1.46,0.81c0.52,0.3,1.05,0.59,1.56,0.91c0.65,0.41,1.3,0.82,1.95,1.23c1.39,0.95,2.78,1.89,4.11,2.92
	c0.82,0.63,1.63,1.26,2.43,1.92c0.66,0.54,1.3,1.1,1.95,1.66c0.79,0.73,1.58,1.46,2.35,2.21c0.74,0.72,1.46,1.46,2.16,2.2
	c1.42,1.49,2.77,3.04,4.12,4.59c3.34,3.94,6.48,8.03,9.44,12.25c0.24,0.34,0.63,0.51,1.03,0.51
	C420.96,133.51,421.24,133.43,421.46,133.26z"/>
<path class="st0" d="M452.48,180.52c0.66-0.05,1.31-0.11,1.96-0.25c0.67-0.15,1.34-0.33,1.99-0.54c0.95-0.31,1.86-0.73,2.69-1.28
	c0.39-0.26,0.75-0.55,1.11-0.85c0.24-0.2,0.49-0.42,0.7-0.65c0.2-0.21,0.41-0.42,0.59-0.64c0.25-0.3,0.5-0.6,0.73-0.92
	c0.37-0.5,0.7-1.04,0.99-1.59c0.6-1.15,1.08-2.34,1.47-3.56c0.2-0.61,0.37-1.22,0.51-1.84c0.14-0.59,0.22-1.19,0.31-1.78
	c0.18-1.21,0.3-2.45,0.3-3.67c0-0.7-0.06-1.41-0.11-2.11c-0.05-0.72-0.11-1.45-0.25-2.15c-0.29-1.44-0.63-2.87-1.02-4.29
	c-0.18-0.68-0.98-1.04-1.62-0.83c-0.32,0.1-0.59,0.33-0.75,0.62c-0.17,0.32-0.18,0.66-0.09,1c0.1,0.37,0.2,0.74,0.29,1.11
	c-0.01-0.06-0.03-0.11-0.04-0.17c0.32,1.32,0.68,2.65,0.83,4.01c0.11,1.03,0.19,2.06,0.19,3.09c-0.04,1.24-0.18,2.47-0.37,3.7
	c-0.13,0.73-0.3,1.45-0.5,2.16c-0.15,0.45-0.29,0.9-0.45,1.34c-0.15,0.41-0.32,0.82-0.49,1.22c-0.26,0.55-0.54,1.09-0.85,1.62
	c-0.23,0.34-0.46,0.68-0.71,1.01c-0.27,0.31-0.53,0.61-0.82,0.91c-0.35,0.32-0.71,0.64-1.09,0.93c-0.26,0.19-0.54,0.36-0.82,0.52
	c-0.24,0.13-0.48,0.24-0.72,0.35c-0.3,0.12-0.6,0.23-0.91,0.33c-0.35,0.12-0.71,0.22-1.07,0.32c-0.24,0.05-0.48,0.11-0.73,0.16
	c-0.24,0.05-0.49,0.08-0.73,0.11c-0.23,0.02-0.47,0.04-0.7,0.05c-0.17,0.01-0.35,0.01-0.53,0.01c-0.05,0-0.11,0-0.16,0
	c-0.25-0.02-0.5-0.03-0.75-0.05c-0.26-0.02-0.51-0.06-0.77-0.1c-0.42-0.07-0.83-0.17-1.24-0.29c-0.44-0.14-0.88-0.3-1.31-0.49
	c-0.48-0.23-0.93-0.5-1.39-0.77c-0.36-0.23-0.71-0.46-1.06-0.71c-0.33-0.24-0.65-0.49-0.96-0.74c-0.69-0.61-1.35-1.24-2-1.9
	c-0.44-0.48-0.87-0.96-1.29-1.45c-0.41-0.48-0.79-0.99-1.17-1.49c-0.53-0.76-1.05-1.52-1.54-2.31c-0.46-0.73-0.88-1.48-1.3-2.23
	c-0.65-1.21-1.27-2.43-1.85-3.68c-0.6-1.3-1.15-2.62-1.69-3.95c-0.92-2.38-1.77-4.78-2.69-7.15c-0.93-2.39-1.96-4.73-2.97-7.09
	c-0.94-2.22-1.86-4.45-2.92-6.61c-1.08-2.21-2.29-4.34-3.62-6.4c-0.31-0.48-0.63-0.95-0.96-1.41c-0.17-0.23-0.34-0.47-0.52-0.69
	c-0.13-0.16-0.26-0.33-0.43-0.45c-0.58-0.4-1.39-0.27-1.8,0.31c-0.36,0.51-0.29,1.22,0.14,1.65c0.1,0.12,0.2,0.25,0.3,0.38
	c1.17,1.61,2.2,3.32,3.18,5.05c0,0,0-0.01-0.01-0.01c0.6,1.09,1.16,2.19,1.69,3.31c0.52,1.1,1.01,2.22,1.5,3.34
	c0.49,1.13,0.97,2.27,1.45,3.4c0.48,1.13,0.97,2.25,1.45,3.39c0.34,0.82,0.67,1.64,1,2.46c0.93,2.38,1.78,4.79,2.7,7.17
	c0.92,2.39,1.98,4.72,3.14,7.01c0.57,1.12,1.2,2.2,1.84,3.29c0.66,1.13,1.42,2.21,2.2,3.25c0.76,1,1.57,1.97,2.45,2.86
	c0.44,0.44,0.87,0.89,1.34,1.31c0.5,0.44,1,0.9,1.54,1.29c0.53,0.38,1.06,0.75,1.62,1.09c0.37,0.22,0.74,0.45,1.13,0.65
	c0.5,0.26,1.03,0.46,1.56,0.65c0.58,0.21,1.18,0.36,1.79,0.48c0.41,0.08,0.82,0.12,1.23,0.17c0.15,0.02,0.31,0.02,0.47,0.03
	c0.18,0.01,0.35,0.03,0.53,0.03c0.09,0,0.18,0,0.26,0c0.08,0,0.16,0,0.24,0C452.23,180.53,452.36,180.53,452.48,180.52z"/>
<path class="st0" d="M453.71,192.26c0.56-0.01,1.11-0.01,1.67-0.04c0.64-0.03,1.27-0.09,1.91-0.15c1.05-0.1,2.09-0.28,3.12-0.49
	c2.13-0.43,4.24-1.03,6.22-1.94c0.52-0.24,1.04-0.49,1.55-0.76c0.56-0.29,1.1-0.62,1.64-0.96c0.93-0.58,1.78-1.26,2.62-1.97
	c0.23-0.2,0.45-0.43,0.67-0.64c0.18-0.17,0.35-0.36,0.52-0.55c0.37-0.41,0.73-0.83,1.05-1.28c0.15-0.22,0.32-0.43,0.46-0.66
	c0.15-0.25,0.31-0.5,0.46-0.75c0.32-0.53,0.56-1.09,0.8-1.66c0.4-0.96,0.68-1.95,0.84-2.98c0.14-0.85,0.14-1.71,0.15-2.57
	c0-0.46-0.04-0.93-0.1-1.39c-0.03-0.29-0.07-0.59-0.1-0.88c-0.04-0.34-0.12-0.68-0.18-1.01c-0.05-0.26-0.12-0.52-0.18-0.77
	c-0.05-0.22-0.1-0.44-0.17-0.66c-0.09-0.3-0.18-0.6-0.27-0.89c-0.1-0.31-0.23-0.62-0.34-0.93c-0.35-0.96-0.8-1.9-1.3-2.8
	c-0.34-0.61-0.68-1.23-1.06-1.81c-0.43-0.66-0.87-1.31-1.33-1.95c-0.81-1.15-1.69-2.26-2.62-3.32c-0.96-1.1-1.96-2.15-3.1-3.06
	c-0.56-0.45-1.15-0.87-1.82-1.15c-0.62-0.26-1.38,0.02-1.68,0.61c-0.32,0.62-0.07,1.41,0.55,1.74c0.1,0.05,0.21,0.09,0.31,0.11
	c0.04,0.02,0.08,0.04,0.12,0.07c0.41,0.27,0.8,0.56,1.19,0.87c0.43,0.38,0.85,0.77,1.26,1.17c0.63,0.67,1.24,1.36,1.83,2.07
	c0.63,0.75,1.22,1.53,1.8,2.32c0.45,0.64,0.89,1.29,1.32,1.95c0.41,0.62,0.76,1.27,1.12,1.92c0.17,0.34,0.34,0.68,0.5,1.02
	c0.16,0.32,0.29,0.66,0.42,0.99c0.11,0.31,0.23,0.62,0.34,0.93c0.13,0.35,0.22,0.71,0.33,1.07c0.12,0.48,0.23,0.97,0.32,1.46
	c0.08,0.47,0.14,0.94,0.2,1.41c0.02,0.34,0.04,0.68,0.06,1.01c0.02,0.28,0,0.56,0,0.83c0,0,0-0.01,0-0.01
	c-0.02,0.4-0.05,0.79-0.1,1.18c-0.08,0.46-0.18,0.92-0.3,1.37c-0.17,0.55-0.38,1.08-0.6,1.61c-0.13,0.26-0.27,0.53-0.4,0.79
	c-0.13,0.22-0.26,0.43-0.4,0.65c-0.16,0.26-0.36,0.51-0.54,0.76c-0.24,0.29-0.47,0.59-0.73,0.86c-0.31,0.34-0.63,0.66-0.96,0.98
	c-0.24,0.21-0.48,0.41-0.72,0.61c-0.22,0.19-0.46,0.36-0.69,0.53c-0.35,0.24-0.71,0.49-1.07,0.71c-0.41,0.25-0.83,0.49-1.25,0.73
	c-0.44,0.22-0.88,0.44-1.33,0.65c-0.39,0.18-0.78,0.34-1.18,0.5c-0.46,0.17-0.92,0.34-1.39,0.49c-0.51,0.16-1.02,0.31-1.53,0.45
	c-0.72,0.17-1.43,0.33-2.15,0.48c-0.74,0.15-1.49,0.24-2.24,0.35c-0.59,0.06-1.19,0.11-1.78,0.15c-0.66,0.04-1.31,0.04-1.97,0.05
	c-0.64-0.02-1.28-0.03-1.92-0.07c-0.69-0.04-1.37-0.12-2.05-0.19c-0.94-0.14-1.88-0.28-2.8-0.5c-0.49-0.12-0.98-0.23-1.47-0.35
	c-0.44-0.11-0.88-0.24-1.32-0.37c-0.74-0.24-1.48-0.48-2.21-0.75c-0.71-0.26-1.4-0.55-2.09-0.84c-0.72-0.34-1.43-0.67-2.13-1.04
	c-0.71-0.37-1.4-0.77-2.1-1.18c-0.44-0.28-0.89-0.56-1.33-0.84c-0.47-0.3-0.92-0.63-1.38-0.94c-0.91-0.62-1.77-1.31-2.64-1.99
	c-0.86-0.7-1.7-1.42-2.55-2.14c-0.9-0.78-1.76-1.61-2.63-2.42c-1.59-1.49-3.12-3.05-4.63-4.62c-2.96-3.23-5.84-6.54-8.6-9.94
	c-1.45-1.78-2.9-3.56-4.39-5.31c-1.34-1.58-2.73-3.13-4.2-4.6c-0.8-0.79-1.6-1.58-2.42-2.34c-0.86-0.8-1.74-1.56-2.64-2.32
	c-0.41-0.35-0.84-0.67-1.26-1.01c-0.41-0.33-0.84-0.64-1.27-0.94c-0.94-0.65-1.88-1.3-2.84-1.91c-1.91-1.22-3.86-2.38-5.85-3.48
	c-0.92-0.51-1.87-0.97-2.81-1.44c-0.47-0.23-0.94-0.44-1.41-0.66c-0.53-0.25-1.06-0.49-1.6-0.71c-1.01-0.41-2.02-0.84-3.05-1.19
	c-1.1-0.37-2.2-0.73-3.31-1.07c-1.16-0.36-2.35-0.67-3.52-0.98c-1.05-0.28-2.11-0.52-3.17-0.75c-2.15-0.47-4.32-0.78-6.5-1.06
	c-0.59-0.08-1.19-0.12-1.79-0.18c-0.56-0.05-1.12-0.08-1.69-0.12c-1-0.07-2.01-0.1-3.02-0.09c-0.18,0-0.36,0-0.54,0
	c-0.37,0-0.75,0-1.12,0.01c-0.65,0.02-1.29,0.05-1.94,0.07c-1.12,0.04-2.25,0.14-3.37,0.23c-2.22,0.18-4.42,0.46-6.62,0.76
	c-2.23,0.3-4.44,0.72-6.65,1.16c-2.16,0.43-4.31,0.9-6.43,1.45c-4.31,1.1-8.57,2.35-12.81,3.7c-2.1,0.66-4.17,1.38-6.23,2.15
	c-1.99,0.74-3.95,1.53-5.92,2.31c-1.32,0.53-2.64,1.05-3.97,1.57c-1.98,0.76-3.98,1.47-6,2.14c-2.03,0.67-4.08,1.23-6.15,1.76
	c0,0,0,0,0.01,0c-0.01,0-0.02,0.01-0.03,0.01c-0.21,0.03-0.42,0.1-0.62,0.15c-0.87,0.2-1.74,0.39-2.61,0.55
	c-0.94,0.17-1.88,0.3-2.82,0.41c-1.88,0.21-3.76,0.38-5.65,0.53c-1.75,0.13-3.51,0.23-5.26,0.22c-0.48-0.01-0.96-0.03-1.44-0.09
	c-0.36-0.06-0.72-0.13-1.07-0.21c-0.68-0.16-1.39,0.32-1.53,0.99c-0.15,0.7,0.31,1.37,0.99,1.53c0.51,0.12,1.02,0.21,1.53,0.28
	c0.51,0.07,1.02,0.07,1.53,0.08c0.96,0.01,1.92-0.02,2.89-0.06c1.94-0.09,3.87-0.25,5.8-0.44c2.19-0.21,4.36-0.46,6.52-0.9
	c0.49-0.1,0.97-0.21,1.45-0.32c0.15-0.04,0.31-0.06,0.46-0.11c0.2-0.04,0.39-0.1,0.59-0.15c0.01,0,0.02-0.01,0.04-0.01
	c0.03-0.01,0.05-0.01,0.08-0.02c0.3-0.08,0.6-0.15,0.9-0.23c1.11-0.29,2.22-0.6,3.32-0.92c1.01-0.3,2-0.63,3-0.97
	c1.07-0.36,2.14-0.73,3.2-1.13c2.04-0.76,4.06-1.57,6.09-2.38c1.04-0.41,2.07-0.82,3.11-1.23c-0.01,0-0.02,0.01-0.03,0.01
	c1.68-0.65,3.36-1.29,5.06-1.88c1.83-0.64,3.68-1.23,5.54-1.8c3.56-1.1,7.14-2.13,10.75-3.06c2.67-0.65,5.35-1.25,8.05-1.75
	c1.48-0.27,2.95-0.52,4.44-0.74c1.33-0.2,2.67-0.37,4.01-0.53c1.62-0.16,3.25-0.32,4.87-0.42c0.92-0.06,1.84-0.09,2.76-0.13
	c0.75-0.03,1.49-0.02,2.24-0.02c0.64,0.02,1.27,0.04,1.91,0.06c0.66,0.02,1.33,0.09,2,0.13c0.67,0.04,1.33,0.13,2,0.2
	c0.64,0.06,1.28,0.16,1.91,0.25c1.49,0.24,2.97,0.49,4.44,0.81c1.54,0.34,3.06,0.73,4.58,1.14c1.29,0.37,2.57,0.74,3.84,1.17
	c0.75,0.25,1.5,0.52,2.24,0.8c0.63,0.23,1.24,0.49,1.86,0.75c1.51,0.67,3.02,1.36,4.48,2.13c1.55,0.81,3.06,1.68,4.56,2.57
	c1.23,0.76,2.45,1.54,3.65,2.33c1.2,0.8,2.35,1.67,3.48,2.57c1.06,0.9,2.11,1.81,3.12,2.77c1,0.96,1.99,1.94,2.95,2.93
	c1.46,1.57,2.86,3.18,4.24,4.82c1.41,1.69,2.77,3.41,4.18,5.1c1.38,1.67,2.78,3.31,4.21,4.94c1.49,1.69,2.97,3.39,4.55,4.98
	c1.61,1.62,3.23,3.21,4.89,4.77c1.6,1.5,3.29,2.91,5.02,4.26c3.47,2.71,7.33,4.97,11.46,6.5c1.03,0.38,2.07,0.71,3.12,1.01
	c1.08,0.3,2.17,0.55,3.27,0.77c1.1,0.22,2.21,0.35,3.32,0.47c0.5,0.05,1,0.07,1.49,0.1c0.29,0.02,0.59,0.01,0.88,0.02
	c0.22,0.01,0.44,0.01,0.66,0.01C453.62,192.26,453.67,192.26,453.71,192.26z"/>
<path class="st0" d="M266.23,395.53C266.23,395.53,266.23,395.53,266.23,395.53c0.72-0.01,1.29-0.6,1.29-1.3
	c0-11.58,0-23.15,0-34.73c0-13.1,0-26.19,0-39.29c0-12.75,0-25.49,0-38.24c0-12.71,0-25.42,0-38.13c0-12.56,0-25.12,0-37.68
	c0-12.47,0-24.94,0-37.41c0-12.58,0-25.16,0-37.73c0-10.77,0-21.53,0-32.3c0-5.33,0-10.65,0-15.98c0-0.57,0-1.15,0-1.72
	c0-0.7-0.6-1.28-1.3-1.28c-0.71,0.01-1.28,0.6-1.28,1.3c0,4.76,0,9.52,0,14.28c0,10.13,0,20.27,0,30.4c0,12.13,0,24.27,0,36.4
	c0,12.68,0,25.36,0,38.05c0,12.64,0,25.28,0,37.91c0,12.53,0,25.05,0,37.58c0,12.76,0,25.53,0,38.29c0,12.97,0,25.94,0,38.91
	c0,12.82,0,25.64,0,38.46c0,0.97,0,1.95,0,2.92c0,0,0,0,0,0C264.94,394.95,265.53,395.53,266.23,395.53z"/>
<path class="st0" d="M269.21,116.05c1.01-0.02,2.01-0.07,3.01-0.14c1.05-0.07,2.11-0.15,3.16-0.26c1.08-0.11,2.14-0.3,3.2-0.49
	c0.41-0.08,0.82-0.15,1.23-0.23c0.69-0.13,1.14-0.84,1.01-1.52c-0.14-0.7-0.83-1.14-1.52-1.01c-1.12,0.21-2.25,0.44-3.38,0.6
	c-1.35,0.17-2.7,0.27-4.06,0.36c-1.33,0.09-2.66,0.13-3.99,0.14c-0.04,0-0.08,0-0.12,0c-0.01,0-0.01,0-0.02,0c0,0,0.01,0,0.01,0
	c-0.03,0-0.06,0-0.09,0c-0.24,0-0.47,0-0.71-0.01c-0.21-0.03-0.42-0.02-0.63,0.05c-0.38,0.13-0.66,0.44-0.8,0.81
	c-0.2,0.52,0.03,1.21,0.51,1.49c0.26,0.15,0.52,0.22,0.82,0.22c0.24,0.01,0.48,0.01,0.72,0.01c0.08,0,0.16,0,0.24,0
	C268.27,116.07,268.74,116.06,269.21,116.05z"/>
<path class="st0" d="M368.36,429.62c2.62-0.06,5.24-0.12,7.86-0.11c2.73,0.01,5.46,0.06,8.19,0.06c1.49,0,2.98-0.01,4.47-0.02
	c1.27-0.01,2.54-0.05,3.81,0.05c0.18,0.02,0.37,0.04,0.55,0.07c0.24,0.04,0.48,0,0.69-0.09c-0.03-0.61-0.08-1.21-0.14-1.82
	c-0.03-0.21-0.07-0.42-0.09-0.63c-0.02,0-0.05-0.01-0.07-0.01c-0.91-0.15-1.85-0.16-2.77-0.16c-1.27,0-2.55,0.02-3.82,0.03
	c-2.72,0.02-5.45-0.01-8.17-0.04c-2.7-0.03-5.4-0.01-8.1,0.05c-2.75,0.06-5.49,0.12-8.24,0.15c-2.82,0.03-5.64-0.07-8.46-0.18
	c-2.68-0.11-5.36-0.31-8.03-0.52c-1.41-0.13-2.81-0.27-4.22-0.42c-1.25-0.13-2.49-0.28-3.74-0.43c-2.94-0.35-5.88-0.69-8.81-1.07
	c-5.4-0.71-10.77-1.67-16.13-2.63c-2.74-0.49-5.49-0.97-8.22-1.53c-0.48-0.11-0.96-0.22-1.43-0.33c-0.51-0.12-1.02-0.27-1.53-0.4
	c-0.94-0.25-1.86-0.58-2.77-0.89c-1.44-0.56-2.87-1.15-4.27-1.79c-0.81-0.37-1.62-0.75-2.42-1.14c-0.64-0.31-1.27-0.64-1.9-0.97
	c-1.29-0.71-2.57-1.44-3.82-2.21c-1.24-0.77-2.45-1.57-3.66-2.38c-1.2-0.85-2.38-1.71-3.55-2.61c-1.12-0.86-2.21-1.76-3.29-2.69
	c-1.55-1.4-3.05-2.84-4.45-4.4c-0.83-0.97-1.62-1.97-2.34-3.03c-0.4-0.63-0.76-1.27-1.09-1.93c-0.16-0.35-0.32-0.71-0.45-1.08
	c-0.06-0.2-0.11-0.4-0.16-0.61c-0.04-0.26-0.08-0.53-0.1-0.79c0,0.05,0,0.09,0.01,0.14c-0.01-0.15-0.03-0.28-0.07-0.41
	c0.01,0.03,0.02,0.05,0.03,0.08c-0.04-0.17-0.12-0.32-0.22-0.45c0.03,0.04,0.06,0.09,0.09,0.13v0c0.01,0.02,0.02,0.05,0.03,0.07
	c-0.03-0.07-0.07-0.14-0.12-0.2c-0.31-0.4-0.84-0.61-1.36-0.48c-0.58,0.15-0.96,0.68-0.96,1.25c0-0.01,0-0.01,0-0.02
	c0,0.01,0,0.02,0,0.03c0,0.03,0,0.07,0,0.1c0.05,0.97,0.32,1.92,0.7,2.8c0.54,1.26,1.25,2.43,2.05,3.55
	c1.59,2.23,3.51,4.21,5.51,6.08c2.03,1.89,4.21,3.61,6.44,5.27c2.19,1.62,4.47,3.12,6.81,4.5c0.65,0.38,1.29,0.75,1.95,1.11
	c0.66,0.36,1.32,0.71,1.99,1.05c1.19,0.61,2.41,1.17,3.63,1.73c1.3,0.6,2.62,1.13,3.95,1.65c0.58,0.22,1.17,0.43,1.77,0.61
	c0.7,0.21,1.41,0.42,2.12,0.61c2.68,0.7,5.41,1.19,8.14,1.67c2.68,0.48,5.36,0.97,8.05,1.42c2.73,0.46,5.46,0.93,8.2,1.31
	c2.87,0.41,5.75,0.77,8.63,1.11c5.41,0.64,10.81,1.28,16.25,1.57c2.93,0.15,5.87,0.26,8.8,0.31c0.6,0.01,1.2,0.01,1.81,0.01
	C364.07,429.72,366.22,429.66,368.36,429.62z"/>
<path class="st0" d="M392.57,459.06c0.68,0,1.29-0.57,1.29-1.26c0-2.13,0-4.26,0-6.4c0-3.98,0-7.96,0-11.93c0-3.65,0-7.29,0-10.94
	c-0.01-0.1-0.02-0.2-0.02-0.3c-0.11-0.59-0.62-1.05-1.24-1.06c-0.69-0.01-1.31,0.56-1.31,1.26c0,0,0,0,0,0c0,3.64,0,7.29,0,10.93
	c0,3.98,0,7.96,0,11.94c0,2.14,0,4.28,0,6.41c0,0.01,0,0.02,0,0.03c0,0.7,0.55,1.3,1.26,1.31
	C392.56,459.06,392.57,459.06,392.57,459.06z"/>
<path class="st0" d="M239.41,461.18c0.1,0,0.21,0,0.31,0c4.56,0,9.11,0,13.67,0c6.18,0,12.35,0,18.53,0c6.5,0,12.99,0,19.49,0
	c6.4,0,12.79,0,19.19,0c6.48,0,12.96,0,19.44,0c6.45,0,12.89,0,19.34,0c6.57,0,13.14,0,19.71,0c6.34,0,12.69,0,19.03,0
	c1.26,0,2.53,0,3.79,0c0.35,0,0.68-0.1,0.94-0.34c0.25-0.23,0.4-0.55,0.41-0.89c0.03-0.68-0.52-1.35-1.23-1.35
	c-5.15,0-10.29,0-15.44,0c-6.55,0-13.1,0-19.66,0c-6.47,0-12.94,0-19.41,0c-6.39,0-12.78,0-19.18,0c-6.48,0-12.95,0-19.43,0
	c-6.48,0-12.95,0-19.43,0c-6.4,0-12.8,0-19.2,0c-5.7,0-11.39,0-17.09,0c-1.22,0-2.45,0-3.67,0c-0.35,0-0.68,0.1-0.94,0.34
	c-0.25,0.23-0.4,0.55-0.41,0.89c0,0.02,0,0.04,0,0.06C238.19,460.55,238.73,461.18,239.41,461.18z"/>
<path class="st0" d="M244.08,393.66c4.78,0,9.56,0,14.35,0c1.77,0,3.55,0,5.32,0c0.11,0,0.23,0,0.34,0c0.35,0,0.68-0.1,0.94-0.34
	c0.25-0.23,0.4-0.55,0.41-0.89c0-0.02,0-0.04,0-0.06c0-0.65-0.55-1.29-1.23-1.29c-4.55,0-9.1,0-13.65,0c-4.58,0-9.15,0-13.73,0
	c-1.65,0-3.3,0-4.94,0c-0.35,0-0.68,0.1-0.94,0.34c-0.25,0.23-0.4,0.55-0.41,0.89c-0.03,0.68,0.52,1.35,1.23,1.35
	C235.87,393.66,239.98,393.66,244.08,393.66z"/>
<path class="st0" d="M393.78,459.83c0.02-0.39,0.03-0.79,0.05-1.19c0.01-0.3,0.02-0.6,0.03-0.89c0.01-0.4,0.05-0.81-0.02-1.2
	c-0.12-0.69-0.88-1.12-1.54-0.97c-0.33,0.08-0.62,0.28-0.8,0.56c-0.15,0.23-0.21,0.49-0.2,0.75c0,0.03,0,0.05,0,0.08
	c0-0.01,0-0.01,0-0.02c0,0.01,0,0.01,0,0.02c0,0.55-0.03,1.11-0.05,1.66c-0.01,0.36-0.02,0.72-0.04,1.07
	c-0.04,0.7,0.53,1.32,1.23,1.35c0.02,0,0.04,0,0.06,0C393.17,461.05,393.74,460.51,393.78,459.83z"/>
<path class="st0" d="M430.83,316.9c0.07-0.03,0.14-0.06,0.2-0.1c0-0.01,0-0.02,0-0.04c0-0.14,0-0.28,0-0.41
	c-0.02-0.51-0.05-1.02-0.09-1.53c0-0.01,0-0.01,0-0.02c-0.04-0.22-0.09-0.45-0.13-0.67c-0.12-0.59-0.29-1.18-0.45-1.77
	c-0.27-1.01-0.53-2.03-0.77-3.05c-0.59-1.76-1.18-3.51-1.77-5.27c-2.22-6.6-4.44-13.2-6.66-19.8c-2.43-7.23-4.87-14.47-7.3-21.7
	c-2.46-7.31-4.92-14.62-7.38-21.93c-2.44-7.25-4.88-14.5-7.31-21.74c-2.45-7.29-4.9-14.57-7.35-21.86
	c-2.47-7.35-4.95-14.7-7.42-22.05c-2.38-7.08-4.76-14.16-7.15-21.24c-1.08-3.21-2.16-6.42-3.24-9.63c-0.52-1.55-1.04-3.1-1.56-4.65
	c-0.4-1.2-0.83-2.4-1.22-3.61c0-0.02-0.01-0.03-0.01-0.05c-0.01-0.03-0.02-0.05-0.03-0.08c-0.23-0.66-1.01-1-1.66-0.76
	c-0.31,0.12-0.57,0.36-0.72,0.66c-0.15,0.32-0.15,0.67-0.04,1c0.42,1.3,0.87,2.6,1.31,3.89c0.57,1.7,1.14,3.39,1.71,5.09
	c1.13,3.37,2.26,6.73,3.4,10.1c2.4,7.12,4.79,14.24,7.19,21.36c2.45,7.29,4.91,14.58,7.36,21.87c2.44,7.26,4.89,14.52,7.33,21.78
	c2.5,7.44,5.01,14.88,7.51,22.32c2.43,7.21,4.85,14.42,7.28,21.64c2.43,7.21,4.85,14.42,7.28,21.63c2.21,6.57,4.42,13.14,6.63,19.72
	c1.14,3.38,2.27,6.76,3.41,10.14c0.17,0.52,0.7,0.84,1.22,0.84C430.54,316.98,430.69,316.95,430.83,316.9z"/>
<path class="st0" d="M311.6,308.07c2.32-6.58,4.65-13.17,6.97-19.76c2.41-6.82,4.81-13.64,7.22-20.45c2.5-7.09,5-14.18,7.51-21.27
	c2.58-7.31,5.16-14.62,7.74-21.93c2.47-6.99,4.93-13.98,7.4-20.97c2.55-7.22,5.1-14.44,7.65-21.67c2.55-7.23,5.1-14.46,7.66-21.69
	c2.39-6.78,4.78-13.55,7.17-20.33c0.17-0.47,0.33-0.94,0.5-1.41c0.01-0.02,0.02-0.05,0.02-0.07c0.23-0.66-0.17-1.41-0.83-1.62
	c-0.68-0.22-1.39,0.17-1.62,0.83c-2.22,6.36-4.48,12.71-6.73,19.06c-2.52,7.14-5.04,14.28-7.56,21.43
	c-2.56,7.25-5.11,14.49-7.67,21.74c-2.5,7.07-4.99,14.15-7.49,21.22c-2.54,7.2-5.08,14.41-7.63,21.61
	c-2.53,7.16-5.05,14.32-7.58,21.48c-2.4,6.81-4.8,13.62-7.21,20.42c-2.36,6.69-4.72,13.38-7.08,20.07
	c-0.61,1.71-1.21,3.43-1.81,5.14c-0.13,0.65-0.31,1.29-0.55,1.91c-0.15,0.39-0.31,0.77-0.48,1.16c0.02,0,0.05,0.01,0.07,0.01
	c0.31,0.04,0.64,0.11,0.95,0.2c0.32,0.1,0.64,0.19,0.93,0.36c0.13,0.08,0.26,0.17,0.38,0.28c0.02,0,0.03,0.01,0.05,0.01
	C310.24,311.91,310.92,309.99,311.6,308.07z"/>
<path class="st0" d="M319.19,314.15c4.7,0,9.4,0,14.1,0c5.05,0,10.1,0,15.15,0c5.13,0,10.25,0,15.37,0c5.18,0,10.36,0,15.54,0
	c5.19,0,10.37,0,15.56,0c5.16,0,10.31,0,15.47,0c5.09,0,10.18,0,15.27,0c0.83,0,1.66,0,2.49,0c0.22,0,0.43,0,0.65,0
	c0.35,0,0.68-0.1,0.94-0.34c0.25-0.23,0.4-0.55,0.41-0.89c0-0.02,0-0.04,0-0.06c0-0.65-0.55-1.29-1.23-1.29c-4.82,0-9.64,0-14.46,0
	c-5.1,0-10.2,0-15.3,0c-5.2,0-10.4,0-15.6,0c-5.12,0-10.24,0-15.36,0c-5.16,0-10.32,0-15.48,0c-5.19,0-10.38,0-15.57,0
	c-4.87,0-9.73,0-14.6,0c-3.86,0-7.73,0-11.59,0c-0.57,0-1.14,0-1.71,0c-0.35,0-0.68,0.1-0.94,0.34c-0.25,0.23-0.4,0.55-0.41,0.89
	c0,0.1,0,0.21,0.03,0.31c0.1,0.02,0.19,0.05,0.28,0.08c0.32,0.1,0.64,0.19,0.93,0.36c0.13,0.08,0.26,0.17,0.38,0.28
	c0.23,0.06,0.45,0.15,0.66,0.28c0.02,0.02,0.05,0.03,0.07,0.05C313.22,314.15,316.2,314.15,319.19,314.15z"/>
<path class="st0" d="M371.78,384.82c4.47-0.21,8.9-0.95,13.21-2.16c4.19-1.18,8.25-2.84,12.07-4.93c4.06-2.21,7.86-4.88,11.31-7.96
	c3.85-3.43,7.29-7.34,10.22-11.59c2.78-4.03,5.12-8.37,6.98-12.9c1.64-4,2.91-8.15,3.82-12.37c0.53-2.48,0.94-4.99,1.23-7.51
	c0.09-0.8,0.17-1.61,0.24-2.41c0.05-0.14,0.08-0.3,0.09-0.46c0.03-0.54,0.04-1.09,0.06-1.63c0.01-0.17,0.03-0.34,0.02-0.5
	c-0.01-0.64-0.47-1.19-1.11-1.28c-0.7-0.09-1.35,0.41-1.45,1.1c-0.03,0.2-0.02,0.41-0.03,0.61c0,0.07,0,0.14-0.01,0.21
	c-0.01,0.12-0.02,0.24-0.03,0.35c0,0.01,0,0.03,0,0.04c0,0.02,0,0.04,0,0.07c0,0,0,0,0-0.01c0,0.02,0,0.04,0,0.06
	c-0.24,3.4-0.7,6.79-1.38,10.14c0.01-0.06,0.02-0.11,0.03-0.17c-0.64,3.12-1.48,6.19-2.51,9.2c-0.98,2.79-2.12,5.52-3.44,8.16
	c-1.27,2.51-2.68,4.95-4.25,7.29c-1.53,2.26-3.21,4.41-5.01,6.47c-1.7,1.92-3.52,3.73-5.43,5.44c-1.87,1.63-3.82,3.14-5.87,4.53
	c-2.05,1.37-4.17,2.62-6.37,3.73c-2.2,1.1-4.47,2.05-6.79,2.87c-2.34,0.8-4.72,1.47-7.14,1.96c-2.46,0.5-4.95,0.84-7.46,1.01
	c-2.46,0.16-4.93,0.16-7.39,0c-2.47-0.18-4.91-0.51-7.34-1c-2.5-0.52-4.95-1.21-7.36-2.03c-1.8-0.63-3.57-1.34-5.3-2.14
	c-0.42-0.19-0.83-0.39-1.24-0.59c-0.11-0.05-0.22-0.11-0.33-0.16c-0.02-0.01-0.03-0.02-0.05-0.03c-0.04-0.02-0.09-0.05-0.13-0.07
	c0,0-0.01,0-0.01,0c-2.21-1.13-4.34-2.39-6.39-3.77c0.05,0.03,0.09,0.06,0.14,0.09c-2.26-1.53-4.44-3.18-6.5-4.97c0,0,0,0,0,0
	c0,0-0.01-0.01-0.01-0.01c-0.03-0.03-0.06-0.05-0.09-0.08c0.02,0.02,0.04,0.04,0.06,0.05c-1.98-1.75-3.85-3.64-5.61-5.62
	c-1.84-2.1-3.55-4.31-5.12-6.62c-1.67-2.49-3.18-5.09-4.53-7.77c0.01,0.02,0.02,0.04,0.03,0.06c-1.25-2.51-2.36-5.08-3.3-7.73
	c-0.03-0.09-0.06-0.18-0.1-0.27c-0.04-0.13-0.09-0.26-0.13-0.4c-0.1-0.3-0.2-0.6-0.3-0.91c-0.19-0.58-0.37-1.16-0.55-1.75
	c-0.67-2.2-1.2-4.44-1.67-6.69c0.01,0.06,0.02,0.11,0.03,0.17c-0.28-1.38-0.53-2.76-0.74-4.16c-0.09,0.02-0.18,0.04-0.27,0.06
	c-0.01,0-0.02,0-0.03,0.01c-0.22,0.1-0.45,0.19-0.67,0.28c-0.49,0.19-0.99,0.38-1.49,0.53c0.65,4.09,1.58,8.13,2.85,12.07
	c0.1,0.3,0.2,0.6,0.3,0.9c0.05,0.15,0.1,0.3,0.15,0.45c0.05,0.14,0.09,0.29,0.15,0.43c0.04,0.11,0.08,0.23,0.12,0.34
	c0.21,0.61,0.43,1.21,0.67,1.81c0.9,2.32,1.94,4.57,3.08,6.78c2.38,4.62,5.26,8.99,8.61,12.96c3.24,3.84,6.9,7.31,10.93,10.29
	c1.87,1.38,3.81,2.68,5.81,3.87c1.15,0.68,2.32,1.32,3.51,1.91c0.04,0.03,0.09,0.05,0.14,0.07c0.02,0.01,0.04,0.02,0.07,0.03
	c4.34,2.17,8.97,3.8,13.7,4.86c4.12,0.93,8.35,1.4,12.57,1.4C369.96,384.89,370.87,384.87,371.78,384.82z"/>
<path class="st0" d="M307.39,319.8c0.02,0.01,0.04,0.03,0.07,0.04C307.44,319.83,307.42,319.81,307.39,319.8z"/>
<path class="st0" d="M428.39,321.5c0,0,0,0.01,0,0.01C428.39,321.51,428.39,321.5,428.39,321.5z"/>
<path class="st0" d="M428.39,321.41C428.39,321.41,428.39,321.41,428.39,321.41c0,0,0,0.01,0,0.02
	C428.39,321.42,428.39,321.42,428.39,321.41z"/>
<path class="st0" d="M428.4,321.35c0,0.02,0,0.03,0,0.05C428.39,321.39,428.39,321.37,428.4,321.35z"/>
<path class="st0" d="M430.68,325.43c0.28-3.12,0.37-6.27,0.32-9.4c0-0.19-0.01-0.39-0.01-0.58c-0.01-0.21-0.03-0.41-0.05-0.62
	c0-0.01,0-0.01,0-0.02c-0.04-0.22-0.09-0.45-0.13-0.67c-0.12-0.59-0.29-1.18-0.45-1.77c-0.02-0.09-0.05-0.18-0.07-0.26
	c-0.2-0.12-0.44-0.19-0.67-0.19c-0.72,0-1.27,0.59-1.29,1.29c-0.01,0.22,0.02,0.45,0.03,0.67c0.01,0.37,0.03,0.74,0.04,1.11
	c0.02,0.89,0.04,1.78,0.04,2.67c0,1.74-0.06,3.49-0.15,5.23c-0.02,0.28-0.03,0.55-0.05,0.83c0,0.04-0.01,0.09-0.01,0.13
	c0,0.01,0,0.01,0,0.02c0,0,0-0.01,0-0.01c-0.03,0.41-0.06,0.82-0.1,1.22c-0.03,0.35,0.04,0.68,0.26,0.96
	c0.21,0.27,0.51,0.44,0.85,0.49c0.05,0.01,0.11,0.01,0.16,0.01C430.01,326.54,430.62,326.07,430.68,325.43z"/>
<path class="st0" d="M308.72,327.8c0.11-0.28,0.16-0.57,0.08-0.87c-0.03-0.13-0.06-0.26-0.09-0.4c-0.09-0.67-0.11-1.34-0.13-2.01
	c-0.04-1.95,0.09-3.9,0.3-5.84c0.11-0.98,0.23-1.95,0.36-2.93c0.09-0.69,0.16-1.38,0.31-2.06c0.09-0.35,0.2-0.68,0.34-1.02
	c-0.02,0.05-0.04,0.11-0.06,0.16c0.08-0.2,0.16-0.4,0.24-0.6c0.13-0.32,0.17-0.64,0.05-0.98c-0.11-0.32-0.36-0.59-0.67-0.74
	c-0.61-0.28-1.46-0.03-1.71,0.62c-0.25,0.62-0.5,1.23-0.66,1.88c-0.18,0.75-0.26,1.52-0.36,2.28c-0.3,2.26-0.59,4.53-0.68,6.81
	c-0.04,0.97-0.03,1.95-0.01,2.92c0.01,0.47,0.04,0.95,0.09,1.42c0.04,0.34,0.1,0.66,0.17,0.99c0.03,0.24,0.14,0.47,0.31,0.66
	c0,0,0,0,0-0.01c0.23,0.26,0.56,0.44,0.91,0.44C307.99,328.54,308.53,328.29,308.72,327.8z"/>
<path class="st0" d="M244.6,34.93c-0.27-0.21-0.45-0.51-0.5-0.85c-0.09-0.67,0.4-1.39,1.1-1.45c0.36-0.03,0.72-0.1,1.09-0.12
	c0.63-0.03,1.27-0.02,1.9-0.01c1.22,0.02,2.44,0.01,3.65-0.07c0.59-0.05,1.17-0.1,1.76-0.13c0.7-0.04,1.29,0.6,1.3,1.28
	c0,0.34-0.13,0.68-0.38,0.92c-0.25,0.25-0.56,0.36-0.9,0.38c-0.26,0.01-0.52,0.03-0.78,0.05c0.01,0,0.03,0,0.04,0
	c-0.52,0.04-1.04,0.09-1.57,0.11c-0.57,0.02-1.13,0.04-1.7,0.05c-0.46,0.01-0.92,0-1.38-0.01c-0.62-0.01-1.25-0.02-1.87,0.01
	c-0.27,0.03-0.53,0.07-0.8,0.1c-0.05,0-0.1,0.01-0.15,0.01C245.12,35.18,244.84,35.11,244.6,34.93z"/>
<path class="st0" d="M257.03,81.38c-4.8,0-9.61,0-14.41,0c-3.85,0-7.69,0-11.54,0c-0.02,0-0.04,0-0.06,0c-0.7,0-1.31-0.52-1.33-1.24
	c0-0.02,0-0.03,0-0.05c0-0.67,0.56-1.29,1.24-1.29c4.48,0,8.96,0,13.43,0c4.76,0,9.53,0,14.29,0c2.47,0,4.95,0,7.42,0
	c0.7,0,1.31,0.52,1.33,1.24c0.02,0.68-0.54,1.33-1.24,1.33C263.12,81.38,260.07,81.38,257.03,81.38z"/>
<path class="st1" d="M229.06,131.17c0,6.39,0,12.78,0,19.17c-0.04,0-0.08,0.01-0.11,0.02c-0.36,0.08-0.71,0.15-1.07,0.21
	c-0.48,0.06-0.96,0.08-1.44,0.09c-1.76,0.01-3.51-0.09-5.26-0.22c-1.89-0.14-3.77-0.32-5.65-0.53c-0.94-0.12-1.89-0.24-2.82-0.41
	c-0.88-0.16-1.74-0.35-2.61-0.55c-0.2-0.06-0.41-0.12-0.62-0.15c-0.01,0-0.02-0.01-0.03-0.01c-2.06-0.53-4.12-1.09-6.14-1.76
	c-2.02-0.67-4.02-1.38-6-2.14c-1.32-0.52-2.65-1.04-3.97-1.57c-1.97-0.78-3.94-1.57-5.92-2.31c-2.06-0.77-4.13-1.49-6.23-2.15
	c-4.24-1.35-8.5-2.6-12.81-3.7c-2.13-0.55-4.28-1.02-6.43-1.45c-2.21-0.44-4.42-0.85-6.65-1.16c-2.2-0.3-4.41-0.58-6.62-0.76
	c-1.12-0.09-2.24-0.2-3.37-0.23c-0.65-0.02-1.29-0.05-1.94-0.07c-0.37-0.01-0.75-0.01-1.12-0.01c-0.18,0-0.36,0-0.54,0
	c-1.01,0-2.01,0.03-3.02,0.09c-0.56,0.04-1.13,0.06-1.69,0.12c-0.6,0.06-1.19,0.1-1.79,0.18c-2.18,0.28-4.35,0.59-6.5,1.06
	c-1.06,0.23-2.12,0.47-3.17,0.75c-1.18,0.32-2.36,0.62-3.52,0.98c-1.11,0.34-2.21,0.7-3.31,1.07c-1.03,0.35-2.04,0.78-3.05,1.19
	c-0.54,0.22-1.08,0.46-1.6,0.71c-0.47,0.22-0.95,0.43-1.41,0.66c-0.94,0.47-1.89,0.93-2.81,1.44c-1.99,1.1-3.94,2.26-5.85,3.48
	c-0.96,0.61-1.9,1.26-2.84,1.91c-0.43,0.3-0.86,0.61-1.27,0.94c-0.42,0.33-0.85,0.66-1.26,1.01c-0.89,0.76-1.78,1.53-2.64,2.32
	c-0.83,0.76-1.63,1.55-2.42,2.34c-1.47,1.46-2.86,3.02-4.2,4.6c-1.49,1.75-2.94,3.52-4.39,5.31c-2.76,3.4-5.64,6.72-8.6,9.94
	c-1.51,1.57-3.04,3.13-4.63,4.62c-0.87,0.81-1.73,1.64-2.63,2.42c-0.84,0.73-1.69,1.44-2.55,2.14c-0.87,0.68-1.73,1.37-2.64,1.99
	c-0.46,0.31-0.91,0.64-1.38,0.94c-0.44,0.28-0.89,0.56-1.33,0.84c-0.7,0.4-1.39,0.8-2.1,1.18c-0.7,0.37-1.41,0.71-2.13,1.04
	c-0.69,0.29-1.38,0.58-2.09,0.84c-0.73,0.27-1.47,0.51-2.21,0.75c-0.44,0.13-0.88,0.26-1.32,0.37c-0.49,0.12-0.98,0.23-1.47,0.35
	c-0.92,0.22-1.87,0.35-2.8,0.5c-0.68,0.08-1.36,0.15-2.05,0.19c-0.64,0.04-1.28,0.06-1.92,0.08c-0.66-0.01-1.31-0.02-1.97-0.05
	c-0.6-0.03-1.19-0.09-1.78-0.15c-0.75-0.1-1.5-0.2-2.24-0.35c-0.72-0.15-1.43-0.3-2.15-0.48c-0.51-0.14-1.02-0.29-1.53-0.45
	c-0.47-0.15-0.93-0.32-1.39-0.49c-0.39-0.16-0.79-0.32-1.17-0.5c-0.45-0.21-0.89-0.42-1.33-0.65c-0.42-0.24-0.84-0.47-1.24-0.73
	c-0.37-0.23-0.72-0.47-1.07-0.71c-0.23-0.17-0.47-0.34-0.69-0.53c-0.24-0.2-0.48-0.41-0.72-0.61c-0.33-0.32-0.65-0.64-0.96-0.98
	c-0.26-0.28-0.49-0.57-0.73-0.86c-0.18-0.25-0.38-0.5-0.54-0.76c-0.13-0.22-0.26-0.43-0.4-0.65c-0.13-0.26-0.27-0.53-0.4-0.79
	c-0.22-0.53-0.43-1.06-0.6-1.61c-0.12-0.45-0.22-0.91-0.3-1.37c-0.05-0.39-0.08-0.79-0.1-1.18c-0.01-0.27-0.02-0.55,0-0.82
	c0.02-0.34,0.04-0.67,0.06-1.01c0.06-0.47,0.12-0.94,0.2-1.41c0.09-0.49,0.2-0.97,0.32-1.46c0.11-0.36,0.2-0.72,0.33-1.07
	c0.11-0.31,0.23-0.62,0.34-0.93c0.14-0.33,0.27-0.67,0.42-0.99c0.17-0.34,0.34-0.68,0.5-1.02c0.36-0.65,0.71-1.3,1.12-1.92
	c0.43-0.66,0.87-1.3,1.32-1.95c0.59-0.79,1.18-1.56,1.8-2.32c0.59-0.71,1.2-1.39,1.83-2.07c0.41-0.4,0.83-0.79,1.26-1.17
	c0.02-0.01,0.03-0.03,0.05-0.04c-0.08,0.36-0.16,0.73-0.23,1.09c-0.14,0.71-0.2,1.44-0.25,2.15c-0.05,0.7-0.11,1.4-0.11,2.11
	c0,1.23,0.12,2.46,0.3,3.68c0.09,0.6,0.17,1.2,0.31,1.78c0.14,0.62,0.31,1.23,0.51,1.84c0.4,1.23,0.88,2.42,1.47,3.56
	c0.29,0.55,0.62,1.09,0.99,1.59c0.24,0.31,0.48,0.62,0.73,0.92c0.19,0.22,0.39,0.43,0.59,0.64c0.22,0.23,0.46,0.45,0.7,0.65
	c0.36,0.29,0.72,0.59,1.11,0.84c0.84,0.55,1.75,0.96,2.69,1.28c0.66,0.22,1.32,0.39,1.99,0.54c0.65,0.14,1.3,0.2,1.96,0.25
	c0.12,0.01,0.24,0.01,0.36,0.01c0.08,0,0.16,0,0.24,0c0.09,0,0.18,0,0.26,0c0.18,0,0.35-0.02,0.53-0.03
	c0.15-0.01,0.31-0.01,0.47-0.03c0.41-0.05,0.82-0.1,1.23-0.17c0.61-0.12,1.2-0.27,1.79-0.48c0.53-0.19,1.06-0.39,1.56-0.65
	c0.39-0.2,0.75-0.42,1.13-0.65c0.56-0.34,1.09-0.71,1.62-1.09c0.54-0.39,1.04-0.85,1.54-1.29c0.47-0.41,0.9-0.86,1.34-1.31
	c0.88-0.89,1.7-1.86,2.45-2.86c0.79-1.04,1.54-2.12,2.2-3.25c0.64-1.08,1.27-2.17,1.84-3.29c1.16-2.28,2.22-4.62,3.14-7.01
	c0.92-2.38,1.77-4.79,2.7-7.17c0.33-0.82,0.66-1.64,1-2.45c0.47-1.13,0.97-2.26,1.45-3.39c0.48-1.13,0.96-2.27,1.45-3.4
	c0.49-1.12,0.97-2.24,1.5-3.34c0.53-1.12,1.09-2.23,1.69-3.31c0.59-1.06,1.21-2.11,1.87-3.14c2.8-3.95,5.76-7.78,8.9-11.48
	c1.34-1.55,2.7-3.1,4.12-4.59c0.71-0.75,1.42-1.49,2.16-2.2c0.77-0.75,1.56-1.48,2.35-2.21c0.65-0.56,1.29-1.12,1.95-1.66
	c0.8-0.65,1.61-1.29,2.43-1.92c1.33-1.03,2.72-1.97,4.11-2.92c0.65-0.41,1.3-0.82,1.95-1.23c0.51-0.32,1.04-0.61,1.56-0.91
	c0.48-0.28,0.96-0.56,1.46-0.81c0.64-0.33,1.27-0.67,1.91-1c0.76-0.36,1.53-0.71,2.29-1.07c0.62-0.29,1.27-0.54,1.9-0.8
	c0.59-0.24,1.18-0.49,1.78-0.71c0.76-0.27,1.53-0.55,2.29-0.82c0.92-0.28,1.84-0.57,2.76-0.85c0.75-0.23,1.51-0.41,2.27-0.61
	c0.71-0.18,1.42-0.37,2.14-0.53c0.9-0.2,1.81-0.39,2.72-0.59c1.03-0.18,2.06-0.36,3.09-0.54c0.81-0.14,1.63-0.24,2.45-0.35
	c0.8-0.11,1.61-0.22,2.41-0.3c0.96-0.09,1.93-0.19,2.89-0.28c1.01-0.06,2.01-0.12,3.01-0.18c0.79-0.05,1.58-0.06,2.37-0.08
	c0.79-0.02,1.59-0.05,2.38-0.04c0.97,0.01,1.94,0.02,2.92,0.04c1.07,0.06,2.14,0.11,3.21,0.17c0.47,0.02,0.94,0.09,1.41,0.13
	c0.6,0.06,1.2,0.11,1.8,0.17c0.49,0.05,0.97,0.13,1.45,0.2c0.57,0.08,1.14,0.15,1.7,0.23c0.49,0.07,0.98,0.17,1.46,0.25
	c0.49,0.08,0.97,0.17,1.46,0.25c0.85,0.18,1.69,0.36,2.53,0.53c0.62,0.13,1.23,0.29,1.84,0.44c0.61,0.15,1.23,0.3,1.83,0.47
	c0.77,0.22,1.54,0.44,2.3,0.66c0.74,0.24,1.47,0.47,2.21,0.71c0.65,0.21,1.3,0.45,1.94,0.68c6.19,2.2,12.12,5.04,18.19,7.54
	c6.2,2.56,12.46,5,18.77,7.27c1.32,0.47,2.65,0.92,4,1.34c0.17,0.16,0.38,0.28,0.62,0.32c0.41,0.08,0.82,0.16,1.23,0.23
	c0.03,0.01,0.06,0.01,0.1,0.02h0c0.28,0.08,0.56,0.15,0.84,0.21c0.42,0.09,0.83,0.21,1.25,0.28c0.4,0.07,0.79,0.15,1.19,0.22
	c1.43,0.26,2.9,0.37,4.35,0.34c0.01-0.08,0.01-0.15,0.02-0.23c0.54,0.03,1.09,0.04,1.63,0.05c0.47,0.01,0.94,0.02,1.41,0.02
	c0.08,0,0.16,0,0.24,0c0.02,0,0.04,0,0.05,0C229.06,121.19,229.06,126.18,229.06,131.17z"/>
<path class="st1" d="M283.76,64.42c0.01,1.13-0.01,2.26-0.02,3.39c-0.01,1.21-0.03,2.41-0.07,3.62c-0.04,1.16-0.07,2.31-0.11,3.47
	c-0.02,0.71-0.03,1.42-0.03,2.13c-0.13,0.2-0.2,0.44-0.2,0.68c0,0.11,0.02,0.22,0.05,0.32c-0.47-0.01-0.93-0.02-1.4-0.02
	c-1.87-0.03-3.74,0.11-5.61,0.22c-2.87,0.16-5.73,0.36-8.61,0.44c-0.03,0-0.05,0-0.08,0c-0.01,0-0.02,0-0.03,0
	c-0.11,0-0.21,0-0.32,0.01c-0.33,0-0.66,0-0.99-0.02c0,0,0,0,0,0c-0.01,0-0.01,0-0.02,0c-0.29-0.05-0.59,0-0.86,0.14
	c0.02-0.01,0.04-0.02,0.06-0.03c-0.02,0.01-0.04,0.02-0.07,0.03c-2.28,0-4.55,0-6.83,0c-4.76,0-9.53,0-14.29,0
	c-4.48,0-8.96,0-13.43,0c-0.05,0-0.11,0-0.16,0.01c-0.18-0.04-0.36-0.05-0.54-0.02c-0.01,0-0.01,0-0.02,0c0,0,0,0,0,0
	c-0.33,0.02-0.66,0.03-0.99,0.02c-0.11-0.01-0.21-0.01-0.32-0.01c-0.01,0-0.02,0-0.03,0c-0.03,0-0.05,0-0.08,0
	c-2.87-0.08-5.74-0.28-8.61-0.44c-1.87-0.11-3.74-0.25-5.61-0.22c-0.47,0.01-0.93,0.02-1.4,0.02c0.03-0.1,0.04-0.21,0.05-0.33
	c0-0.25-0.07-0.48-0.2-0.68c0-0.71,0-1.42-0.03-2.13c-0.04-1.16-0.07-2.31-0.11-3.47c-0.04-1.21-0.06-2.41-0.07-3.62
	c-0.01-1.13-0.02-2.26-0.02-3.39c0.01-1,0.03-2.01,0.04-3.01c0-0.32,0.01-0.64,0.02-0.96c0.27,0,0.54,0,0.82,0
	c0.51-0.01,1.01-0.02,1.52-0.03c1.02-0.03,2.04-0.06,3.06-0.09c1.86-0.06,3.71-0.14,5.57-0.2c0.1,0,0.19-0.02,0.28-0.04
	c0.06,0,0.11,0,0.17,0c0.44,0.01,0.87,0.03,1.31,0.03c0.12,0,0.24,0,0.36,0c0.69,0,1.39-0.03,2.08-0.04
	c1.74-0.04,3.47-0.07,5.2-0.07c2.49,0,4.99-0.02,7.48-0.03c2.37-0.01,4.73-0.01,7.09-0.05c0.23,0,0.44-0.07,0.63-0.18
	c0.1,0.03,0.2,0.04,0.31,0.04c2.36,0.03,4.73,0.04,7.09,0.05c2.49,0.01,4.99,0.02,7.48,0.03c1.74,0,3.47,0.03,5.2,0.07
	c0.69,0.02,1.38,0.04,2.08,0.04c0.12,0,0.24,0,0.36,0c0.44-0.01,0.87-0.02,1.31-0.03c0.05,0,0.11,0,0.16,0
	c0.09,0.02,0.19,0.04,0.28,0.04c1.86,0.06,3.71,0.14,5.57,0.2c1.02,0.03,2.04,0.06,3.06,0.09c0.51,0.01,1.01,0.02,1.52,0.03
	c0.27,0,0.54,0,0.82,0c0.01,0.32,0.01,0.64,0.02,0.96C283.73,62.41,283.75,63.42,283.76,64.42z"/>
<path class="st1" d="M391.29,451.3c0,2.06,0,4.12,0,6.18c-0.01,0.37-0.03,0.75-0.04,1.12c-4.88,0-9.76,0-14.64,0
	c-6.55,0-13.1,0-19.66,0c-6.47,0-12.94,0-19.41,0c-6.39,0-12.78,0-19.18,0c-6.48,0-12.95,0-19.43,0c-6.48,0-12.95,0-19.43,0
	c-6.4,0-12.8,0-19.2,0c-5.7,0-11.39,0-17.09,0c-1.22,0-2.45,0-3.67,0c-0.23,0-0.44,0.04-0.63,0.13c-0.87,0-1.74,0-2.62,0
	c-6.4,0-12.8,0-19.2,0c-6.48,0-12.95,0-19.43,0c-6.48,0-12.95,0-19.43,0c-6.39,0-12.78,0-19.18,0c-6.47,0-12.94,0-19.41,0
	c-6.55,0-13.1,0-19.66,0c-4.88,0-9.76,0-14.64,0c-0.01-0.38-0.03-0.76-0.04-1.14c0-2.06,0-4.11,0-6.17c0-3.98,0-7.96,0-11.94
	c0-3.28,0-6.56,0-9.83c0.8-0.01,1.6,0,2.4,0.01c1.49,0.01,2.98,0.02,4.47,0.02c2.73,0,5.46-0.05,8.19-0.06
	c2.62-0.01,5.24,0.06,7.86,0.11c2.14,0.05,4.29,0.1,6.43,0.1c0.6,0,1.2,0,1.81-0.01c2.94-0.05,5.87-0.16,8.8-0.31
	c5.44-0.29,10.85-0.93,16.25-1.57c2.88-0.34,5.76-0.7,8.63-1.11c2.74-0.39,5.47-0.85,8.2-1.31c2.68-0.45,5.36-0.95,8.05-1.42
	c2.73-0.49,5.46-0.97,8.14-1.67c0.71-0.19,1.41-0.39,2.12-0.61c0.59-0.18,1.19-0.38,1.77-0.61c1.33-0.52,2.66-1.05,3.95-1.65
	c1.22-0.56,2.43-1.12,3.63-1.73c0.67-0.34,1.33-0.69,1.99-1.05c0.66-0.36,1.3-0.73,1.95-1.11c2.34-1.38,4.63-2.88,6.81-4.5
	c2.23-1.65,4.41-3.37,6.44-5.27c2-1.87,3.92-3.84,5.51-6.08c0.79-1.11,1.5-2.29,2.05-3.55c0.12-0.28,0.23-0.57,0.33-0.86
	c0.34-0.23,0.57-0.62,0.57-1.05c0,0,0,0,0,0c0-0.25,0-0.49,0-0.74c0.04,0,0.09,0.01,0.13,0.01c0.03,0,0.06,0,0.09,0
	c0.19,0.09,0.41,0.13,0.63,0.13c0.11,0,0.23,0,0.34,0c1.77,0,3.55,0,5.32,0c4.78,0,9.56,0,14.35,0c4.11,0,8.21,0,12.32,0
	c0.04,0,0.09,0,0.13-0.01c0,0.16,0,0.31,0,0.47c0,0,0,0,0,0c0,0.43,0.23,0.82,0.57,1.05c0.1,0.29,0.21,0.58,0.33,0.86
	c0.54,1.26,1.25,2.43,2.05,3.55c1.59,2.23,3.51,4.21,5.51,6.08c2.03,1.89,4.21,3.61,6.44,5.27c2.19,1.62,4.47,3.12,6.81,4.5
	c0.65,0.38,1.29,0.75,1.95,1.11c0.66,0.36,1.32,0.71,1.99,1.05c1.19,0.61,2.41,1.17,3.63,1.73c1.3,0.6,2.62,1.13,3.95,1.65
	c0.58,0.22,1.17,0.43,1.77,0.61c0.7,0.21,1.41,0.42,2.12,0.61c2.68,0.7,5.41,1.19,8.14,1.67c2.68,0.48,5.36,0.97,8.05,1.42
	c2.73,0.46,5.46,0.93,8.2,1.31c2.87,0.41,5.75,0.77,8.63,1.11c5.41,0.64,10.81,1.28,16.25,1.57c2.93,0.15,5.87,0.26,8.8,0.31
	c0.6,0.01,1.2,0.01,1.81,0.01c2.14,0,4.29-0.05,6.43-0.1c2.62-0.06,5.24-0.12,7.86-0.11c2.73,0.01,5.46,0.06,8.19,0.06
	c1.49,0,2.98-0.01,4.47-0.02c0.8-0.01,1.6-0.02,2.4-0.01c0,3.28,0,6.56,0,9.83C391.29,443.34,391.29,447.32,391.29,451.3z"/>
<path class="st1" d="M474.8,174.96c0.02,0.27,0,0.55,0,0.82c-0.02,0.4-0.05,0.79-0.1,1.18c-0.08,0.47-0.18,0.92-0.3,1.37
	c-0.17,0.55-0.38,1.08-0.6,1.61c-0.13,0.26-0.27,0.53-0.4,0.79c-0.13,0.22-0.26,0.43-0.39,0.65c-0.16,0.26-0.36,0.51-0.54,0.76
	c-0.24,0.29-0.47,0.59-0.73,0.86c-0.31,0.34-0.63,0.66-0.96,0.98c-0.24,0.21-0.48,0.41-0.72,0.61c-0.22,0.19-0.46,0.36-0.69,0.53
	c-0.35,0.24-0.71,0.49-1.07,0.71c-0.41,0.25-0.83,0.49-1.25,0.73c-0.44,0.22-0.88,0.44-1.33,0.65c-0.39,0.18-0.78,0.34-1.17,0.5
	c-0.46,0.17-0.92,0.34-1.39,0.49c-0.51,0.16-1.02,0.31-1.53,0.45c-0.72,0.17-1.43,0.33-2.15,0.48c-0.74,0.15-1.49,0.24-2.24,0.35
	c-0.59,0.06-1.18,0.11-1.78,0.15c-0.66,0.03-1.31,0.04-1.97,0.05c-0.64-0.02-1.28-0.03-1.92-0.08c-0.69-0.04-1.37-0.12-2.05-0.19
	c-0.94-0.14-1.88-0.28-2.8-0.5c-0.49-0.12-0.98-0.23-1.47-0.35c-0.44-0.11-0.88-0.24-1.32-0.37c-0.74-0.24-1.48-0.48-2.21-0.75
	c-0.71-0.26-1.4-0.55-2.09-0.84c-0.72-0.34-1.43-0.67-2.13-1.04c-0.71-0.37-1.4-0.77-2.1-1.18c-0.44-0.28-0.89-0.56-1.33-0.84
	c-0.47-0.3-0.92-0.63-1.38-0.94c-0.91-0.62-1.77-1.31-2.64-1.99c-0.86-0.71-1.71-1.42-2.55-2.14c-0.9-0.78-1.76-1.61-2.63-2.42
	c-1.59-1.49-3.12-3.05-4.63-4.62c-2.97-3.23-5.84-6.54-8.6-9.94c-1.45-1.78-2.9-3.56-4.39-5.31c-1.34-1.58-2.73-3.13-4.2-4.6
	c-0.8-0.79-1.6-1.58-2.42-2.34c-0.86-0.8-1.74-1.56-2.64-2.32c-0.41-0.35-0.84-0.67-1.26-1.01c-0.41-0.33-0.84-0.64-1.27-0.94
	c-0.94-0.65-1.88-1.3-2.84-1.91c-1.91-1.22-3.86-2.38-5.85-3.48c-0.92-0.51-1.87-0.97-2.81-1.44c-0.47-0.23-0.94-0.44-1.41-0.66
	c-0.53-0.25-1.06-0.49-1.6-0.71c-1.01-0.41-2.02-0.84-3.05-1.19c-1.1-0.37-2.2-0.73-3.31-1.07c-1.16-0.36-2.35-0.67-3.52-0.98
	c-1.05-0.28-2.11-0.52-3.17-0.75c-2.15-0.47-4.32-0.78-6.5-1.06c-0.59-0.08-1.19-0.12-1.79-0.18c-0.56-0.05-1.12-0.08-1.69-0.12
	c-1-0.07-2.01-0.1-3.02-0.09c-0.18,0-0.36,0-0.54,0c-0.37,0-0.75,0-1.12,0.01c-0.65,0.02-1.29,0.05-1.94,0.07
	c-1.12,0.04-2.25,0.14-3.37,0.23c-2.22,0.18-4.42,0.46-6.62,0.76c-2.23,0.3-4.44,0.72-6.65,1.16c-2.16,0.43-4.31,0.9-6.43,1.45
	c-4.31,1.1-8.57,2.35-12.81,3.7c-2.1,0.66-4.17,1.38-6.23,2.15c-1.99,0.74-3.95,1.53-5.92,2.31c-1.32,0.53-2.64,1.05-3.97,1.57
	c-1.98,0.76-3.98,1.47-6,2.14c-2.02,0.67-4.08,1.23-6.14,1.76c-0.01,0-0.02,0.01-0.03,0.01c-0.21,0.03-0.42,0.1-0.62,0.15
	c-0.87,0.2-1.74,0.39-2.61,0.55c-0.93,0.17-1.88,0.3-2.82,0.41c-1.88,0.21-3.76,0.38-5.65,0.53c-1.75,0.13-3.51,0.23-5.26,0.22
	c-0.48-0.01-0.96-0.03-1.44-0.09c-0.36-0.06-0.72-0.13-1.07-0.21c-0.04-0.01-0.08-0.02-0.11-0.02c0-6.39,0-12.78,0-19.17
	c0-4.99,0-9.98,0-14.97c0.02,0,0.04,0,0.05,0c0.08,0,0.16,0,0.23,0c0.47,0,0.94-0.01,1.41-0.02c0.54-0.01,1.09-0.03,1.63-0.05
	c0.01,0.08,0.01,0.15,0.02,0.23c1.45,0.03,2.92-0.08,4.35-0.34c0.4-0.07,0.79-0.15,1.19-0.22c0.42-0.08,0.83-0.19,1.25-0.28
	c0.28-0.06,0.56-0.13,0.83-0.21c0,0,0,0,0,0c0.03-0.01,0.06-0.01,0.1-0.02c0.41-0.08,0.82-0.15,1.23-0.23
	c0.24-0.05,0.45-0.16,0.62-0.32c1.34-0.41,2.67-0.86,4-1.34c6.32-2.27,12.57-4.71,18.77-7.27c6.07-2.5,12-5.34,18.19-7.54
	c0.65-0.23,1.29-0.47,1.94-0.68c0.74-0.24,1.47-0.47,2.21-0.71c0.77-0.22,1.54-0.44,2.3-0.66c0.61-0.17,1.22-0.32,1.83-0.47
	c0.61-0.15,1.22-0.31,1.84-0.44c0.84-0.18,1.69-0.36,2.53-0.53c0.49-0.08,0.97-0.17,1.46-0.25c0.49-0.08,0.97-0.19,1.46-0.25
	c0.57-0.08,1.14-0.15,1.7-0.23c0.48-0.07,0.97-0.15,1.45-0.2c0.6-0.06,1.2-0.11,1.8-0.17c0.47-0.04,0.94-0.11,1.41-0.13
	c1.07-0.06,2.14-0.11,3.21-0.17c0.97-0.01,1.94-0.02,2.92-0.04c0.79-0.01,1.59,0.02,2.38,0.04c0.79,0.02,1.58,0.03,2.37,0.08
	c1,0.06,2.01,0.12,3.01,0.18c0.96,0.09,1.93,0.19,2.89,0.28c0.81,0.08,1.61,0.19,2.41,0.3c0.82,0.11,1.63,0.21,2.45,0.35
	c1.03,0.18,2.06,0.36,3.09,0.54c0.91,0.2,1.81,0.39,2.72,0.59c0.72,0.16,1.42,0.34,2.14,0.53c0.76,0.2,1.52,0.38,2.27,0.61
	c0.92,0.28,1.84,0.57,2.76,0.85c0.76,0.27,1.53,0.55,2.29,0.82c0.6,0.22,1.19,0.46,1.78,0.71c0.64,0.26,1.28,0.51,1.9,0.8
	c0.76,0.36,1.53,0.72,2.29,1.07c0.64,0.33,1.27,0.67,1.91,1c0.49,0.26,0.97,0.54,1.46,0.81c0.52,0.3,1.05,0.59,1.56,0.91
	c0.65,0.41,1.3,0.82,1.95,1.23c1.39,0.95,2.78,1.89,4.11,2.92c0.82,0.63,1.63,1.26,2.43,1.92c0.66,0.54,1.3,1.1,1.95,1.66
	c0.79,0.73,1.58,1.46,2.35,2.21c0.74,0.72,1.46,1.46,2.16,2.2c1.42,1.49,2.77,3.04,4.12,4.59c3.14,3.7,6.1,7.53,8.9,11.49
	c0.65,1.02,1.27,2.07,1.86,3.12c0.6,1.09,1.16,2.19,1.69,3.31c0.52,1.1,1.01,2.22,1.5,3.34c0.49,1.13,0.97,2.27,1.45,3.4
	c0.48,1.13,0.97,2.25,1.45,3.39c0.34,0.82,0.67,1.64,1,2.46c0.93,2.38,1.78,4.79,2.7,7.17c0.92,2.39,1.98,4.72,3.14,7.01
	c0.57,1.12,1.2,2.2,1.84,3.29c0.66,1.13,1.42,2.21,2.2,3.25c0.76,1,1.57,1.97,2.45,2.86c0.44,0.44,0.87,0.89,1.34,1.31
	c0.5,0.44,1,0.9,1.54,1.29c0.53,0.38,1.06,0.75,1.62,1.09c0.37,0.22,0.74,0.45,1.13,0.65c0.5,0.26,1.03,0.46,1.56,0.65
	c0.58,0.21,1.18,0.36,1.79,0.48c0.41,0.08,0.82,0.12,1.23,0.17c0.15,0.02,0.31,0.02,0.47,0.03c0.18,0.01,0.35,0.03,0.53,0.03
	c0.09,0,0.18,0,0.26,0c0.08,0,0.16,0,0.24,0c0.12,0,0.24,0,0.36-0.01c0.66-0.05,1.31-0.11,1.96-0.25c0.67-0.15,1.34-0.33,1.99-0.54
	c0.95-0.31,1.86-0.73,2.69-1.28c0.39-0.26,0.75-0.55,1.11-0.85c0.24-0.2,0.49-0.42,0.7-0.65c0.2-0.21,0.41-0.42,0.59-0.64
	c0.25-0.3,0.5-0.6,0.73-0.92c0.37-0.5,0.7-1.04,0.99-1.59c0.6-1.15,1.08-2.34,1.47-3.56c0.2-0.61,0.37-1.22,0.51-1.84
	c0.14-0.59,0.22-1.19,0.31-1.78c0.18-1.21,0.3-2.45,0.3-3.67c0-0.7-0.06-1.41-0.11-2.11c-0.05-0.72-0.11-1.45-0.25-2.15
	c-0.07-0.36-0.15-0.73-0.23-1.09c0.02,0.01,0.04,0.03,0.05,0.04c0.43,0.38,0.85,0.77,1.26,1.17c0.63,0.67,1.24,1.36,1.83,2.07
	c0.63,0.75,1.22,1.53,1.8,2.32c0.45,0.64,0.89,1.29,1.32,1.95c0.41,0.62,0.76,1.27,1.12,1.92c0.17,0.34,0.34,0.68,0.5,1.02
	c0.16,0.32,0.28,0.66,0.42,0.99c0.11,0.31,0.23,0.62,0.34,0.93c0.13,0.35,0.22,0.71,0.33,1.07c0.12,0.48,0.23,0.97,0.32,1.46
	c0.08,0.47,0.14,0.94,0.2,1.41C474.76,174.29,474.78,174.62,474.8,174.96z"/>
<path class="st2" d="M264.94,352.87c0,12.79,0,25.58,0,38.37c-0.06-0.01-0.13-0.02-0.2-0.02c-0.16-0.09-0.34-0.14-0.53-0.14
	c-4.55,0-9.1,0-13.65,0c-4.58,0-9.15,0-13.73,0c-1.65,0-3.3,0-4.94,0c-0.09,0-0.17,0.01-0.25,0.02c0-12.7,0-25.4,0-38.1
	c0-12.97,0-25.94,0-38.91c0-12.76,0-25.52,0-38.29c0-12.53,0-25.05,0-37.58c0-12.64,0-25.28,0-37.91c0-12.68,0-25.36,0-38.05
	c0-12.13,0-24.27,0-36.4c0-10.13,0-20.26,0-30.4c0-4.69,0-9.39,0-14.08c3.66,0,7.32,0,10.98,0c4.8,0,9.61,0,14.41,0
	c2.64,0,5.27,0,7.91,0c0,4.65,0,9.3,0,13.95c0,10.13,0,20.27,0,30.4c0,12.13,0,24.27,0,36.4c0,12.68,0,25.36,0,38.05
	c0,12.64,0,25.28,0,37.91c0,12.53,0,25.05,0,37.58c0,12.76,0,25.53,0,38.29C264.94,326.92,264.94,339.9,264.94,352.87z"/>
<path class="st2" d="M278.4,57.75c-1.51-0.05-3.02-0.11-4.53-0.16c-0.49-0.14-1.02-0.08-1.52-0.08c-0.59,0.01-1.18,0.04-1.78,0.04
	c-1.21-0.01-2.41-0.05-3.62-0.08c-1.77-0.04-3.55-0.04-5.32-0.04c-0.71,0-1.42,0-2.13,0c-3.57-0.01-7.15-0.01-10.72-0.07
	c-0.24,0-0.47,0.06-0.66,0.18c-0.11-0.03-0.23-0.04-0.34-0.04c-3.57,0.05-7.15,0.06-10.72,0.07c-0.71,0-1.42,0-2.13,0
	c-1.77,0-3.55,0-5.32,0.04c-1.21,0.03-2.41,0.07-3.62,0.08c-0.59,0-1.18-0.02-1.78-0.04c-0.5-0.01-1.03-0.07-1.52,0.08
	c-1.51,0.05-3.02,0.11-4.53,0.16c1.67-1.44,3.17-3.05,4.58-4.74c1.59-1.9,3.06-3.92,4.32-6.06c1.25-2.11,2.37-4.3,3.35-6.56
	c0.82-1.87,1.59-3.75,2.35-5.64c0.49-0.02,0.98,0.01,1.47,0.03c0.6,0.02,1.2,0.04,1.8,0.05c1.17,0.03,2.33,0.03,3.5,0.04
	c1.77,0.02,3.53,0.04,5.3,0.06c0.17,0.08,0.36,0.11,0.55,0.11c0.05,0,0.1,0,0.15-0.01c0.22-0.02,0.44-0.05,0.66-0.08
	c0.05,0,0.1,0,0.15,0c0.01,0,0.01,0,0.02,0c0.09,0,0.18-0.01,0.26-0.03c0.53-0.02,1.05-0.01,1.58,0c0.46,0.01,0.92,0.01,1.38,0.01
	c0.57-0.01,1.14-0.02,1.7-0.05c0.48-0.02,0.95-0.06,1.43-0.1c1.42-0.02,2.85-0.03,4.27-0.05c1.17-0.01,2.33-0.02,3.5-0.04
	c0.6-0.01,1.2-0.03,1.8-0.05c0.49-0.02,0.98-0.04,1.48-0.03c0.76,1.89,1.54,3.77,2.35,5.64c0.98,2.25,2.09,4.44,3.35,6.56
	c1.27,2.13,2.73,4.16,4.32,6.06C275.23,54.7,276.73,56.31,278.4,57.75z"/>
<path class="st3" d="M187.68,318.82c0.21,1.94,0.34,3.89,0.3,5.84c-0.01,0.45-0.02,0.89-0.06,1.34c-0.07-0.02-0.13-0.03-0.2-0.05
	c-0.2,1.34-0.44,2.67-0.71,3.99c0,0,0,0.01,0,0.01c-0.46,2.25-1,4.48-1.67,6.68c-0.18,0.58-0.36,1.17-0.55,1.75
	c-0.1,0.3-0.2,0.6-0.3,0.91c-0.05,0.13-0.09,0.27-0.13,0.4c-0.03,0.09-0.07,0.18-0.1,0.27c-0.93,2.63-2.03,5.18-3.27,7.67
	c-1.35,2.68-2.86,5.27-4.53,7.77c-1.57,2.31-3.28,4.52-5.12,6.62c-1.76,1.98-3.63,3.86-5.61,5.62c-0.01,0.01-0.02,0.02-0.03,0.02
	c0,0,0,0-0.01,0.01c-2.02,1.76-4.15,3.37-6.36,4.88c-0.01,0-0.01,0.01-0.02,0.01c-2.05,1.38-4.17,2.64-6.38,3.76c0,0-0.01,0-0.01,0
	c-0.04,0.02-0.09,0.04-0.13,0.07c-0.02,0.01-0.03,0.02-0.05,0.03c-0.11,0.05-0.22,0.11-0.33,0.16c-0.41,0.2-0.82,0.4-1.24,0.59
	c-1.73,0.8-3.5,1.51-5.3,2.14c-2.41,0.83-4.86,1.51-7.36,2.03c-2.42,0.49-4.87,0.82-7.34,1c-2.46,0.16-4.93,0.16-7.39,0
	c-2.51-0.18-5-0.52-7.46-1.01c-2.42-0.49-4.8-1.16-7.14-1.96c-2.32-0.81-4.59-1.77-6.79-2.87c-2.2-1.12-4.32-2.36-6.37-3.73
	c-2.05-1.39-4.01-2.9-5.87-4.53c-1.92-1.7-3.73-3.52-5.43-5.44c-1.8-2.05-3.47-4.21-5.01-6.47c-1.57-2.34-2.98-4.77-4.25-7.29
	c-1.32-2.65-2.47-5.37-3.44-8.16c-1.01-2.96-1.84-5.97-2.47-9.03c0-0.01-0.01-0.03-0.01-0.04c-0.59-2.91-1.01-5.85-1.27-8.8
	c-0.09-1.74-0.15-3.47-0.15-5.21c0-0.89,0.01-1.78,0.04-2.67c0.01-0.28,0.02-0.56,0.03-0.84c0.08,0,0.15,0,0.23,0
	c0.83,0,1.66,0,2.49,0c5.09,0,10.18,0,15.27,0c5.16,0,10.31,0,15.47,0c5.19,0,10.37,0,15.56,0c5.18,0,10.36,0,15.54,0
	c5.12,0,10.25,0,15.37,0c5.05,0,10.1,0,15.15,0c4.7,0,9.4,0,14.1,0c2.98,0,5.97,0,8.95,0c0.02-0.02,0.05-0.03,0.07-0.05
	c0.19-0.12,0.39-0.21,0.61-0.27c0.01,0,0.01,0,0.02-0.01c0.13,0.64,0.2,1.29,0.28,1.93C187.45,316.86,187.57,317.84,187.68,318.82z"
	/>
<path class="st3" d="M428.4,314.98c0.02,0.89,0.04,1.78,0.04,2.67c0,1.73-0.06,3.46-0.15,5.19c0,0,0,0,0,0
	c-0.26,2.96-0.68,5.91-1.27,8.82c0,0.01,0,0.03-0.01,0.04c-0.64,3.06-1.46,6.07-2.47,9.03c-0.98,2.79-2.12,5.52-3.44,8.16
	c-1.27,2.51-2.68,4.95-4.25,7.29c-1.53,2.26-3.21,4.41-5.01,6.47c-1.7,1.92-3.52,3.73-5.43,5.44c-1.87,1.63-3.82,3.14-5.87,4.53
	c-2.05,1.37-4.17,2.62-6.37,3.73c-2.2,1.1-4.47,2.05-6.79,2.87c-2.34,0.8-4.72,1.47-7.14,1.96c-2.46,0.5-4.95,0.84-7.46,1.01
	c-2.46,0.16-4.93,0.16-7.39,0c-2.47-0.18-4.91-0.51-7.34-1c-2.5-0.52-4.95-1.21-7.36-2.03c-1.8-0.63-3.57-1.34-5.3-2.14
	c-0.42-0.19-0.83-0.39-1.24-0.59c-0.11-0.05-0.22-0.11-0.33-0.16c-0.02-0.01-0.03-0.02-0.05-0.03c-0.04-0.02-0.09-0.05-0.13-0.07
	c0,0-0.01,0-0.01,0c-2.2-1.12-4.32-2.38-6.38-3.76c-0.01,0-0.01-0.01-0.02-0.01c-2.21-1.5-4.35-3.12-6.36-4.88c0,0,0,0-0.01-0.01
	c-0.01-0.01-0.02-0.01-0.03-0.02c-1.98-1.75-3.85-3.64-5.61-5.62c-1.84-2.1-3.55-4.31-5.12-6.62c-1.67-2.49-3.18-5.09-4.53-7.77
	c-1.24-2.49-2.34-5.04-3.27-7.67c-0.03-0.09-0.06-0.18-0.1-0.27c-0.04-0.13-0.09-0.26-0.13-0.4c-0.1-0.3-0.2-0.6-0.3-0.91
	c-0.19-0.58-0.37-1.16-0.55-1.75c-0.66-2.19-1.2-4.41-1.66-6.65c0-0.01-0.01-0.03-0.01-0.04c-0.27-1.32-0.5-2.65-0.71-3.99
	c-0.07,0.02-0.13,0.03-0.2,0.05c-0.04-0.45-0.05-0.89-0.06-1.34c-0.04-1.96,0.1-3.9,0.3-5.84c0.11-0.98,0.23-1.95,0.36-2.93
	c0.08-0.64,0.15-1.29,0.28-1.93c0.01,0,0.01,0,0.02,0.01c0.21,0.06,0.42,0.14,0.61,0.27c0.02,0.02,0.05,0.03,0.07,0.05
	c2.98,0,5.97,0,8.95,0c4.7,0,9.4,0,14.1,0c5.05,0,10.1,0,15.15,0c5.13,0,10.25,0,15.37,0c5.18,0,10.36,0,15.54,0
	c5.19,0,10.37,0,15.56,0c5.16,0,10.31,0,15.47,0c5.09,0,10.18,0,15.27,0c0.83,0,1.66,0,2.49,0c0.08,0,0.15,0,0.23,0
	C428.38,314.43,428.39,314.7,428.4,314.98z"/>
</svg>
