<?xml version="1.0" encoding="utf-8"?>
<!-- Generator: Adobe Illustrator 26.0.1, SVG Export Plug-In . SVG Version: 6.00 Build 0)  -->
<svg version="1.1" id="Layer_1" xmlns="http://www.w3.org/2000/svg" xmlns:xlink="http://www.w3.org/1999/xlink" x="0px" y="0px"
	 viewBox="0 0 500 500" style="enable-background:new 0 0 500 500;" xml:space="preserve">
<style type="text/css">
	.st0{fill:#010101;}
	.st1{fill:#F6C285;}
	.st2{fill:#BAE0DB;}
	.st3{fill:#8BBBB6;}
</style>
<path class="st0" d="M386.21,162.22c0,1.16-0.05,2.33-0.09,3.49c-0.18,4.72-0.67,9.42-1.27,14.1c-0.6,4.74-1.29,9.46-2.09,14.17
	c-0.2,1.19-0.44,2.37-0.67,3.55c-0.21,1.07-0.43,2.15-0.67,3.22c-0.54,2.41-1.12,4.8-1.74,7.19c-1.16,4.5-2.59,8.94-4.16,13.3
	c-0.35,0.97-0.71,1.93-1.07,2.9c-0.01,0.03-0.02,0.06-0.03,0.09c-0.43,1.13-0.88,2.26-1.34,3.38c-0.88,2.13-1.83,4.22-2.8,6.3
	c-1.29,2.76-2.64,5.49-4.06,8.19c-0.86,1.63-1.76,3.23-2.73,4.8c-0.03,0.05-0.07,0.1-0.1,0.14c-0.25,0.29-0.61,0.45-0.98,0.45
	c-0.23,0-0.47-0.06-0.68-0.19c-0.42-0.27-0.63-0.75-0.58-1.22c0,0,0,0,0-0.01c0-0.02,0-0.04,0.01-0.06c0-0.01,0-0.01,0-0.02
	c0-0.02,0.01-0.04,0.01-0.05c0.01-0.04,0.02-0.07,0.03-0.1c0-0.02,0.01-0.03,0.02-0.05c0-0.01,0.01-0.02,0.01-0.03
	c0.01-0.01,0.01-0.03,0.02-0.04c0.01-0.02,0.01-0.03,0.02-0.05c0.02-0.05,0.05-0.09,0.07-0.14c0.7-1.13,1.37-2.29,2.01-3.46
	c1.96-3.62,3.76-7.32,5.47-11.06c0.92-2.02,1.8-4.05,2.62-6.12c0.2-0.51,0.4-1.02,0.59-1.52c0-0.01,0.01-0.02,0.01-0.03
	c0.15-0.39,0.29-0.78,0.44-1.17c0.32-0.85,0.63-1.7,0.93-2.55c0.6-1.7,1.19-3.41,1.73-5.13c0.58-1.84,1.13-3.7,1.65-5.56
	c0.47-1.66,0.89-3.34,1.3-5.02c0.53-2.27,1.05-4.54,1.51-6.83c0.46-2.3,0.87-4.61,1.24-6.93c0.77-4.85,1.42-9.72,1.99-14.59
	c0.01-0.07,0.02-0.13,0.02-0.2c0.25-2.41,0.49-4.81,0.62-7.23c0.07-1.3,0.13-2.61,0.18-3.91c0.05-1.28,0.04-2.56,0.03-3.84
	c-0.03-1.51-0.07-3.01-0.18-4.52c-0.06-0.82-0.13-1.64-0.21-2.46c-0.07-0.73-0.17-1.46-0.27-2.19c-0.1-0.6-0.19-1.21-0.29-1.81
	c-0.1-0.65-0.24-1.29-0.36-1.94c-0.12-0.64-0.28-1.28-0.42-1.93c-0.14-0.63-0.31-1.25-0.47-1.87c-0.08-0.29-0.16-0.58-0.24-0.87
	c-0.03-0.1-0.05-0.19-0.08-0.29c-0.06-0.19-0.11-0.38-0.17-0.58c-0.06-0.19-0.12-0.38-0.18-0.58c-0.31-0.99-0.64-1.97-0.99-2.95
	c-0.61-1.76-1.34-3.49-2.06-5.2c-0.77-1.73-1.55-3.46-2.42-5.14c-0.45-0.87-0.89-1.73-1.36-2.59c-0.45-0.82-0.91-1.63-1.38-2.44
	c-0.37-0.61-0.73-1.22-1.11-1.83c-0.47-0.74-0.94-1.48-1.42-2.21c-0.87-1.33-1.73-2.66-2.65-3.96c-1.01-1.42-2.04-2.83-3.09-4.23
	c-0.93-1.23-1.88-2.45-2.84-3.66c-1.25-1.52-2.5-3.03-3.8-4.5c-1.16-1.33-2.37-2.63-3.57-3.92c-1.39-1.48-2.8-2.95-4.24-4.39
	c-0.51-0.51-1.02-1.01-1.53-1.51c-0.17-0.17-0.34-0.33-0.51-0.5c-0.64-0.62-1.29-1.24-1.94-1.86c-1.68-1.58-3.38-3.14-5.08-4.69
	c-1.81-1.64-3.6-3.3-5.35-5c-1.74-1.7-3.46-3.41-5.16-5.15c-1.64-1.68-3.23-3.42-4.82-5.16c-3.23-3.55-6.32-7.23-9.29-11
	c-2.93-3.71-5.48-7.69-7.75-11.83c-0.57-1.04-1.08-2.1-1.58-3.17c-0.47-0.99-0.88-2.01-1.27-3.03c-0.19-0.5-0.35-1.01-0.5-1.53
	c-0.09-0.31-0.2-0.62-0.27-0.93c-0.08-0.34-0.16-0.69-0.25-1.03c-0.11-0.47-0.19-0.96-0.25-1.44c-0.08-0.63-0.16-1.28-0.15-1.92
	c0.01-0.29,0.01-0.58,0.02-0.87c0-0.26,0.04-0.52,0.07-0.78c0.09-1.06,0.35-2.1,0.72-3.1c0.37-0.99,0.92-1.89,1.54-2.74
	c0.33-0.45,0.72-0.85,1.12-1.24c0.43-0.42,0.93-0.8,1.44-1.1c1-0.6,2.12-0.97,3.28-1.09c0.58-0.06,1.17-0.11,1.76-0.12
	c0.56,0,1.13,0.01,1.69,0.02c0.61,0.02,1.22,0.11,1.82,0.2c0.97,0.14,1.92,0.44,2.84,0.76c0.49,0.17,0.97,0.4,1.45,0.62
	c0.46,0.21,0.91,0.46,1.35,0.7c0.09,0.05,0.17,0.1,0.26,0.15c0.05,0.03,0.11,0.06,0.16,0.09c0.01,0.01,0.02,0.01,0.03,0.02h0
	c0.75,0.43,1.48,0.89,2.2,1.36c0.26,0.17,0.53,0.34,0.79,0.52c0.06,0.04,0.12,0.08,0.18,0.12c0.07,0.05,0.14,0.1,0.21,0.15
	c0.06,0.04,0.12,0.09,0.18,0.14c0.15,0.11,0.29,0.23,0.41,0.36c0.07,0.07,0.13,0.15,0.19,0.23c0.17,0.24,0.24,0.53,0.22,0.81l0,0
	c-0.03,0.38-0.22,0.75-0.54,0.97c-0.55,0.39-1.3,0.26-1.72-0.25c-0.08-0.07-0.17-0.14-0.26-0.21c-1.27-0.86-2.56-1.68-3.91-2.43
	c-0.34-0.17-0.67-0.34-1.01-0.5c-0.34-0.16-0.68-0.3-1.03-0.44c-0.24-0.09-0.49-0.17-0.73-0.26c-0.24-0.09-0.5-0.15-0.75-0.21
	c-0.26-0.06-0.53-0.11-0.79-0.17c-0.27-0.06-0.55-0.08-0.82-0.12c-0.4-0.03-0.81-0.07-1.21-0.08c-0.43-0.01-0.85-0.01-1.28-0.01
	c-0.5,0.02-1,0.06-1.49,0.11c-0.33,0.05-0.65,0.12-0.97,0.2c-0.18,0.05-0.35,0.11-0.52,0.18c-0.23,0.11-0.46,0.22-0.68,0.35
	c-0.2,0.14-0.4,0.28-0.59,0.42c-0.25,0.22-0.5,0.44-0.73,0.68c-0.24,0.26-0.46,0.54-0.67,0.82c-0.2,0.3-0.39,0.6-0.57,0.91
	c-0.16,0.3-0.3,0.61-0.43,0.92c-0.15,0.4-0.27,0.8-0.37,1.21c-0.08,0.35-0.14,0.7-0.19,1.06c-0.02,0.27-0.05,0.54-0.07,0.82
	c-0.02,0.27-0.01,0.55-0.02,0.82c0.02,0.3,0.03,0.6,0.05,0.89c0.02,0.29,0.07,0.59,0.11,0.88c0.06,0.33,0.12,0.66,0.18,0.98
	c0.06,0.35,0.16,0.69,0.25,1.04c0.17,0.57,0.34,1.13,0.53,1.69c0.2,0.59,0.43,1.17,0.66,1.75c0.24,0.54,0.47,1.08,0.72,1.61
	c0.36,0.76,0.73,1.5,1.11,2.24c0.64,1.25,1.35,2.46,2.05,3.68c0.54,0.88,1.08,1.76,1.64,2.62c0.53,0.82,1.07,1.64,1.64,2.44
	c0.65,0.9,1.3,1.8,1.98,2.69c0.62,0.82,1.26,1.62,1.9,2.43c2.96,3.64,6,7.22,9.2,10.66c1.59,1.71,3.18,3.42,4.83,5.07
	c1.74,1.74,3.48,3.47,5.25,5.16c0.2,0.19,0.4,0.38,0.6,0.57c3.41,3.16,6.89,6.24,10.22,9.48c1.72,1.68,3.44,3.37,5.09,5.12
	c1.64,1.75,3.29,3.49,4.87,5.3c1.64,1.87,3.23,3.78,4.77,5.73c0.67,0.84,1.33,1.69,1.97,2.55c0.72,0.96,1.45,1.91,2.14,2.89
	c0.75,1.05,1.48,2.11,2.21,3.18c0.66,0.97,1.3,1.96,1.94,2.95c1.26,1.93,2.45,3.9,3.55,5.92c0.54,1,1.08,2,1.58,3.02
	c0.54,1.1,1.09,2.19,1.59,3.31c0.52,1.17,1.03,2.34,1.53,3.52c0.49,1.15,0.91,2.34,1.35,3.51c0.82,2.21,1.48,4.49,2.06,6.78
	c0.27,1.07,0.51,2.14,0.71,3.23c0.22,1.18,0.44,2.36,0.59,3.55c0.15,1.2,0.33,2.4,0.41,3.6c0.04,0.61,0.08,1.22,0.13,1.84
	c0.04,0.63,0.05,1.27,0.08,1.91C386.21,159.66,386.2,160.94,386.21,162.22z"/>
<path class="st0" d="M326.73,246.81c-0.28-1.87-0.41-3.79-0.4-5.68c0.01-2.14,0.19-4.28,0.4-6.4c0.24-2.39,0.56-4.77,0.96-7.14
	c0.4-2.37,0.85-4.74,1.38-7.09c0.13-0.56,0.26-1.12,0.39-1.68c0-0.02,0.01-0.04,0.01-0.05c0-0.01,0-0.02,0.01-0.03
	c0.05-0.19,0.08-0.39,0.14-0.59c0.03-0.11,0.06-0.22,0.09-0.33c0.02-0.1,0.04-0.2,0.07-0.3c0.03-0.13,0.06-0.26,0.1-0.38
	c0.09-0.37,0.19-0.75,0.28-1.12c0.31-1.22,0.64-2.43,0.98-3.64c0.65-2.33,1.36-4.64,2.09-6.95c0.79-2.5,1.61-4.98,2.46-7.46
	c1.62-4.76,3.46-9.44,5.15-14.17c0.63-1.76,1.2-3.54,1.76-5.33c0.53-1.66,0.95-3.35,1.39-5.04c0.2-0.83,0.4-1.67,0.59-2.5
	c0.21-0.89,0.37-1.8,0.56-2.69c0.08-0.38,0.13-0.76,0.2-1.14c0.09-0.51,0.18-1.02,0.27-1.53c0.07-0.4,0.11-0.81,0.17-1.21
	c0.06-0.45,0.13-0.91,0.19-1.36c0.06-0.64,0.13-1.28,0.19-1.92c0.06-0.57,0.09-1.14,0.12-1.72c0.04-0.59,0.08-1.18,0.09-1.78
	c0.02-0.76,0.03-1.52,0.05-2.27c0,0.05,0,0.11,0,0.16c-0.01-0.88-0.03-1.76-0.04-2.65c0-0.33-0.03-0.67-0.05-1
	c-0.03-0.55-0.06-1.09-0.09-1.64c-0.02-0.33-0.06-0.65-0.09-0.98c-0.05-0.53-0.1-1.07-0.14-1.6c-0.07-0.83-0.2-1.66-0.31-2.49
	c-0.13-0.81-0.25-1.61-0.38-2.42c-0.06-0.38-0.15-0.76-0.22-1.14c-0.09-0.45-0.18-0.91-0.26-1.36c-0.07-0.38-0.18-0.76-0.26-1.14
	c-0.1-0.45-0.21-0.91-0.31-1.36c-0.09-0.39-0.21-0.77-0.31-1.15c-0.11-0.42-0.23-0.85-0.34-1.27c-0.29-0.95-0.56-1.91-0.88-2.85
	c-0.24-0.68-0.47-1.36-0.7-2.04c-0.16-0.47-0.35-0.94-0.53-1.4c-0.79-2.06-1.64-4.09-2.51-6.12c-0.45-0.99-0.88-1.99-1.36-2.97
	c-0.54-1.13-1.09-2.26-1.66-3.38c-0.6-1.18-1.21-2.34-1.84-3.5c-0.54-1-1.1-1.98-1.66-2.96c-1.27-2.11-2.55-4.21-3.93-6.24
	c-1.44-2.12-2.9-4.22-4.39-6.3c-2.95-4.15-5.89-8.3-8.78-12.5c-2.86-4.16-5.54-8.44-8.12-12.77c-1.27-2.12-2.44-4.31-3.57-6.51
	c-0.61-1.19-1.19-2.4-1.77-3.62c-0.22-0.46-0.42-0.93-0.63-1.4c-0.25-0.56-0.51-1.11-0.74-1.67c-0.5-1.2-1-2.39-1.46-3.61
	c-0.21-0.55-0.43-1.09-0.62-1.65c-0.26-0.76-0.51-1.53-0.77-2.29c-0.16-0.49-0.3-0.98-0.44-1.47c-0.16-0.58-0.35-1.15-0.48-1.74
	c-0.32-1.37-0.64-2.75-0.95-4.12c-0.26-1.15-0.47-2.32-0.7-3.48c-0.04-0.22-0.06-0.45-0.09-0.67c-0.06-0.43-0.12-0.85-0.18-1.28
	c-0.04-0.29-0.08-0.59-0.12-0.88c-0.03-0.25-0.04-0.51-0.06-0.76c-0.03-0.43-0.07-0.86-0.1-1.3c-0.01-0.19-0.04-0.37-0.04-0.56
	c-0.01-0.77-0.03-1.54-0.04-2.32c-0.01-0.59,0.03-1.19,0.05-1.78c0.01-0.27,0.02-0.55,0.03-0.82c0.01-0.34,0.06-0.67,0.09-1.01
	c0.05-0.55,0.09-1.1,0.17-1.65c0.13-0.89,0.25-1.78,0.43-2.66c0.29-1.44,0.75-2.83,1.3-4.19c0.58-1.43,1.41-2.74,2.38-3.94
	c0.21-0.26,0.45-0.51,0.67-0.76c0.36-0.41,0.74-0.8,1.13-1.18c1.14-1.11,2.49-1.97,3.94-2.61c1.17-0.52,2.43-0.8,3.71-0.89
	c1.3-0.09,2.59,0.13,3.83,0.48c0.42,0.12,0.83,0.28,1.24,0.45c0.26,0.11,0.53,0.21,0.78,0.33c0.29,0.14,0.58,0.28,0.88,0.41
	c0.32,0.15,0.62,0.33,0.94,0.5c0.56,0.3,1.09,0.65,1.61,1.01c0.51,0.35,1.02,0.73,1.49,1.13c0.47,0.41,0.93,0.83,1.38,1.26
	c0.47,0.45,0.91,0.94,1.34,1.42c0.8,0.9,1.5,1.89,2.15,2.9c0.78,1.21,1.43,2.49,2.04,3.8c0.28,0.59,0.52,1.2,0.74,1.82
	c0.16,0.45,0.29,0.91,0.42,1.38c0,0,0,0,0,0c0-0.02-0.01-0.03-0.01-0.05c0.01,0.02,0.01,0.04,0.02,0.06
	c0.09,0.22,0.12,0.46,0.08,0.7c-0.04,0.21-0.13,0.43-0.28,0.59c-0.34,0.39-0.87,0.56-1.37,0.4c-0.39-0.13-0.69-0.43-0.83-0.81
	c-0.07-0.2-0.12-0.42-0.18-0.63c-0.2-0.66-0.45-1.3-0.71-1.94c-0.48-1.09-1.02-2.15-1.6-3.19c-0.24-0.4-0.49-0.79-0.74-1.18
	c-0.31-0.47-0.65-0.92-0.99-1.37c-0.29-0.36-0.58-0.71-0.89-1.05c-0.31-0.35-0.63-0.68-0.95-1.01c0.01,0.01,0.02,0.02,0.03,0.03
	c-0.32-0.3-0.63-0.6-0.97-0.89c-0.41-0.36-0.84-0.7-1.27-1.03c-0.27-0.19-0.54-0.37-0.81-0.56c-0.29-0.2-0.61-0.37-0.91-0.55
	c-0.39-0.21-0.77-0.42-1.17-0.61c-0.47-0.22-0.94-0.42-1.41-0.62c-0.44-0.16-0.89-0.31-1.35-0.43c-0.37-0.08-0.74-0.15-1.12-0.19
	c-0.31-0.02-0.62-0.04-0.93-0.04c-0.32,0.01-0.63,0.03-0.95,0.07c-0.4,0.06-0.79,0.15-1.19,0.25c-0.33,0.11-0.66,0.22-0.98,0.35
	c-0.44,0.2-0.86,0.41-1.28,0.64c-0.39,0.24-0.77,0.49-1.14,0.77c-0.49,0.41-0.96,0.85-1.41,1.31c-0.59,0.63-1.15,1.28-1.67,1.97
	c-0.28,0.41-0.53,0.83-0.78,1.26c-0.27,0.53-0.52,1.07-0.74,1.62c-0.32,0.84-0.59,1.69-0.81,2.56c-0.16,0.69-0.29,1.37-0.4,2.07
	c-0.07,0.48-0.14,0.97-0.21,1.45c-0.07,0.72-0.13,1.43-0.2,2.15c-0.03,0.35-0.03,0.7-0.04,1.05c-0.02,0.42-0.03,0.85-0.05,1.27
	c0.01,0.64,0.02,1.27,0.03,1.91c0.01,0.59,0.07,1.18,0.11,1.78c0.04,0.56,0.08,1.12,0.16,1.67c0.09,0.68,0.19,1.36,0.28,2.04
	c0.24,1.22,0.47,2.45,0.74,3.67c0.31,1.38,0.63,2.75,0.95,4.13c0.11,0.4,0.23,0.8,0.34,1.21c0.11,0.38,0.2,0.78,0.33,1.16
	c0.17,0.51,0.34,1.02,0.51,1.52c0.13,0.37,0.24,0.76,0.38,1.13c0.33,0.87,0.65,1.74,0.98,2.61c0.16,0.42,0.34,0.82,0.51,1.24
	c0.19,0.47,0.39,0.93,0.58,1.4c0.53,1.19,1.06,2.37,1.62,3.55c0.28,0.59,0.56,1.2,0.86,1.78c0.39,0.77,0.79,1.54,1.18,2.31
	c0.33,0.64,0.68,1.26,1.02,1.89c0.3,0.55,0.6,1.09,0.91,1.63c0.7,1.22,1.41,2.43,2.13,3.63c1.31,2.12,2.64,4.24,3.99,6.35
	c1.3,2.03,2.67,4.02,4.04,6c2.93,4.21,5.9,8.38,8.86,12.56c1.49,2.11,2.94,4.24,4.35,6.4c0.64,0.98,1.26,1.98,1.87,2.99
	c0.31,0.52,0.64,1.04,0.94,1.57c0.39,0.69,0.79,1.39,1.18,2.08c0.24,0.42,0.46,0.84,0.69,1.26c0.29,0.54,0.59,1.08,0.87,1.63
	c0.58,1.14,1.17,2.28,1.73,3.44c0.28,0.58,0.56,1.15,0.83,1.73c0.31,0.64,0.59,1.3,0.88,1.94c0.52,1.15,1.01,2.32,1.51,3.49
	c0.44,1.02,0.85,2.06,1.25,3.1c0.24,0.63,0.48,1.27,0.73,1.9c0.27,0.7,0.49,1.43,0.74,2.14c0.16,0.47,0.3,0.94,0.44,1.42
	c0.18,0.58,0.37,1.16,0.53,1.75c0.2,0.74,0.4,1.48,0.6,2.22c0.16,0.59,0.28,1.19,0.42,1.79c0.55,2.39,0.96,4.82,1.26,7.26
	c0.31,2.49,0.52,4.99,0.56,7.5c0.01,0.64,0.04,1.29,0.03,1.94c-0.02,0.76-0.03,1.52-0.05,2.27c-0.01,0.52-0.05,1.03-0.08,1.55
	c-0.04,0.59-0.06,1.18-0.12,1.77c-0.07,0.73-0.14,1.45-0.21,2.18c-0.07,0.68-0.18,1.36-0.28,2.04c-0.07,0.48-0.14,0.96-0.22,1.44
	c-0.12,0.67-0.21,1.34-0.35,2c-0.26,1.26-0.52,2.52-0.82,3.77c-0.31,1.33-0.65,2.65-1,3.97c-0.27,1.05-0.58,2.09-0.91,3.13
	c-0.42,1.34-0.86,2.67-1.31,4c-0.8,2.36-1.68,4.7-2.55,7.03c-0.88,2.36-1.75,4.73-2.58,7.11c-1.65,4.68-3.16,9.41-4.54,14.18
	c-0.33,1.13-0.65,2.26-0.95,3.39c-0.15,0.58-0.31,1.16-0.45,1.74c-0.08,0.3-0.15,0.61-0.23,0.91c0,0,0,0.01,0,0.01
	c-0.03,0.12-0.06,0.24-0.09,0.35c-0.03,0.15-0.07,0.3-0.11,0.44c0,0.01,0,0.01,0,0.02c-0.01,0.03-0.01,0.06-0.02,0.09
	c-0.01,0.06-0.03,0.12-0.05,0.18c-0.02,0.07-0.03,0.15-0.05,0.22c-0.01,0.04-0.02,0.07-0.03,0.11c-0.28,1.18-0.55,2.35-0.8,3.54
	c-0.24,1.15-0.45,2.3-0.66,3.46c-0.42,2.3-0.77,4.62-1.05,6.94c0-0.03,0.01-0.06,0.01-0.09c-0.16,1.43-0.3,2.86-0.4,4.29
	c-0.11,1.39-0.19,2.79-0.18,4.18c0.03,1.51,0.13,3.02,0.33,4.52c0.01,0.04,0.01,0.07,0.02,0.11c0.05,0.33,0.01,0.66-0.17,0.95
	c-0.18,0.29-0.48,0.5-0.82,0.57c-0.08,0.02-0.16,0.03-0.25,0.03C327.42,247.82,326.82,247.41,326.73,246.81z"/>
<path class="st0" d="M117.91,213.75c-0.53-0.01-1.06,0.04-1.58,0.06c0.08-0.08,0.17-0.17,0.25-0.25c0.01-0.01,0.01-0.01,0.02-0.02
	c5.11-5.1,10.21-10.21,15.31-15.31c5.37-5.37,10.73-10.73,16.1-16.1c5.47-5.48,10.95-10.95,16.43-16.43
	c5.41-5.41,10.82-10.82,16.23-16.23c5.43-5.43,10.86-10.86,16.29-16.29c5.55-5.55,11.11-11.11,16.66-16.66
	c5.39-5.39,10.79-10.79,16.18-16.18c5.53-5.53,11.06-11.06,16.59-16.59c5.41-5.4,10.81-10.81,16.21-16.21
	c5.07-5.07,10.14-10.13,15.2-15.2c4.68-4.68,9.36-9.36,14.04-14.04c0.97-0.97,1.94-1.94,2.91-2.91c0.24-0.24,0.53-0.4,0.87-0.42
	c0.34-0.02,0.68,0.1,0.94,0.33c0.5,0.45,0.58,1.31,0.09,1.81c-4.24,4.24-8.48,8.47-12.71,12.71c-4.93,4.93-9.86,9.86-14.79,14.79
	c-5.36,5.36-10.72,10.72-16.08,16.08c-5.4,5.4-10.81,10.81-16.21,16.21c-5.49,5.49-10.99,10.99-16.48,16.48
	c-5.52,5.52-11.04,11.04-16.56,16.56c-5.43,5.43-10.86,10.86-16.29,16.29c-5.5,5.5-10.99,10.99-16.49,16.49
	c-5.39,5.39-10.78,10.78-16.17,16.17c-5.41,5.41-10.82,10.82-16.23,16.23c-5.45,5.45-10.9,10.9-16.35,16.35
	c-0.78,0.78-1.56,1.57-2.35,2.35c-0.01,0-0.02,0-0.02,0C119.23,213.81,118.57,213.76,117.91,213.75z"/>
<path class="st0" d="M151.75,248.22c0.18,0.03,0.37,0.04,0.56,0.06c0.11,0.01,0.21,0.01,0.32,0.01c0.15,0,0.3-0.01,0.45-0.03
	c-0.19,0.11-0.41,0.16-0.62,0.16C152.21,248.42,151.96,248.35,151.75,248.22z"/>
<path class="st0" d="M93.56,247.96c0.01,0.1,0,0.19-0.01,0.29c0,0.02-0.01,0.05-0.01,0.07c-0.03,0.16-0.09,0.31-0.18,0.45
	c-0.11,0.16-0.25,0.31-0.42,0.41c-0.02,0.01-0.05,0.03-0.07,0.04c-0.18,0.09-0.37,0.14-0.56,0.14c-0.07,0-0.14-0.01-0.21-0.02
	c-0.09-0.01-0.17-0.04-0.25-0.07c-0.03-0.01-0.06-0.02-0.09-0.04c0-0.02-0.01-0.05-0.01-0.07c-0.01-0.04-0.01-0.08-0.02-0.12
	c-0.01-0.04-0.01-0.07-0.02-0.11c-0.01-0.04-0.02-0.07-0.03-0.11c-0.01-0.03-0.02-0.06-0.03-0.09c-0.01-0.05-0.03-0.09-0.04-0.14
	c-0.01-0.03-0.02-0.06-0.04-0.1c-0.01-0.03-0.02-0.05-0.03-0.08c-0.02-0.04-0.04-0.09-0.06-0.13c-0.05-0.11-0.11-0.22-0.18-0.33
	c-0.24-0.39-0.47-0.76-0.8-1.09c-0.14-0.14-0.31-0.25-0.49-0.32c-0.02-0.01-0.04-0.02-0.05-0.02c-0.35-0.62-0.7-1.25-1.05-1.88
	c-1.16-2.07-2.33-4.15-3.49-6.22c-2.32-4.13-4.64-8.27-6.96-12.4c-1.72-3.07-3.44-6.13-5.16-9.2c-0.23-0.4-0.45-0.8-0.68-1.2
	c-0.08-0.14-0.16-0.28-0.23-0.42c-0.01-0.01-0.01-0.03-0.02-0.04c-0.11-0.21-0.16-0.44-0.15-0.67c0.01-0.12,0.03-0.24,0.07-0.36
	c0.04-0.13,0.11-0.26,0.2-0.37c0.03-0.04,0.07-0.08,0.11-0.12c0.01-0.01,0.02-0.02,0.03-0.03c0.03-0.03,0.06-0.05,0.09-0.08
	c0.04-0.03,0.09-0.06,0.13-0.09c0.02-0.01,0.04-0.02,0.06-0.03c0.49-0.26,1.12-0.15,1.5,0.24c0.07,0.07,0.14,0.16,0.19,0.25
	c1.24,2.21,2.48,4.41,3.71,6.62c2.28,4.07,4.57,8.13,6.85,12.2c2.31,4.11,4.61,8.22,6.92,12.33c0.28,0.5,0.56,1,0.84,1.51h0
	c0.08,0.14,0.15,0.27,0.23,0.41c0.09,0.15,0.17,0.31,0.26,0.46C93.49,247.59,93.55,247.77,93.56,247.96z"/>
<path class="st0" d="M93.35,213.65c-4.7,0-9.4,0-14.11,0c-2.18,0-4.36,0-6.54,0c-0.7,0-1.25-0.66-1.22-1.33
	c0.03-0.72,0.64-1.22,1.33-1.22c3.57,0,7.14,0,10.72,0c4.77,0,9.54,0,14.3,0c4.86,0,9.72,0,14.58,0c4.83,0,9.67,0,14.5,0
	c1,0,1.99,0,2.99,0c-0.16,0.32-0.26,0.66-0.3,1.01c-0.09,0.34-0.09,0.71-0.02,1.06c-0.33,0.1-0.61,0.27-0.88,0.49
	c-2.14,0-4.28,0-6.42,0c-4.79,0-9.58,0-14.37,0c-3.24,0-6.47,0-9.71,0C96.59,213.65,94.97,213.65,93.35,213.65z"/>
<path class="st0" d="M406.38,249.5c0,0.02,0,0.05,0,0.07c-0.03,0.67-0.55,1.15-1.18,1.21c-0.05,0.01-0.1,0.01-0.15,0.01
	c-0.04,0-0.08,0-0.12,0c-0.04,0-0.08,0-0.11,0c-9.39,0-18.77,0-28.16,0c-4.72,0-9.44,0-14.16,0c-0.4,0-0.81,0-1.21,0
	c-0.35,0-0.7,0-1.05,0c-0.17,0-0.34,0-0.52,0c-7.28,0-14.56,0-21.84,0c-2.65,0-5.29,0-7.94,0c-0.05,0-0.1,0-0.14,0
	c-0.77,0-1.53,0-2.3,0c-0.04,0-0.09,0-0.13,0c-9.62,0-19.25,0-28.87,0c-13.25,0-26.49,0-39.74,0c-13.14,0-26.27,0-39.41,0
	c-13.22,0-26.44,0-39.66,0c-5.59,0-11.19,0-16.78,0c-0.44,0-0.88,0-1.32,0c-0.24,0-0.49,0-0.73,0c-0.34,0-0.68,0-1.03,0
	c-5.76,0-11.52,0-17.28,0c-0.55,0-1.1,0-1.65,0c-0.35,0-0.71,0-1.06,0c-7.21,0-14.42,0-21.63,0c-0.8,0-1.6,0-2.4,0
	c-3.4,0-6.81,0-10.21,0c-2.39,0-4.78,0-7.18,0c-0.86,0-1.72,0-2.58,0c-0.5,0-1,0-1.49,0c-0.09,0-0.18,0-0.26,0c-0.25,0-0.5,0-0.76,0
	c-0.31,0-0.61,0-0.92,0c-0.08,0-0.15,0-0.23,0c-0.05,0-0.09,0-0.14,0c0,0,0,0,0-0.01c0-0.05,0-0.1,0-0.15
	c-0.01-0.19-0.07-0.36-0.15-0.51c-0.02-0.05-0.05-0.09-0.08-0.13c-0.01-0.01-0.02-0.03-0.03-0.04c0,0,0,0,0,0
	c-0.02-0.03-0.04-0.06-0.07-0.08c0.01-0.05,0.02-0.11,0.03-0.17c0-0.02,0-0.03,0.01-0.05c0.01-0.1,0.01-0.2,0.01-0.29
	c0-0.03,0-0.06-0.01-0.09c0-0.02,0-0.04-0.01-0.06c0-0.02-0.01-0.05-0.01-0.07c-0.01-0.04-0.01-0.08-0.02-0.12
	c-0.01-0.04-0.01-0.07-0.02-0.11c-0.01-0.04-0.02-0.07-0.03-0.11c-0.01-0.03-0.02-0.06-0.03-0.09c-0.01-0.05-0.03-0.09-0.04-0.14
	c-0.01-0.03-0.02-0.06-0.04-0.1c-0.01-0.03-0.02-0.05-0.03-0.08c-0.02-0.04-0.04-0.09-0.06-0.13c0.11-0.03,0.22-0.04,0.34-0.04
	c0.54,0,1.09,0,1.63,0c0.04,0,0.07,0,0.11,0c0.06,0,0.11,0,0.17,0c0.46,0,0.93,0,1.39,0c5.94,0,11.88,0,17.81,0c0.56,0,1.13,0,1.7,0
	c1.05,0,2.09,0,3.14,0c6.93,0,13.87,0,20.8,0c1.12,0,2.24,0,3.35,0c2.57,0,5.13,0,7.7,0c0.73,0,1.45,0,2.17,0c0.03,0,0.06,0,0.09,0
	c0,0,0.01,0,0.01,0c0.05,0.01,0.09,0.01,0.14,0.02c0.04,0.01,0.09,0.01,0.14,0.01c0,0,0.01,0,0.01,0c0.04,0,0.09,0.01,0.14,0.01
	c0.11,0.01,0.21,0.01,0.32,0.01c0.15,0,0.3-0.01,0.44-0.03c0.04-0.01,0.08-0.01,0.11-0.02c1.82,0,3.65,0,5.48,0
	c1.05,0,2.11,0,3.16,0c8.96,0,17.92,0,26.87,0c13.34,0,26.67,0,40.01,0c13.11,0,26.22,0,39.32,0c13.13,0,26.25,0,39.38,0
	c6.56,0,13.12,0,19.68,0c0,0,0,0,0.01,0c0.83,0,1.65,0,2.48,0c0.01,0,0.02,0,0.03,0c5.64,0,11.28,0,16.91,0c4.48,0,8.96,0,13.44,0
	c0.92,0,1.85,0,2.77,0c7.66,0,15.32,0,22.97,0c6.06,0,12.11,0,18.16,0c0.05,0,0.1,0,0.15,0c0.38,0,0.75,0,1.13,0
	c0.46,0,0.85,0.28,1.06,0.67C406.32,249.09,406.37,249.3,406.38,249.5z"/>
<path class="st0" d="M445.96,249.97c0.06,0.04,0.13,0.09,0.19,0.13c-0.31,0.19-0.62,0.38-0.93,0.58c-0.32,0.2-0.64,0.41-0.94,0.64
	c-0.08,0.06-0.16,0.12-0.23,0.18c-0.07,0.06-0.14,0.11-0.21,0.17c-0.01-0.01-0.02-0.01-0.03-0.02c-0.82-0.5-1.63-1-2.45-1.5
	c-0.39-0.24-0.78-0.47-1.16-0.71c-4.01-2.46-8.03-4.92-12.04-7.38c-4.05-2.48-8.1-4.97-12.15-7.45c-4.05-2.48-8.1-4.96-12.15-7.45
	c-2.69-1.65-5.39-3.3-8.08-4.95c-1.03-0.63-2.05-1.26-3.08-1.89v0c-0.29-0.18-0.58-0.35-0.87-0.53c-0.77-0.47-1.54-0.94-2.31-1.41
	c-0.02-0.01-0.04-0.02-0.06-0.04h0c0,0-0.01,0-0.01-0.01c-0.59-0.36-0.77-1.18-0.4-1.76c0.31-0.48,0.88-0.68,1.4-0.55
	c0.12,0.03,0.25,0.08,0.36,0.15c0,0,0.01,0,0.01,0.01c0,0,0.01,0,0.01,0.01c3.28,2,6.55,4.01,9.82,6.02
	c4.06,2.49,8.12,4.98,12.18,7.47c4.08,2.5,8.17,5.01,12.26,7.51c3.99,2.45,7.99,4.89,11.98,7.34c1.8,1.1,3.6,2.21,5.4,3.31
	c0.05,0.04,0.11,0.08,0.16,0.11c0.09,0.05,0.17,0.11,0.26,0.16c0.02,0.01,0.04,0.03,0.06,0.04c0.27,0.19,0.55,0.35,0.84,0.52
	c0.1,0.06,0.2,0.11,0.3,0.17C444.7,249.2,445.32,249.58,445.96,249.97C445.95,249.96,445.95,249.96,445.96,249.97z"/>
<path class="st0" d="M404.95,250.45c-0.81-1.69-1.65-3.37-2.49-5.05c-1.09-2.18-2.19-4.35-3.31-6.51c-1.14-2.18-2.27-4.37-3.36-6.58
	c-1.11-2.27-2.2-4.54-3.32-6.8c-0.71-1.43-1.45-2.86-2.19-4.28c-0.36-0.69-0.74-1.38-1.08-2.08c-0.16-0.34-0.32-0.68-0.48-1.03
	c-0.07-0.15-0.13-0.31-0.19-0.46c-0.3-0.5-0.18-1.21,0.25-1.6c0.24-0.22,0.57-0.35,0.9-0.34c0.36,0.01,0.65,0.17,0.9,0.41
	c0.22,0.21,0.32,0.58,0.43,0.86c0.47,1.03,1,2.04,1.52,3.04c0.58,1.1,1.14,2.21,1.7,3.32c1.12,2.19,2.17,4.41,3.25,6.61
	c2.17,4.46,4.51,8.83,6.73,13.25c0.68,1.35,1.36,2.7,2.03,4.05c-0.1,0.38-0.07,0.8,0.09,1.16c0.11,0.31,0.26,0.61,0.38,0.91
	c0.15,0.35,0.28,0.7,0.42,1.05c0.01,0.03,0.03,0.07,0.04,0.1c-0.11,0.2-0.28,0.37-0.51,0.49c-0.18,0.09-0.38,0.14-0.58,0.14
	C405.62,251.13,405.16,250.89,404.95,250.45z"/>
<path class="st0" d="M115.58,249.51c-1.05-1.35-2.04-2.73-3.02-4.13c-0.34-0.47-0.67-0.95-1.01-1.42c-0.01-0.01-0.02-0.03-0.03-0.04
	c-0.04-0.05-0.08-0.11-0.12-0.16c-0.35-0.49-0.69-0.98-1.04-1.48c-1.45-2.06-2.88-4.13-4.3-6.2c-2.85-4.16-5.64-8.37-8.49-12.53
	c-0.51-0.75-1.03-1.5-1.55-2.24c0.01,0.01,0.01,0.02,0.02,0.03c-0.3-0.42-0.59-0.84-0.89-1.26c-0.04-0.05-0.07-0.11-0.11-0.16
	c-0.03-0.04-0.06-0.08-0.09-0.12c0.03,0.04,0.06,0.08,0.08,0.12c-0.84-1.16-1.68-2.31-2.54-3.44c-0.41-0.54-0.84-1.08-1.26-1.62
	c-0.37-0.47-0.73-0.95-1.12-1.41c-0.44-0.43-0.5-1.16-0.14-1.66c0.41-0.58,1.21-0.68,1.79-0.29c0.22,0.15,0.39,0.4,0.55,0.61
	c0.23,0.3,0.47,0.59,0.7,0.88c0.45,0.57,0.91,1.15,1.35,1.73c0.91,1.19,1.8,2.39,2.67,3.61c0,0,0,0,0,0.01
	c-0.01-0.01-0.01-0.02-0.02-0.02c0.01,0.01,0.01,0.02,0.02,0.03c0.03,0.04,0.06,0.08,0.08,0.12c0.17,0.23,0.33,0.47,0.5,0.7
	c0.12,0.17,0.24,0.35,0.37,0.52c0.05,0.07,0.09,0.13,0.14,0.2c0.03,0.04,0.06,0.08,0.09,0.12c0.38,0.54,0.76,1.08,1.13,1.62
	c1.45,2.12,2.89,4.26,4.33,6.39c2.78,4.15,5.6,8.27,8.47,12.36c0.45,0.64,0.9,1.28,1.35,1.92c0.02,0.03,0.05,0.07,0.07,0.1
	c0.03,0.04,0.07,0.09,0.1,0.13c0,0,0,0,0,0c0.04,0.06,0.08,0.11,0.12,0.17c0,0,0.01,0.01,0.01,0.01c0.02,0.02,0.03,0.05,0.05,0.07
	c0.14,0.2,0.29,0.4,0.43,0.6c0.3,0.42,0.6,0.84,0.9,1.26c-0.03-0.05-0.06-0.09-0.1-0.14c0.81,1.14,1.64,2.28,2.5,3.38
	c0.43,0.55,0.36,1.35-0.19,1.8c-0.23,0.19-0.52,0.28-0.81,0.28C116.2,249.97,115.82,249.82,115.58,249.51z"/>
<path class="st0" d="M139.84,249.75c-1.1-1.26-2.17-2.55-3.19-3.88c-1.44-1.87-2.76-3.82-4.1-5.77c-1.92-2.79-3.82-5.6-5.77-8.37
	c-2.96-4.15-6.03-8.21-9.06-12.31c-0.79-1.07-1.57-2.14-2.35-3.21c-0.39-0.53-0.79-1.06-1.19-1.59c-0.18-0.23-0.36-0.46-0.54-0.69
	c-0.21-0.26-0.43-0.5-0.54-0.82c-0.23-0.66,0.2-1.4,0.85-1.6c0.66-0.2,1.32,0.17,1.57,0.78c-0.01-0.03-0.02-0.06-0.03-0.09
	c0,0,0,0,0,0c-0.03-0.05-0.05-0.09-0.07-0.14c-0.03-0.04-0.06-0.09-0.09-0.13c0.35,0.46,0.72,0.91,1.07,1.37
	c0.36,0.48,0.72,0.97,1.08,1.45c0.73,1,1.46,2,2.19,2.99c1.51,2.04,3.03,4.06,4.54,6.1c1.55,2.1,3.09,4.2,4.61,6.33
	c1.49,2.09,2.94,4.21,4.38,6.34c1.27,1.87,2.55,3.73,3.85,5.58c-0.03-0.05-0.06-0.09-0.1-0.14c1.52,2.14,3.15,4.19,4.87,6.16
	c0.46,0.52,0.34,1.37-0.19,1.8c-0.24,0.19-0.51,0.28-0.79,0.28C140.48,250.21,140.11,250.05,139.84,249.75z"/>
<path class="st0" d="M73.12,214.1c0.04,0.1,0.05,0.2,0.01,0.31c-0.01,0.03-0.02,0.06-0.04,0.08c-0.03,0.04-0.06,0.08-0.1,0.11
	c-0.01,0.01-0.03,0.02-0.04,0.03c-0.01,0.01-0.02,0.01-0.03,0.01c-0.05,0.02-0.11,0.03-0.16,0.03c-0.16,0-0.32-0.09-0.37-0.24
	c-0.04-0.1-0.07-0.2-0.11-0.3c-0.05-0.15-0.11-0.31-0.16-0.46c-0.01-0.04-0.02-0.07-0.02-0.11c0-0.03,0-0.06,0.01-0.09
	c0.02-0.09,0.07-0.17,0.14-0.23c0.04-0.04,0.09-0.06,0.14-0.08c0.06-0.02,0.11-0.02,0.17-0.01c0.15,0.02,0.28,0.12,0.34,0.27
	c0,0.01,0,0.01,0.01,0.02c0.03,0.07,0.05,0.15,0.07,0.22c0.06,0.16,0.11,0.33,0.17,0.49C73.13,214.12,73.13,214.11,73.12,214.1z"/>
<path class="st0" d="M72.52,215.14c-0.12-0.19-0.21-0.4-0.29-0.6c-0.18-0.42-0.35-0.84-0.5-1.28c-0.07-0.21,0.06-0.44,0.27-0.51
	c0.22-0.07,0.43,0.06,0.51,0.27c0.04,0.12,0.08,0.23,0.13,0.35c0.16,0.42,0.32,0.85,0.53,1.25c0.02,0.03,0.03,0.06,0.05,0.09
	c0.11,0.11,0.16,0.28,0.09,0.43c-0.06,0.15-0.2,0.26-0.37,0.27c0,0-0.01,0-0.01,0C72.74,215.4,72.61,215.29,72.52,215.14z"/>
<path class="st0" d="M72.56,215.56c-0.06-0.08-0.1-0.17-0.15-0.26c-0.07-0.14-0.13-0.28-0.18-0.42c-0.11-0.29-0.2-0.58-0.3-0.87
	c-0.07-0.21,0.06-0.44,0.27-0.51c0.22-0.07,0.44,0.06,0.51,0.27c0.07,0.22,0.14,0.45,0.22,0.67c0,0,0,0,0,0c0,0,0,0.01,0,0.01
	c0,0.01,0.01,0.03,0.01,0.04c0-0.01,0-0.01-0.01-0.02c0.07,0.19,0.15,0.38,0.25,0.56c0.01,0.02,0.02,0.04,0.03,0.05
	c-0.01-0.01-0.02-0.03-0.03-0.04c0,0,0,0,0,0c0.13,0.18,0.12,0.43-0.06,0.57c-0.07,0.06-0.17,0.09-0.26,0.09
	C72.75,215.71,72.63,215.66,72.56,215.56z"/>
<path class="st0" d="M72.48,215.2c-0.2-0.03-0.3-0.23-0.39-0.38c-0.11-0.18-0.2-0.37-0.29-0.57c-0.14-0.29-0.27-0.58-0.38-0.87
	c-0.14-0.37-0.3-0.77-0.28-1.17c0.01-0.22,0.08-0.42,0.22-0.6c0.07-0.09,0.15-0.17,0.25-0.24c0.07-0.05,0.16-0.09,0.24-0.12
	c0.42-0.16,0.88-0.19,1.33-0.12c0.03,0.01,0.06,0.01,0.1,0.02c-0.02,0-0.04-0.01-0.05-0.01c0.49,0.08,0.96,0.24,1.44,0.4
	c0.47,0.16,0.95,0.32,1.42,0.48c0.21,0.07,0.32,0.32,0.24,0.52c-0.08,0.21-0.31,0.31-0.52,0.24c-0.68-0.24-1.36-0.47-2.05-0.69
	c0.02,0,0.03,0.01,0.05,0.01c-0.22-0.06-0.44-0.13-0.67-0.16c0.02,0,0.03,0.01,0.05,0.01c-0.03,0-0.06-0.01-0.08-0.01
	c-0.03,0-0.05-0.01-0.08-0.01c0.02,0,0.03,0.01,0.05,0.01c-0.1-0.01-0.19-0.02-0.29-0.03c-0.06,0-0.12,0-0.17,0.01
	c-0.1,0.01-0.2,0.03-0.31,0.05c-0.04,0.01-0.09,0.02-0.13,0.04c-0.03,0.01-0.07,0.03-0.1,0.04c0,0,0,0-0.01,0c0,0,0,0-0.01,0
	c-0.01,0.01-0.02,0.02-0.02,0.03c-0.01,0.02-0.03,0.04-0.04,0.06c0,0.01-0.01,0.02-0.01,0.02c0,0.01,0,0.01-0.01,0.02
	c0,0.01,0,0.01,0,0.02c0,0.03-0.01,0.07-0.01,0.1c0,0.02,0,0.05,0,0.07c0.01,0.05,0.02,0.1,0.03,0.15c0.04,0.16,0.1,0.32,0.16,0.48
	c0,0,0,0,0,0c0.16,0.44,0.36,0.87,0.58,1.28c-0.01-0.02-0.02-0.03-0.02-0.05c0.04,0.07,0.07,0.14,0.11,0.2
	c0.08,0.06,0.14,0.16,0.16,0.27c0,0,0,0,0,0c0,0,0-0.01,0-0.01c0,0.01,0,0.01,0,0.02c0.01,0.04,0.02,0.09,0.01,0.14
	c-0.03,0.22-0.21,0.37-0.42,0.37C72.53,215.21,72.51,215.21,72.48,215.2z"/>
<path class="st0" d="M97.5,249.64c-0.46-0.08-0.93-0.15-1.39-0.24c0.02,0,0.04,0.01,0.05,0.01c-0.63-0.13-1.25-0.34-1.83-0.63
	c0,0,0,0,0,0c0,0,0,0,0,0c-0.02-0.01-0.03-0.02-0.05-0.02c0.01,0,0.01,0.01,0.02,0.01c-0.41-0.21-0.81-0.44-1.15-0.75
	c-0.18-0.16-0.34-0.33-0.5-0.51c-0.09-0.1-0.17-0.2-0.25-0.31c-0.1-0.12-0.15-0.26-0.11-0.41c0.06-0.21,0.29-0.34,0.5-0.28
	c0.1,0.03,0.18,0.09,0.23,0.17c0.06,0.09,0.14,0.18,0.21,0.26c0,0-0.01-0.01-0.01-0.01c0.14,0.17,0.29,0.32,0.46,0.47
	c0.1,0.09,0.21,0.18,0.33,0.26c0.22,0.15,0.45,0.27,0.68,0.39c-0.02-0.01-0.03-0.02-0.05-0.02c0.03,0.01,0.06,0.03,0.08,0.04
	c-0.02-0.01-0.03-0.02-0.05-0.03c0.27,0.14,0.55,0.25,0.83,0.35c0.26,0.09,0.52,0.16,0.78,0.21c-0.02,0-0.04-0.01-0.05-0.01
	c0.02,0,0.04,0.01,0.06,0.01c0.43,0.08,0.87,0.15,1.31,0.23c0.22,0.04,0.38,0.23,0.35,0.46c-0.03,0.2-0.2,0.35-0.4,0.35
	C97.54,249.65,97.52,249.64,97.5,249.64z"/>
<path class="st0" d="M160.17,250.31c-1.47-2.02-2.93-4.04-4.4-6.07c-2.62-3.61-5.25-7.23-7.87-10.85
	c-2.81-3.87-5.62-7.74-8.43-11.61c-1.75-2.41-3.49-4.81-5.24-7.22c-0.4-0.57-0.25-1.38,0.32-1.78c0.58-0.4,1.37-0.24,1.78,0.32
	c0.01,0.01,0.02,0.03,0.03,0.04c0.01,0.01,0.02,0.02,0.02,0.03c2.52,3.46,5.03,6.93,7.54,10.39c2.81,3.87,5.61,7.74,8.42,11.61
	c2.43,3.35,4.86,6.69,7.29,10.04c0.88,1.21,1.75,2.42,2.63,3.62c0.41,0.56,0.24,1.39-0.32,1.78c-0.22,0.15-0.47,0.23-0.72,0.23
	C160.82,250.85,160.42,250.66,160.17,250.31z"/>
<path class="st0" d="M127.78,213.62c-0.4-0.23-0.65-0.65-0.65-1.12c0-0.51,0.32-0.99,0.79-1.18c0.24-0.1,0.49-0.1,0.75-0.12
	c0.25-0.01,0.5-0.03,0.75-0.04c0.79-0.02,1.58-0.02,2.37-0.03c0.41,0,0.82,0,1.22,0.01c0.42,0.01,0.85,0.01,1.26,0.08
	c0.69,0.11,1.19,0.73,1.1,1.43c-0.09,0.68-0.75,1.21-1.43,1.1c-0.08-0.01-0.15-0.02-0.23-0.02c-0.58-0.04-1.16-0.04-1.74-0.04
	c-1.11,0-2.22,0.01-3.33,0.07c-0.02,0-0.05,0-0.07,0.01c0.01,0,0.01,0,0.02,0c-0.07,0.01-0.14,0.02-0.2,0.02
	C128.19,213.79,127.98,213.73,127.78,213.62z"/>
<path class="st0" d="M135.69,214.16c-0.06-0.09-0.13-0.17-0.2-0.26c-0.2-0.25-0.4-0.49-0.61-0.73c-0.14-0.17-0.28-0.33-0.44-0.48
	c-0.02-0.02-0.05-0.04-0.07-0.06c-0.01,0-0.01-0.01-0.02-0.01c-0.01-0.01-0.03-0.01-0.04-0.02c-0.02,0-0.03,0-0.05-0.01
	c-0.04,0-0.08-0.01-0.12-0.01c-0.32-0.01-0.57-0.28-0.57-0.6c0.01-0.31,0.28-0.58,0.59-0.57c0.16,0.01,0.32,0.02,0.47,0.06
	c0.13,0.04,0.27,0.1,0.38,0.18c0.19,0.13,0.36,0.31,0.51,0.48c0.14,0.16,0.27,0.32,0.41,0.47c0.12,0.14,0.24,0.29,0.35,0.43
	c0.12,0.14,0.24,0.29,0.35,0.44c0.18,0.26,0.12,0.62-0.14,0.81c-0.1,0.07-0.22,0.11-0.34,0.11
	C135.99,214.4,135.8,214.32,135.69,214.16z"/>
<path class="st0" d="M136.66,217.08c-0.7-0.84-1.39-1.71-2.18-2.47c-0.28-0.26-0.57-0.52-0.86-0.79c-0.31-0.29-0.62-0.58-0.95-0.84
	c-0.25-0.19-0.27-0.58-0.08-0.82c0.21-0.25,0.57-0.27,0.82-0.08c0.35,0.26,0.66,0.57,0.98,0.86c0.33,0.3,0.66,0.6,0.98,0.91
	c0.77,0.75,1.45,1.59,2.14,2.42c0.1,0.12,0.16,0.25,0.16,0.41c0,0.16-0.07,0.31-0.19,0.41c-0.11,0.1-0.26,0.15-0.41,0.15
	C136.92,217.26,136.76,217.2,136.66,217.08z"/>
<path class="st0" d="M362.18,252.72c-0.59,0.37-0.76,1.17-0.4,1.76c0.7,1.13,1.37,2.29,2.01,3.46c1.96,3.62,3.76,7.32,5.47,11.06
	c0.92,2.02,1.8,4.05,2.62,6.12c0.2,0.51,0.4,1.02,0.59,1.52c0,0.01,0.01,0.02,0.01,0.03c0.15,0.39,0.29,0.78,0.44,1.17
	c0.32,0.85,0.63,1.7,0.93,2.55c0.6,1.7,1.19,3.41,1.73,5.13c0.58,1.84,1.13,3.7,1.65,5.56c0.47,1.66,0.89,3.34,1.3,5.02
	c0.53,2.27,1.05,4.54,1.51,6.83c0.46,2.3,0.87,4.61,1.24,6.93c0.77,4.85,1.42,9.72,1.99,14.59c0.01,0.07,0.02,0.13,0.02,0.2
	c0.25,2.4,0.49,4.81,0.62,7.23c0.07,1.3,0.13,2.61,0.18,3.91c0.05,1.28,0.04,2.56,0.03,3.84c-0.03,1.51-0.07,3.01-0.18,4.52
	c-0.06,0.82-0.13,1.64-0.21,2.46c-0.07,0.73-0.18,1.46-0.27,2.19c-0.1,0.6-0.19,1.21-0.29,1.81c-0.1,0.65-0.24,1.29-0.36,1.94
	c-0.12,0.64-0.28,1.28-0.42,1.93c-0.14,0.63-0.31,1.25-0.47,1.87c0.01-0.05,0.03-0.11,0.05-0.16c-0.23,0.83-0.46,1.65-0.72,2.47
	c-0.31,0.99-0.64,1.97-0.99,2.95c-0.61,1.76-1.34,3.49-2.06,5.2c-0.77,1.73-1.55,3.46-2.42,5.14c-0.45,0.87-0.89,1.73-1.36,2.59
	c-0.45,0.82-0.91,1.63-1.38,2.44c-0.37,0.61-0.73,1.22-1.11,1.83c-0.47,0.74-0.94,1.48-1.42,2.21c-0.87,1.33-1.73,2.66-2.65,3.96
	c-1.01,1.42-2.04,2.83-3.09,4.23c-0.93,1.24-1.88,2.45-2.84,3.66c-1.25,1.52-2.5,3.02-3.79,4.5c-1.16,1.33-2.37,2.63-3.57,3.92
	c-1.39,1.48-2.8,2.95-4.24,4.39c-1.35,1.35-2.73,2.67-4.11,3.99c0.04-0.04,0.08-0.08,0.12-0.12c-1.68,1.58-3.38,3.14-5.08,4.69
	c-1.81,1.64-3.6,3.3-5.35,5c-1.74,1.7-3.46,3.41-5.16,5.15c-1.64,1.68-3.23,3.42-4.82,5.16c-3.23,3.55-6.32,7.23-9.29,11
	c-2.93,3.71-5.48,7.69-7.75,11.83c-0.57,1.04-1.08,2.1-1.58,3.17c-0.47,0.99-0.88,2.01-1.27,3.03c-0.19,0.5-0.35,1.01-0.5,1.53
	c-0.09,0.31-0.2,0.62-0.27,0.93c-0.08,0.34-0.16,0.69-0.25,1.03c-0.11,0.47-0.19,0.96-0.25,1.44c-0.08,0.63-0.16,1.28-0.15,1.92
	c0.01,0.29,0.01,0.58,0.02,0.87c0,0.26,0.04,0.52,0.07,0.78c0.09,1.06,0.35,2.1,0.72,3.1c0.37,0.99,0.92,1.89,1.54,2.74
	c0.33,0.45,0.72,0.85,1.12,1.24c0.43,0.42,0.93,0.8,1.44,1.1c1,0.6,2.12,0.97,3.28,1.09c0.58,0.06,1.17,0.11,1.76,0.12
	c0.56,0,1.13-0.01,1.69-0.02c0.61-0.02,1.22-0.11,1.82-0.2c0.97-0.14,1.92-0.44,2.84-0.76c0.49-0.17,0.97-0.4,1.45-0.62
	c0.46-0.21,0.91-0.46,1.35-0.7c0.9-0.5,1.78-1.05,2.64-1.62c0.4-0.26,0.8-0.52,1.19-0.8c0.29-0.21,0.57-0.43,0.78-0.73
	c0.41-0.56,0.24-1.39-0.32-1.78c-0.55-0.39-1.3-0.26-1.72,0.25c-0.08,0.07-0.17,0.14-0.26,0.21c-1.27,0.86-2.57,1.68-3.91,2.43
	c-0.34,0.17-0.67,0.34-1.01,0.5c-0.34,0.16-0.68,0.3-1.03,0.44c-0.24,0.08-0.49,0.17-0.73,0.25c-0.24,0.09-0.5,0.14-0.75,0.21
	c-0.26,0.06-0.53,0.11-0.79,0.17c-0.27,0.06-0.55,0.08-0.82,0.12c-0.4,0.03-0.81,0.07-1.21,0.08c-0.43,0.01-0.86,0.01-1.28,0.01
	c-0.5-0.02-1-0.06-1.49-0.11c-0.33-0.05-0.65-0.12-0.97-0.2c-0.18-0.05-0.35-0.11-0.52-0.18c-0.23-0.11-0.46-0.22-0.68-0.35
	c-0.2-0.13-0.4-0.27-0.59-0.42c-0.25-0.22-0.5-0.44-0.73-0.68c-0.24-0.26-0.46-0.54-0.67-0.82c-0.2-0.3-0.39-0.6-0.57-0.91
	c-0.16-0.3-0.3-0.61-0.43-0.92c-0.14-0.4-0.27-0.8-0.37-1.21c-0.08-0.35-0.14-0.7-0.19-1.06c-0.02-0.27-0.05-0.54-0.07-0.82
	c-0.02-0.27-0.01-0.55-0.02-0.82c0.02-0.3,0.03-0.6,0.05-0.89c0.02-0.29,0.07-0.59,0.11-0.88c0.06-0.33,0.12-0.66,0.18-0.98
	c0.06-0.35,0.16-0.69,0.25-1.04c0.17-0.57,0.34-1.13,0.53-1.69c0.2-0.59,0.43-1.17,0.66-1.74c0.24-0.54,0.47-1.08,0.72-1.61
	c0.36-0.76,0.73-1.5,1.11-2.24c0.64-1.25,1.35-2.46,2.05-3.68c0.54-0.88,1.08-1.75,1.64-2.62c0.53-0.82,1.07-1.64,1.64-2.44
	c0.65-0.9,1.3-1.8,1.98-2.69c0.62-0.82,1.26-1.62,1.9-2.43c2.96-3.64,6-7.22,9.2-10.66c1.59-1.71,3.18-3.42,4.83-5.07
	c1.74-1.74,3.48-3.47,5.25-5.16c0.2-0.19,0.4-0.38,0.6-0.57c3.41-3.16,6.89-6.24,10.22-9.48c1.72-1.68,3.44-3.37,5.09-5.12
	c1.64-1.75,3.29-3.49,4.87-5.3c1.64-1.87,3.23-3.78,4.77-5.73c0.67-0.84,1.33-1.69,1.97-2.55c0.72-0.96,1.45-1.91,2.14-2.89
	c0.75-1.05,1.48-2.11,2.21-3.18c0.66-0.97,1.3-1.96,1.94-2.95c1.26-1.93,2.45-3.9,3.55-5.92c0.54-1,1.08-2,1.58-3.02
	c0.54-1.1,1.09-2.19,1.59-3.31c0.52-1.17,1.03-2.34,1.53-3.52c0.49-1.15,0.91-2.34,1.35-3.51c0.82-2.21,1.48-4.49,2.06-6.78
	c0.27-1.07,0.51-2.14,0.71-3.23c0.22-1.18,0.44-2.36,0.59-3.55c0.15-1.2,0.33-2.4,0.41-3.6c0.04-0.61,0.08-1.22,0.13-1.84
	c0.04-0.63,0.05-1.27,0.08-1.91c0.05-1.28,0.05-2.56,0.05-3.84c0-1.16-0.05-2.33-0.09-3.49c-0.18-4.72-0.67-9.42-1.27-14.1
	c-0.6-4.74-1.29-9.46-2.09-14.17c-0.2-1.19-0.44-2.37-0.67-3.55c-0.21-1.08-0.43-2.15-0.67-3.22c-0.54-2.41-1.12-4.8-1.74-7.19
	c-1.16-4.5-2.59-8.94-4.16-13.3c-0.35-0.97-0.71-1.93-1.08-2.9c-0.01-0.03-0.02-0.06-0.03-0.09c-0.43-1.13-0.88-2.26-1.34-3.38
	c-0.88-2.13-1.83-4.22-2.8-6.3c-1.29-2.76-2.64-5.49-4.06-8.19c-0.86-1.63-1.76-3.23-2.73-4.8c-0.24-0.38-0.66-0.59-1.09-0.59
	C362.62,252.53,362.38,252.59,362.18,252.72z"/>
<path class="st0" d="M327.2,253.19c-0.28,1.87-0.41,3.79-0.4,5.68c0.01,2.14,0.19,4.28,0.4,6.4c0.24,2.39,0.56,4.77,0.96,7.14
	c0.4,2.37,0.85,4.74,1.38,7.09c0.13,0.56,0.26,1.12,0.39,1.68c0,0.02,0.01,0.04,0.01,0.05c0,0.01,0,0.02,0.01,0.03
	c0.05,0.19,0.08,0.39,0.14,0.59c0.03,0.11,0.06,0.22,0.09,0.33c0.02,0.1,0.04,0.2,0.07,0.3c0.03,0.13,0.06,0.26,0.1,0.38
	c0.09,0.37,0.19,0.75,0.28,1.12c0.31,1.22,0.64,2.43,0.98,3.64c0.65,2.33,1.36,4.64,2.09,6.95c0.79,2.5,1.61,4.98,2.46,7.46
	c1.62,4.76,3.46,9.44,5.15,14.17c0.63,1.76,1.2,3.54,1.76,5.33c0.53,1.66,0.95,3.35,1.39,5.04c0.2,0.83,0.4,1.67,0.59,2.5
	c0.21,0.89,0.37,1.8,0.56,2.69c0.08,0.38,0.13,0.76,0.2,1.14c0.09,0.51,0.18,1.02,0.27,1.53c0.07,0.4,0.11,0.81,0.17,1.21
	c0.06,0.45,0.13,0.91,0.19,1.36c0.06,0.64,0.13,1.28,0.19,1.92c0.06,0.57,0.09,1.14,0.12,1.72c0.04,0.59,0.08,1.18,0.09,1.78
	c0.02,0.76,0.03,1.52,0.05,2.27c0-0.05,0-0.11,0-0.16c-0.01,0.88-0.03,1.76-0.04,2.65c0,0.33-0.03,0.67-0.05,1
	c-0.03,0.55-0.06,1.09-0.09,1.64c-0.02,0.33-0.06,0.65-0.09,0.98c-0.05,0.53-0.1,1.07-0.14,1.6c-0.07,0.83-0.2,1.66-0.31,2.49
	c-0.13,0.81-0.25,1.61-0.38,2.42c-0.06,0.38-0.15,0.76-0.22,1.14c-0.09,0.45-0.18,0.91-0.26,1.36c-0.07,0.38-0.18,0.76-0.26,1.14
	c-0.1,0.45-0.21,0.91-0.31,1.36c-0.09,0.39-0.21,0.77-0.31,1.15c-0.11,0.42-0.23,0.85-0.34,1.27c-0.29,0.95-0.56,1.91-0.88,2.85
	c-0.24,0.68-0.47,1.36-0.7,2.04c-0.16,0.47-0.35,0.94-0.53,1.4c-0.79,2.06-1.64,4.09-2.51,6.12c-0.45,0.99-0.88,1.99-1.36,2.97
	c-0.54,1.13-1.09,2.26-1.66,3.38c-0.6,1.18-1.21,2.34-1.84,3.5c-0.54,1-1.1,1.98-1.66,2.96c-1.27,2.11-2.55,4.21-3.93,6.24
	c-1.44,2.12-2.9,4.22-4.39,6.3c-2.95,4.15-5.89,8.3-8.78,12.5c-2.86,4.16-5.54,8.44-8.12,12.77c-1.27,2.12-2.44,4.31-3.57,6.51
	c-0.61,1.19-1.19,2.4-1.77,3.62c-0.22,0.46-0.42,0.93-0.63,1.4c-0.25,0.56-0.51,1.11-0.74,1.67c-0.5,1.2-1,2.39-1.46,3.61
	c-0.21,0.55-0.43,1.09-0.62,1.65c-0.26,0.76-0.51,1.53-0.77,2.29c-0.16,0.49-0.3,0.98-0.44,1.47c-0.16,0.58-0.35,1.15-0.48,1.74
	c-0.32,1.37-0.64,2.75-0.95,4.12c-0.26,1.15-0.47,2.32-0.7,3.48c-0.04,0.22-0.06,0.45-0.09,0.67c-0.06,0.43-0.12,0.85-0.18,1.28
	c-0.04,0.29-0.08,0.59-0.12,0.88c-0.03,0.25-0.04,0.51-0.06,0.76c-0.03,0.43-0.07,0.86-0.1,1.3c-0.01,0.19-0.04,0.38-0.04,0.56
	c-0.01,0.77-0.03,1.54-0.04,2.32c-0.01,0.59,0.03,1.19,0.05,1.78c0.01,0.27,0.02,0.55,0.03,0.82c0.01,0.34,0.06,0.67,0.09,1.01
	c0.05,0.55,0.09,1.1,0.17,1.65c0.13,0.89,0.25,1.78,0.43,2.66c0.29,1.44,0.75,2.83,1.3,4.19c0.58,1.43,1.41,2.74,2.38,3.94
	c0.21,0.26,0.45,0.51,0.67,0.76c0.36,0.41,0.74,0.8,1.13,1.18c1.14,1.11,2.49,1.97,3.94,2.61c1.17,0.52,2.43,0.8,3.71,0.89
	c1.3,0.09,2.59-0.13,3.83-0.48c0.42-0.12,0.83-0.28,1.24-0.45c0.26-0.11,0.53-0.21,0.78-0.33c0.29-0.14,0.58-0.28,0.88-0.41
	c0.32-0.15,0.62-0.33,0.94-0.5c0.56-0.3,1.09-0.65,1.61-1.01c0.51-0.35,1.02-0.73,1.49-1.13c0.47-0.41,0.93-0.83,1.38-1.26
	c0.47-0.45,0.91-0.94,1.34-1.42c0.8-0.9,1.5-1.89,2.15-2.9c0.78-1.21,1.43-2.49,2.04-3.8c0.28-0.59,0.52-1.2,0.74-1.82
	c0.16-0.45,0.29-0.91,0.42-1.38c0,0,0,0,0,0c0,0.02-0.01,0.03-0.01,0.05c0.01-0.02,0.01-0.04,0.02-0.06
	c0.09-0.22,0.12-0.46,0.08-0.7c-0.04-0.21-0.13-0.43-0.28-0.59c-0.34-0.39-0.87-0.56-1.37-0.4c-0.39,0.13-0.69,0.43-0.83,0.81
	c-0.07,0.2-0.12,0.42-0.18,0.63c-0.2,0.66-0.45,1.3-0.71,1.94c-0.48,1.09-1.02,2.15-1.6,3.19c-0.24,0.4-0.49,0.79-0.74,1.18
	c-0.31,0.47-0.65,0.92-0.99,1.37c-0.29,0.36-0.58,0.71-0.89,1.05c-0.31,0.35-0.63,0.68-0.95,1.01c0.01-0.01,0.02-0.02,0.03-0.03
	c-0.32,0.3-0.63,0.6-0.97,0.89c-0.41,0.36-0.84,0.7-1.27,1.03c-0.27,0.19-0.54,0.37-0.81,0.56c-0.29,0.2-0.61,0.37-0.91,0.55
	c-0.39,0.21-0.77,0.42-1.17,0.61c-0.47,0.22-0.94,0.42-1.41,0.62c-0.44,0.16-0.89,0.31-1.35,0.43c-0.37,0.08-0.74,0.15-1.12,0.19
	c-0.31,0.02-0.62,0.04-0.93,0.04c-0.32-0.01-0.63-0.03-0.95-0.07c-0.4-0.06-0.79-0.15-1.19-0.25c-0.33-0.11-0.66-0.22-0.98-0.35
	c-0.44-0.2-0.86-0.41-1.28-0.64c-0.39-0.24-0.77-0.49-1.14-0.77c-0.49-0.41-0.96-0.85-1.41-1.31c-0.59-0.63-1.15-1.28-1.67-1.97
	c-0.28-0.41-0.53-0.83-0.78-1.26c-0.27-0.53-0.52-1.07-0.74-1.62c-0.32-0.84-0.59-1.69-0.81-2.56c-0.16-0.69-0.29-1.37-0.4-2.07
	c-0.07-0.48-0.14-0.97-0.21-1.45c-0.07-0.72-0.13-1.43-0.2-2.15c-0.03-0.35-0.03-0.7-0.04-1.05c-0.02-0.42-0.03-0.85-0.05-1.27
	c0.01-0.64,0.02-1.27,0.03-1.91c0.01-0.59,0.07-1.18,0.11-1.78c0.04-0.56,0.08-1.12,0.16-1.67c0.09-0.68,0.19-1.36,0.28-2.04
	c0.24-1.22,0.47-2.45,0.74-3.67c0.31-1.38,0.63-2.75,0.95-4.13c0.11-0.4,0.23-0.8,0.34-1.21c0.11-0.38,0.2-0.78,0.33-1.16
	c0.17-0.51,0.34-1.02,0.51-1.52c0.13-0.37,0.24-0.76,0.38-1.13c0.33-0.87,0.65-1.74,0.98-2.61c0.16-0.42,0.34-0.82,0.51-1.24
	c0.19-0.47,0.39-0.93,0.58-1.4c0.53-1.19,1.06-2.37,1.62-3.55c0.28-0.59,0.56-1.2,0.86-1.78c0.39-0.77,0.79-1.54,1.18-2.31
	c0.33-0.64,0.68-1.26,1.02-1.89c0.3-0.55,0.6-1.09,0.91-1.63c0.7-1.22,1.41-2.43,2.13-3.63c1.31-2.12,2.64-4.24,3.99-6.35
	c1.3-2.03,2.67-4.02,4.04-6c2.93-4.21,5.9-8.38,8.86-12.56c1.49-2.11,2.94-4.24,4.35-6.4c0.64-0.98,1.26-1.98,1.87-2.99
	c0.31-0.52,0.64-1.04,0.94-1.57c0.39-0.69,0.79-1.39,1.18-2.08c0.24-0.42,0.46-0.84,0.69-1.26c0.29-0.54,0.59-1.08,0.87-1.63
	c0.58-1.14,1.17-2.28,1.73-3.44c0.28-0.58,0.56-1.15,0.83-1.73c0.31-0.64,0.59-1.3,0.88-1.94c0.52-1.15,1.01-2.32,1.51-3.49
	c0.44-1.02,0.85-2.06,1.25-3.1c0.24-0.63,0.48-1.27,0.73-1.9c0.27-0.7,0.49-1.43,0.74-2.14c0.16-0.47,0.3-0.94,0.44-1.42
	c0.18-0.58,0.37-1.16,0.53-1.75c0.2-0.74,0.4-1.48,0.6-2.22c0.16-0.59,0.28-1.19,0.42-1.79c0.55-2.39,0.96-4.82,1.26-7.26
	c0.31-2.49,0.52-4.99,0.56-7.5c0.01-0.64,0.04-1.29,0.03-1.94c-0.02-0.76-0.03-1.52-0.05-2.27c-0.01-0.52-0.05-1.03-0.08-1.55
	c-0.04-0.59-0.06-1.18-0.12-1.77c-0.07-0.73-0.14-1.45-0.21-2.18c-0.07-0.68-0.18-1.36-0.28-2.04c-0.07-0.48-0.14-0.96-0.22-1.44
	c-0.12-0.67-0.21-1.34-0.35-2c-0.26-1.26-0.52-2.52-0.82-3.77c-0.31-1.33-0.65-2.65-1-3.97c-0.27-1.05-0.58-2.09-0.91-3.13
	c-0.42-1.34-0.86-2.67-1.31-4c-0.8-2.36-1.68-4.7-2.55-7.03c-0.88-2.36-1.75-4.73-2.58-7.11c-1.65-4.68-3.16-9.41-4.54-14.18
	c-0.33-1.13-0.65-2.26-0.95-3.39c-0.15-0.58-0.31-1.16-0.45-1.74c-0.08-0.3-0.15-0.61-0.23-0.91c0,0,0-0.01,0-0.01
	c-0.03-0.12-0.06-0.24-0.09-0.35c-0.03-0.15-0.07-0.3-0.11-0.44c0-0.01,0-0.01,0-0.02c-0.01-0.03-0.01-0.06-0.02-0.09
	c-0.01-0.06-0.03-0.12-0.05-0.18c-0.02-0.07-0.03-0.15-0.05-0.22c-0.01-0.04-0.02-0.07-0.03-0.11c-0.28-1.18-0.55-2.35-0.8-3.54
	c-0.24-1.15-0.45-2.3-0.66-3.46c-0.42-2.3-0.77-4.62-1.05-6.94c0,0.03,0.01,0.06,0.01,0.09c-0.16-1.43-0.3-2.86-0.4-4.29
	c-0.11-1.39-0.19-2.79-0.18-4.18c0.03-1.51,0.13-3.02,0.33-4.52c0.01-0.04,0.01-0.07,0.02-0.11c0.05-0.33,0.01-0.66-0.17-0.95
	c-0.18-0.29-0.48-0.5-0.82-0.57c-0.08-0.02-0.16-0.03-0.25-0.03C327.89,252.18,327.29,252.59,327.2,253.19z"/>
<path class="st0" d="M118.37,286.25c-0.53,0.01-1.06-0.04-1.58-0.06c0.08,0.08,0.17,0.17,0.25,0.25c0.01,0.01,0.01,0.01,0.02,0.02
	c5.11,5.1,10.21,10.21,15.31,15.31c5.37,5.37,10.73,10.73,16.1,16.1c5.47,5.48,10.95,10.95,16.43,16.43
	c5.41,5.41,10.82,10.82,16.23,16.23c5.43,5.43,10.86,10.86,16.29,16.29c5.55,5.55,11.11,11.11,16.66,16.66
	c5.39,5.39,10.79,10.79,16.18,16.18c5.53,5.53,11.06,11.06,16.59,16.59c5.41,5.4,10.81,10.81,16.21,16.21
	c5.07,5.07,10.14,10.13,15.2,15.2c4.68,4.68,9.36,9.36,14.04,14.04c0.97,0.97,1.94,1.94,2.91,2.91c0.24,0.24,0.53,0.4,0.87,0.42
	c0.34,0.02,0.68-0.1,0.94-0.33c0.5-0.45,0.58-1.31,0.09-1.81c-4.24-4.24-8.48-8.47-12.71-12.71c-4.93-4.93-9.86-9.86-14.79-14.79
	c-5.36-5.36-10.72-10.72-16.08-16.08c-5.4-5.4-10.81-10.81-16.21-16.21c-5.49-5.49-10.99-10.99-16.48-16.48
	c-5.52-5.52-11.04-11.04-16.56-16.56c-5.43-5.43-10.86-10.86-16.29-16.29c-5.5-5.5-10.99-10.99-16.49-16.49
	c-5.39-5.39-10.78-10.78-16.17-16.17c-5.41-5.41-10.82-10.82-16.23-16.23c-5.45-5.45-10.9-10.9-16.35-16.35
	c-0.78-0.78-1.56-1.57-2.35-2.35c-0.01,0-0.02,0-0.02,0C119.7,286.19,119.04,286.24,118.37,286.25z"/>
<path class="st0" d="M152.22,251.78c0.18-0.03,0.37-0.04,0.56-0.06c0.11-0.01,0.21-0.01,0.32-0.01c0.15,0,0.3,0.01,0.45,0.03
	c-0.19-0.11-0.41-0.16-0.62-0.16C152.68,251.58,152.43,251.65,152.22,251.78z"/>
<path class="st0" d="M73.29,286.56c-0.61-0.36-0.8-1.14-0.46-1.75c0.3-0.54,0.61-1.08,0.91-1.62c1.72-3.07,3.44-6.13,5.16-9.2
	c2.32-4.13,4.64-8.27,6.96-12.4c1.16-2.07,2.33-4.15,3.49-6.22c0.5-0.89,0.99-1.77,1.49-2.66c0.12-0.06,0.24-0.13,0.35-0.23
	c0.24-0.21,0.38-0.49,0.52-0.77c0.05-0.11,0.11-0.21,0.16-0.32c0.09-0.15,0.14-0.32,0.16-0.5c0.21-0.14,0.47-0.22,0.72-0.22
	c0.22,0,0.43,0.05,0.63,0.17c0.59,0.35,0.82,1.15,0.46,1.75c-0.09,0.15-0.17,0.31-0.26,0.46c-0.36,0.64-0.72,1.28-1.07,1.91
	c-2.31,4.11-4.61,8.22-6.92,12.33c-2.28,4.07-4.57,8.13-6.85,12.2c-1.24,2.21-2.48,4.41-3.71,6.62c-0.23,0.41-0.67,0.63-1.11,0.63
	C73.71,286.73,73.49,286.67,73.29,286.56z"/>
<path class="st0" d="M91.59,251.74c0,0-0.01,0.01-0.01,0.01C91.58,251.75,91.58,251.75,91.59,251.74z"/>
<path class="st0" d="M91.63,251.7c0,0,0,0.01,0,0.01c0,0-0.01,0.01-0.01,0.01c0,0-0.01,0-0.01,0
	C91.61,251.71,91.62,251.71,91.63,251.7z"/>
<path class="st0" d="M93.82,286.35c-4.7,0-9.4,0-14.11,0c-2.18,0-4.36,0-6.54,0c-0.7,0-1.25,0.66-1.22,1.33
	c0.03,0.72,0.64,1.22,1.33,1.22c3.57,0,7.14,0,10.72,0c4.77,0,9.54,0,14.3,0c4.86,0,9.72,0,14.58,0c4.83,0,9.67,0,14.5,0
	c1,0,1.99,0,2.99,0c-0.16-0.32-0.26-0.66-0.3-1.01c-0.09-0.34-0.09-0.71-0.02-1.06c-0.33-0.1-0.61-0.27-0.88-0.49
	c-2.14,0-4.28,0-6.42,0c-4.79,0-9.58,0-14.37,0c-3.24,0-6.47,0-9.71,0C97.05,286.35,95.44,286.35,93.82,286.35z"/>
<path class="st0" d="M386.18,251.76c-13.06,0-26.13,0-39.19,0c-13.04,0-26.07,0-39.11,0c-13.13,0-26.25,0-39.38,0
	c-13.11,0-26.22,0-39.32,0c-13.34,0-26.67,0-40.01,0c-11.84,0-23.67,0-35.51,0c-0.19-0.04-0.37-0.05-0.56-0.05
	c-0.11,0-0.21,0-0.32,0.01c-0.15,0.01-0.29,0.02-0.43,0.04c-0.76,0-1.51,0-2.27,0c-12.23,0-24.46,0-36.69,0c-7.04,0-14.08,0-21.12,0
	c-0.19,0-0.36-0.04-0.53-0.1c0.05-0.09,0.09-0.18,0.13-0.28c0.12-0.22,0.19-0.47,0.17-0.74c-0.02-0.3-0.14-0.56-0.32-0.76
	c0.04-0.19,0.05-0.4,0.03-0.59c0.13-0.05,0.26-0.08,0.41-0.08c4.64,0,9.27,0,13.91,0c11.77,0,23.53,0,35.29,0
	c12.93,0,25.86,0,38.79,0c13.22,0,26.44,0,39.66,0c13.14,0,26.27,0,39.41,0c13.25,0,26.49,0,39.74,0c13.13,0,26.26,0,39.39,0
	c12.93,0,25.86,0,38.78,0c9.46,0,18.93,0,28.39,0c0.7,0,1.3,0.5,1.33,1.22c0.03,0.67-0.53,1.33-1.22,1.33
	C399.14,251.76,392.66,251.76,386.18,251.76z"/>
<path class="st0" d="M389.5,283.43c-0.37-0.58-0.2-1.4,0.4-1.76c0,0,0.01,0,0.01-0.01l0,0c0.02-0.01,0.04-0.03,0.06-0.04
	c0.77-0.47,1.54-0.94,2.31-1.41c4.01-2.46,8.02-4.91,12.03-7.37c4.05-2.48,8.1-4.96,12.15-7.45c4.05-2.48,8.1-4.96,12.15-7.45
	c4.01-2.46,8.03-4.92,12.04-7.38c1.04-0.64,2.09-1.28,3.13-1.92c0.26,0.14,0.52,0.28,0.77,0.43c0.34,0.2,0.68,0.41,1.02,0.62
	c0.19,0.13,0.39,0.26,0.58,0.4c-0.31,0.19-0.62,0.38-0.93,0.58c-0.32,0.2-0.64,0.41-0.94,0.64c-0.08,0.06-0.16,0.12-0.23,0.18
	c-2.17,1.33-4.34,2.66-6.51,3.99c-3.99,2.45-7.99,4.89-11.98,7.34c-4.09,2.5-8.17,5.01-12.26,7.51c-4.06,2.49-8.12,4.98-12.18,7.47
	c-3.27,2.01-6.54,4.02-9.82,6.02c0,0-0.01,0-0.01,0.01c0,0-0.01,0.01-0.01,0.01c-0.21,0.13-0.45,0.19-0.68,0.19
	C390.16,284.02,389.74,283.82,389.5,283.43z"/>
<path class="st0" d="M389.24,283.94c-0.42-0.39-0.55-1.1-0.25-1.6c0.06-0.16,0.12-0.31,0.19-0.46c0.15-0.34,0.32-0.69,0.48-1.03
	c0.34-0.7,0.72-1.39,1.08-2.08c0.74-1.42,1.48-2.85,2.19-4.28c1.12-2.26,2.21-4.53,3.32-6.8c1.08-2.21,2.21-4.4,3.36-6.58
	c1.13-2.16,2.22-4.33,3.31-6.51c0.84-1.68,1.68-3.35,2.49-5.05c0.2-0.43,0.65-0.67,1.1-0.68c0.07,0.16,0.14,0.32,0.21,0.48
	c0.15,0.35,0.28,0.7,0.42,1.05c0.09,0.24,0.23,0.45,0.4,0.62c-0.92,1.93-1.89,3.84-2.85,5.75c-2.23,4.43-4.57,8.8-6.73,13.25
	c-1.07,2.21-2.13,4.43-3.25,6.61c-0.56,1.11-1.13,2.22-1.7,3.32c-0.53,1-1.06,2.01-1.52,3.04c-0.12,0.28-0.21,0.65-0.43,0.86
	c-0.25,0.24-0.54,0.4-0.9,0.41c-0.01,0-0.03,0-0.04,0C389.79,284.27,389.48,284.15,389.24,283.94z"/>
<path class="st0" d="M116.05,250.49c-1.05,1.35-2.04,2.73-3.02,4.13c-0.34,0.47-0.67,0.95-1.01,1.42c-0.01,0.01-0.02,0.03-0.03,0.04
	c-0.04,0.05-0.08,0.11-0.12,0.16c-0.35,0.49-0.69,0.98-1.04,1.48c-1.45,2.06-2.88,4.13-4.3,6.2c-2.85,4.16-5.64,8.37-8.49,12.53
	c-0.51,0.75-1.03,1.5-1.55,2.24c0.01-0.01,0.01-0.02,0.02-0.03c-0.3,0.42-0.59,0.84-0.89,1.26c-0.04,0.05-0.07,0.11-0.11,0.16
	c-0.03,0.04-0.06,0.08-0.09,0.12c0.03-0.04,0.06-0.08,0.08-0.12c-0.84,1.16-1.68,2.31-2.54,3.44c-0.41,0.54-0.84,1.08-1.26,1.62
	c-0.37,0.47-0.73,0.95-1.12,1.41c-0.44,0.43-0.5,1.16-0.14,1.66c0.41,0.58,1.21,0.68,1.79,0.29c0.22-0.15,0.39-0.4,0.55-0.61
	c0.23-0.3,0.47-0.59,0.7-0.88c0.45-0.57,0.91-1.15,1.35-1.73c0.91-1.19,1.8-2.39,2.67-3.61c0,0,0,0,0-0.01
	c-0.01,0.01-0.01,0.02-0.02,0.02c0.01-0.01,0.01-0.02,0.02-0.03c0.03-0.04,0.06-0.08,0.08-0.12c0.17-0.23,0.33-0.47,0.5-0.7
	c0.12-0.17,0.24-0.35,0.37-0.52c0.05-0.07,0.09-0.13,0.14-0.2c0.03-0.04,0.06-0.08,0.09-0.12c0.38-0.54,0.76-1.08,1.13-1.62
	c1.45-2.12,2.89-4.26,4.33-6.39c2.78-4.15,5.6-8.27,8.47-12.36c0.45-0.64,0.9-1.28,1.35-1.92c0.02-0.03,0.05-0.07,0.07-0.1
	c0.03-0.04,0.07-0.09,0.1-0.13c0,0,0,0,0,0c0.04-0.06,0.08-0.11,0.12-0.17c0,0,0.01-0.01,0.01-0.01c0.02-0.02,0.03-0.05,0.05-0.07
	c0.14-0.2,0.29-0.4,0.43-0.6c0.3-0.42,0.6-0.84,0.9-1.26c-0.03,0.05-0.06,0.09-0.1,0.14c0.81-1.14,1.64-2.28,2.5-3.38
	c0.43-0.55,0.36-1.35-0.19-1.8c-0.23-0.19-0.52-0.28-0.81-0.28C116.66,250.03,116.29,250.18,116.05,250.49z"/>
<path class="st0" d="M140.31,250.25c-1.1,1.26-2.17,2.55-3.19,3.88c-1.44,1.87-2.76,3.82-4.1,5.77c-1.92,2.79-3.82,5.6-5.77,8.37
	c-2.96,4.15-6.03,8.21-9.06,12.31c-0.79,1.07-1.57,2.14-2.35,3.21c-0.39,0.53-0.79,1.06-1.19,1.59c-0.18,0.23-0.36,0.46-0.54,0.69
	c-0.21,0.26-0.43,0.5-0.54,0.82c-0.23,0.66,0.2,1.4,0.85,1.6c0.66,0.2,1.32-0.17,1.57-0.78c-0.01,0.03-0.02,0.06-0.03,0.09
	c0,0,0,0,0,0c-0.03,0.05-0.05,0.09-0.07,0.14c-0.03,0.04-0.06,0.09-0.09,0.13c0.35-0.46,0.72-0.91,1.07-1.37
	c0.36-0.48,0.72-0.97,1.08-1.45c0.73-1,1.46-2,2.19-2.99c1.51-2.04,3.03-4.06,4.54-6.1c1.55-2.1,3.09-4.2,4.61-6.33
	c1.49-2.09,2.94-4.21,4.38-6.34c1.27-1.87,2.55-3.73,3.85-5.58c-0.03,0.05-0.06,0.09-0.1,0.14c1.52-2.14,3.15-4.19,4.87-6.16
	c0.46-0.52,0.34-1.37-0.19-1.8c-0.24-0.19-0.51-0.28-0.79-0.28C140.95,249.79,140.58,249.95,140.31,250.25z"/>
<path class="st0" d="M72.85,285.57c-0.1,0.25-0.18,0.51-0.27,0.77c-0.07,0.21,0.06,0.44,0.27,0.51c0.22,0.07,0.44-0.06,0.51-0.27
	c0.08-0.24,0.16-0.47,0.25-0.71c0,0.01-0.01,0.02-0.01,0.03c0.04-0.1,0.05-0.2,0.01-0.3c-0.04-0.1-0.12-0.19-0.21-0.23
	c-0.05-0.02-0.11-0.03-0.16-0.03C73.06,285.33,72.9,285.42,72.85,285.57z"/>
<path class="st0" d="M72.98,284.86c-0.12,0.19-0.21,0.4-0.29,0.6c-0.18,0.42-0.35,0.84-0.5,1.28c-0.07,0.21,0.06,0.44,0.27,0.51
	c0.22,0.07,0.43-0.06,0.51-0.27c0.04-0.12,0.08-0.23,0.13-0.35c0.16-0.42,0.32-0.85,0.53-1.25c0.02-0.03,0.03-0.06,0.05-0.09
	c0.11-0.11,0.16-0.28,0.09-0.43c-0.06-0.15-0.2-0.26-0.37-0.27c0,0-0.01,0-0.01,0C73.21,284.6,73.08,284.71,72.98,284.86z"/>
<path class="st0" d="M73.02,284.44c-0.06,0.08-0.1,0.17-0.15,0.26c-0.07,0.14-0.13,0.28-0.18,0.42c-0.11,0.29-0.2,0.58-0.3,0.87
	c-0.07,0.21,0.06,0.44,0.27,0.51c0.22,0.07,0.44-0.06,0.51-0.27c0.07-0.22,0.14-0.45,0.22-0.67c0,0,0,0,0,0c0,0,0-0.01,0-0.01
	c0-0.01,0.01-0.03,0.01-0.04c0,0.01,0,0.01-0.01,0.02c0.07-0.19,0.15-0.38,0.25-0.56c0.01-0.02,0.02-0.04,0.03-0.05
	c-0.01,0.01-0.02,0.03-0.03,0.04c0,0,0,0,0,0c0.13-0.18,0.12-0.43-0.06-0.57c-0.07-0.06-0.17-0.09-0.26-0.09
	C73.22,284.29,73.1,284.34,73.02,284.44z"/>
<path class="st0" d="M72.95,284.8c-0.2,0.03-0.3,0.23-0.39,0.38c-0.11,0.18-0.2,0.37-0.29,0.57c-0.14,0.29-0.27,0.58-0.38,0.87
	c-0.14,0.37-0.3,0.77-0.28,1.17c0.01,0.22,0.08,0.42,0.22,0.6c0.07,0.09,0.15,0.17,0.25,0.24c0.07,0.05,0.16,0.09,0.24,0.12
	c0.42,0.16,0.88,0.19,1.33,0.12c0.03-0.01,0.06-0.01,0.1-0.02c-0.02,0-0.04,0.01-0.05,0.01c0.49-0.08,0.96-0.24,1.44-0.4
	c0.47-0.16,0.95-0.32,1.42-0.48c0.21-0.07,0.32-0.32,0.24-0.52c-0.08-0.21-0.31-0.31-0.52-0.24c-0.68,0.24-1.36,0.47-2.05,0.69
	c0.02,0,0.03-0.01,0.05-0.01c-0.22,0.06-0.44,0.13-0.67,0.16c0.02,0,0.03-0.01,0.05-0.01c-0.03,0-0.06,0.01-0.08,0.01
	c-0.03,0-0.05,0.01-0.08,0.01c0.02,0,0.03-0.01,0.05-0.01c-0.1,0.01-0.19,0.02-0.29,0.03c-0.06,0-0.12,0-0.17-0.01
	c-0.1-0.01-0.2-0.03-0.31-0.05c-0.04-0.01-0.09-0.02-0.13-0.04c-0.03-0.01-0.07-0.03-0.1-0.04c0,0,0,0-0.01,0c0,0,0,0-0.01,0
	c-0.01-0.01-0.02-0.02-0.02-0.03c-0.01-0.02-0.03-0.04-0.04-0.06c0-0.01-0.01-0.02-0.01-0.02c0-0.01,0-0.01-0.01-0.02
	c0-0.01,0-0.01,0-0.02c0-0.03-0.01-0.07-0.01-0.1c0-0.02,0-0.05,0-0.07c0.01-0.05,0.02-0.1,0.03-0.15c0.04-0.16,0.1-0.32,0.16-0.48
	c0,0,0,0,0,0c0.16-0.44,0.36-0.87,0.58-1.28c-0.01,0.02-0.02,0.03-0.02,0.05c0.04-0.07,0.07-0.14,0.11-0.2
	c0.08-0.06,0.14-0.16,0.16-0.27c0,0,0,0,0,0c0,0,0,0.01,0,0.01c0-0.01,0-0.01,0-0.02c0.01-0.04,0.02-0.09,0.01-0.14
	c-0.03-0.22-0.21-0.37-0.42-0.37C73,284.79,72.98,284.79,72.95,284.8z"/>
<path class="st0" d="M97.97,250.36c-0.46,0.08-0.93,0.15-1.39,0.24c0.02,0,0.04-0.01,0.05-0.01c-0.63,0.13-1.25,0.34-1.83,0.63
	c0,0,0,0,0,0c0,0,0,0,0,0c-0.02,0.01-0.03,0.02-0.05,0.02c0.01,0,0.01-0.01,0.02-0.01c-0.41,0.21-0.81,0.44-1.15,0.75
	c-0.18,0.16-0.34,0.33-0.5,0.51c-0.09,0.1-0.17,0.2-0.25,0.31c-0.1,0.12-0.15,0.26-0.11,0.41c0.06,0.21,0.29,0.34,0.5,0.28
	c0.1-0.03,0.18-0.09,0.23-0.17c0.06-0.09,0.14-0.18,0.21-0.26c0,0-0.01,0.01-0.01,0.01c0.14-0.17,0.29-0.32,0.46-0.47
	c0.1-0.09,0.21-0.18,0.33-0.26c0.22-0.15,0.45-0.27,0.68-0.39c-0.02,0.01-0.03,0.02-0.05,0.02c0.03-0.01,0.06-0.03,0.08-0.04
	c-0.02,0.01-0.03,0.02-0.05,0.03c0.27-0.14,0.55-0.25,0.83-0.35c0.26-0.09,0.52-0.16,0.78-0.21c-0.02,0-0.04,0.01-0.05,0.01
	c0.02,0,0.04-0.01,0.06-0.01c0.43-0.08,0.87-0.15,1.31-0.23c0.22-0.04,0.38-0.23,0.35-0.46c-0.03-0.2-0.2-0.35-0.4-0.35
	C98.01,250.35,97.99,250.36,97.97,250.36z"/>
<path class="st0" d="M160.63,249.69c-1.47,2.02-2.93,4.04-4.4,6.07c-2.62,3.61-5.25,7.23-7.87,10.85
	c-2.81,3.87-5.62,7.74-8.43,11.61c-1.75,2.41-3.49,4.81-5.24,7.22c-0.4,0.57-0.25,1.38,0.32,1.78c0.58,0.4,1.37,0.24,1.78-0.32
	c0.01-0.01,0.02-0.03,0.03-0.04c0.01-0.01,0.02-0.02,0.02-0.03c2.52-3.46,5.03-6.93,7.54-10.39c2.81-3.87,5.61-7.74,8.42-11.61
	c2.43-3.35,4.86-6.69,7.29-10.04c0.88-1.21,1.75-2.42,2.63-3.62c0.41-0.56,0.24-1.39-0.32-1.78c-0.22-0.15-0.47-0.23-0.72-0.23
	C161.29,249.15,160.89,249.34,160.63,249.69z"/>
<path class="st0" d="M128.25,286.38c-0.4,0.23-0.65,0.65-0.65,1.12c0,0.51,0.32,0.99,0.79,1.18c0.24,0.1,0.49,0.1,0.75,0.12
	c0.25,0.01,0.5,0.03,0.75,0.04c0.79,0.02,1.58,0.02,2.37,0.03c0.41,0,0.82,0,1.22-0.01c0.42-0.01,0.85-0.01,1.26-0.08
	c0.69-0.11,1.19-0.73,1.1-1.43c-0.09-0.68-0.75-1.21-1.43-1.1c-0.08,0.01-0.15,0.02-0.23,0.02c-0.58,0.04-1.16,0.04-1.74,0.04
	c-1.11,0-2.22-0.01-3.33-0.07c-0.02,0-0.05,0-0.07-0.01c0.01,0,0.01,0,0.02,0c-0.07-0.01-0.14-0.02-0.2-0.02
	C128.66,286.21,128.44,286.27,128.25,286.38z"/>
<path class="st0" d="M136.16,285.84c-0.06,0.09-0.13,0.17-0.2,0.26c-0.2,0.25-0.4,0.49-0.61,0.73c-0.14,0.17-0.28,0.33-0.44,0.48
	c-0.02,0.02-0.05,0.04-0.07,0.06c-0.01,0-0.01,0.01-0.02,0.01c-0.01,0.01-0.03,0.01-0.04,0.02c-0.02,0-0.03,0-0.05,0.01
	c-0.04,0-0.08,0.01-0.12,0.01c-0.32,0.01-0.57,0.28-0.57,0.6c0.01,0.31,0.28,0.58,0.59,0.57c0.16-0.01,0.32-0.02,0.47-0.06
	c0.13-0.04,0.27-0.1,0.38-0.18c0.19-0.13,0.36-0.31,0.51-0.48c0.14-0.16,0.27-0.32,0.41-0.47c0.12-0.14,0.24-0.29,0.35-0.43
	c0.12-0.14,0.24-0.29,0.35-0.44c0.18-0.26,0.12-0.62-0.14-0.81c-0.1-0.07-0.22-0.11-0.34-0.11
	C136.45,285.6,136.27,285.68,136.16,285.84z"/>
<path class="st0" d="M137.12,282.92c-0.7,0.84-1.39,1.71-2.18,2.47c-0.28,0.26-0.57,0.52-0.86,0.79c-0.31,0.29-0.62,0.58-0.95,0.84
	c-0.25,0.19-0.27,0.58-0.08,0.82c0.21,0.25,0.57,0.27,0.82,0.08c0.35-0.26,0.66-0.57,0.98-0.86c0.33-0.3,0.66-0.6,0.98-0.91
	c0.77-0.75,1.45-1.59,2.14-2.42c0.1-0.12,0.16-0.25,0.16-0.41c0-0.16-0.07-0.31-0.19-0.41c-0.11-0.1-0.26-0.15-0.41-0.15
	C137.38,282.74,137.23,282.8,137.12,282.92z"/>
<path class="st0" d="M327.67,247.43c-0.07-0.36-0.14-0.73-0.21-1.09c-0.06-0.32-0.12-0.65-0.2-0.97c0,0,0-0.01,0-0.01
	c-0.11-0.3,0.05-0.64,0.34-0.75c0.3-0.11,0.63,0.05,0.75,0.34c0.06,0.14,0.08,0.3,0.11,0.45c0.04,0.18,0.07,0.37,0.11,0.55
	c0.08,0.4,0.16,0.81,0.24,1.21c0.06,0.31-0.12,0.62-0.44,0.69c-0.04,0.01-0.08,0.01-0.12,0.01
	C327.98,247.89,327.71,247.71,327.67,247.43z"/>
<path class="st0" d="M328.35,254.65c-0.67-0.12-1.08-0.76-0.99-1.41c0.01-0.1,0.03-0.19,0.04-0.29c0.07-0.64,0.11-1.28,0.11-1.93
	c-0.01-0.25-0.02-0.5-0.04-0.76c-0.02-0.26-0.03-0.53-0.06-0.79c-0.09-0.5-0.26-1-0.37-1.5c-0.11-0.51-0.23-1.02-0.32-1.53
	c-0.07-0.35-0.18-0.72-0.15-1.09c0,0.01,0,0.03,0,0.04c0-0.66,0.63-1.19,1.28-1.16c0.32,0.01,0.62,0.15,0.83,0.38
	c0.18,0.19,0.28,0.43,0.32,0.69c0,0.02,0.01,0.04,0.01,0.06c0,0,0,0,0,0c0,0,0,0,0,0.01c0.19,1.1,0.45,2.18,0.72,3.26
	c0.12,0.47,0.15,0.93,0.19,1.41c0.04,0.61,0.06,1.23,0.04,1.84c-0.01,0.22-0.02,0.43-0.04,0.65c-0.02,0.16-0.03,0.32-0.05,0.48
	c-0.01,0.07-0.01,0.13-0.02,0.2c-0.01,0.15-0.03,0.31-0.06,0.46c-0.08,0.59-0.64,1.01-1.21,1.01
	C328.48,254.67,328.41,254.67,328.35,254.65z"/>
<path class="st0" d="M328.02,254.98c-0.66-0.12-1.09-0.76-0.99-1.41c0.07-0.42,0.14-0.84,0.2-1.27c0.04-0.27,0.07-0.55,0.11-0.82
	c0.04-0.39,0.03-0.79,0.02-1.18c-0.02-0.5-0.08-1-0.15-1.49c-0.09-0.53-0.21-1.06-0.31-1.59c-0.1-0.5-0.2-1-0.3-1.51
	c-0.13-0.65,0.27-1.31,0.93-1.46c0.64-0.14,1.33,0.28,1.46,0.93c0.08,0.44,0.17,0.88,0.26,1.32c0.1,0.5,0.22,0.99,0.31,1.49
	c0.09,0.54,0.17,1.08,0.22,1.63c0.03,0.4,0.03,0.81,0.03,1.21c0,0.22,0.01,0.44-0.01,0.66c-0.02,0.25-0.05,0.5-0.09,0.75
	c-0.04,0.28-0.07,0.55-0.11,0.83c-0.04,0.31-0.1,0.61-0.15,0.92c-0.09,0.59-0.64,1.01-1.21,1.01
	C328.15,255,328.08,254.99,328.02,254.98z"/>
<path class="st0" d="M363.11,255.55c-0.37-0.07-0.68-0.32-0.84-0.63c-0.48-0.77-1.1-1.43-1.53-2.23c-0.16-0.3-0.33-0.6-0.48-0.91
	c-0.29-0.6-0.03-1.34,0.57-1.63c0.6-0.29,1.34-0.03,1.63,0.57c0.14,0.29,0.3,0.58,0.46,0.87c0.26,0.44,0.58,0.85,0.88,1.26
	c0.14,0.19,0.27,0.37,0.41,0.56c0.15,0.22,0.31,0.45,0.35,0.71c0.09,0.52-0.16,1.12-0.67,1.33c-0.18,0.07-0.36,0.12-0.54,0.12
	C363.26,255.57,363.19,255.56,363.11,255.55z"/>
<path class="st0" d="M360.11,251.02c-0.6-0.2-1.02-0.93-0.77-1.55c0.19-0.46,0.44-0.89,0.68-1.33c0.31-0.57,0.62-1.13,0.92-1.71
	c0.15-0.28,0.29-0.56,0.43-0.84c0.05-0.1,0.09-0.21,0.15-0.3c0.2-0.27,0.46-0.46,0.79-0.53c0.65-0.13,1.3,0.32,1.43,0.97
	c0.07,0.39-0.05,0.77-0.3,1.05c0,0,0.01-0.01,0.01-0.01c0.03-0.04,0.07-0.09,0.1-0.13c0,0,0,0,0,0c0.03-0.05,0.05-0.09,0.08-0.14
	c-0.23,0.45-0.44,0.9-0.68,1.34c-0.27,0.51-0.55,1.01-0.82,1.52c-0.13,0.25-0.26,0.5-0.4,0.75c-0.05,0.09-0.09,0.17-0.13,0.27
	c0.02-0.05,0.04-0.1,0.06-0.15c0,0,0,0,0,0.01c-0.13,0.31-0.32,0.56-0.63,0.71c-0.17,0.08-0.35,0.12-0.53,0.12
	C360.36,251.08,360.23,251.06,360.11,251.02z"/>
<path class="st0" d="M405.49,252.42c-0.61-0.3-0.84-1.03-0.56-1.63c0.02-0.04,0.04-0.09,0.06-0.13c-0.01-0.04-0.01-0.08-0.02-0.12
	c-0.11-0.37-0.27-0.74-0.41-1.1c0.02,0.05,0.04,0.1,0.06,0.15c-0.15-0.37-0.33-0.73-0.48-1.1c-0.15-0.37-0.32-0.74-0.47-1.11
	c0,0,0,0,0,0c0-0.01-0.01-0.02-0.01-0.03c0,0,0,0.01,0.01,0.01c0,0,0-0.01-0.01-0.01c-0.11-0.29-0.14-0.58-0.04-0.88
	c0.1-0.31,0.33-0.57,0.63-0.71c0.58-0.28,1.37-0.04,1.63,0.57c0.01,0.03,0.03,0.07,0.04,0.1c0.35,0.84,0.74,1.67,1.07,2.52
	c0.2,0.51,0.39,1.01,0.45,1.56c0.05,0.49-0.11,0.92-0.3,1.35c-0.2,0.43-0.65,0.68-1.11,0.68
	C405.84,252.54,405.66,252.5,405.49,252.42z"/>
<path class="st0" d="M89.29,244.83c-0.02-0.65,0.51-1.26,1.18-1.26c0.66,0,1.24,0.49,1.26,1.18c0.02,0.65-0.51,1.26-1.18,1.26
	C89.89,246,89.32,245.51,89.29,244.83z"/>
<path class="st0" d="M92.35,250.7c-0.42-0.65-0.79-1.32-1.16-2c-0.42-0.77-0.85-1.54-1.27-2.31c-0.1-0.19-0.2-0.38-0.31-0.57
	c-0.13-0.24-0.3-0.49-0.37-0.76c-0.12-0.46-0.05-0.9,0.28-1.25c0.28-0.31,0.76-0.46,1.17-0.35c0.44,0.12,0.78,0.46,0.89,0.87
	c0.01,0.03,0.03,0.06,0.04,0.08c0.63,1.18,1.28,2.34,1.92,3.51c0.28,0.51,0.57,1.01,0.88,1.49c0.36,0.56,0.16,1.33-0.4,1.68
	c-0.2,0.12-0.41,0.18-0.63,0.18C92.99,251.27,92.58,251.07,92.35,250.7z"/>
<path class="st0" d="M89.64,257.47c-0.6-0.3-0.84-1.04-0.55-1.63c0.4-0.84,0.79-1.68,1.19-2.51c0.22-0.45,0.43-0.91,0.65-1.37
	c0.19-0.4,0.39-0.8,0.56-1.2c0.16-0.41,0.31-0.84,0.5-1.24c0.18-0.38,0.5-0.67,0.93-0.75c0.42-0.08,0.87,0.08,1.15,0.4
	c-0.02-0.02-0.03-0.03-0.05-0.05c0.38,0.41,0.46,1.04,0.15,1.51c-0.01,0.03-0.02,0.05-0.03,0.08c-0.21,0.52-0.4,1.04-0.64,1.55
	c-0.23,0.51-0.49,1.02-0.73,1.53c-0.49,1.05-0.99,2.09-1.49,3.13c-0.21,0.43-0.65,0.68-1.1,0.68
	C89.99,257.59,89.8,257.55,89.64,257.47z"/>
<path class="st0" d="M327.15,471.41c-0.14-0.05-0.23-0.23-0.17-0.37c0.04-0.1,0.09-0.21,0.13-0.31c0.02-0.04,0.04-0.08,0.05-0.12
	c0.02-0.05,0.04-0.1,0.06-0.14c0.08-0.14,0.25-0.2,0.39-0.12c0.13,0.07,0.2,0.26,0.12,0.39c0,0,0,0,0,0
	c-0.07,0.17-0.14,0.34-0.21,0.5c-0.05,0.11-0.16,0.19-0.28,0.19C327.22,471.43,327.18,471.42,327.15,471.41z"/>
<path class="st0" d="M326.66,473.35c-0.15-0.08-0.18-0.25-0.12-0.39c0.02-0.05,0.05-0.11,0.07-0.16c-0.01,0.01-0.01,0.02-0.02,0.04
	c0.01-0.03,0.03-0.06,0.04-0.08c0,0,0,0,0,0c0,0,0,0.01-0.01,0.01c0,0,0-0.01,0.01-0.01c0,0,0,0.01,0,0.01
	c0-0.01,0.01-0.02,0.01-0.03c0,0,0,0.01-0.01,0.01c0.01-0.01,0.01-0.03,0.02-0.04c0,0,0,0.01-0.01,0.01
	c0.01-0.03,0.03-0.06,0.04-0.09c-0.01,0.01-0.01,0.02-0.02,0.04c0.01-0.03,0.02-0.05,0.04-0.08c0-0.01,0.01-0.02,0.02-0.04
	c0.01-0.02,0.02-0.05,0.03-0.07c0,0,0,0,0,0.01c0-0.01,0.01-0.01,0.01-0.02c0,0,0,0,0,0c0.18-0.39,0.35-0.79,0.52-1.18
	c0.08-0.19,0.16-0.38,0.24-0.57c0.04-0.1,0.09-0.21,0.13-0.31c0.03-0.07,0.06-0.14,0.12-0.19c0.1-0.09,0.25-0.11,0.37-0.03
	c0.13,0.09,0.16,0.28,0.07,0.41c0,0,0,0,0,0c-0.01,0.03-0.03,0.06-0.04,0.08c0,0,0-0.01,0-0.01c-0.15,0.33-0.28,0.67-0.42,1
	c-0.15,0.35-0.3,0.69-0.46,1.04c0-0.01,0-0.01,0.01-0.02c-0.01,0.02-0.02,0.05-0.03,0.07c0.01-0.01,0.01-0.02,0.02-0.04
	c-0.01,0.03-0.03,0.07-0.05,0.1c-0.02,0.03-0.03,0.07-0.05,0.1c0-0.01,0.01-0.02,0.01-0.03c-0.01,0.02-0.02,0.04-0.03,0.06
	c0-0.01,0-0.01,0.01-0.02c-0.01,0.02-0.02,0.05-0.03,0.07c0-0.01,0-0.01,0.01-0.02c-0.01,0.03-0.02,0.05-0.03,0.07
	c0.01-0.01,0.01-0.02,0.02-0.03c-0.03,0.07-0.06,0.14-0.09,0.2c-0.05,0.1-0.15,0.15-0.26,0.15
	C326.74,473.38,326.7,473.37,326.66,473.35z"/>
<path class="st0" d="M326.74,473.56c-0.15-0.08-0.19-0.25-0.12-0.39c0.17-0.37,0.34-0.74,0.51-1.11c-0.01,0.01-0.01,0.02-0.02,0.04
	c0.02-0.05,0.04-0.09,0.06-0.14c-0.01,0.01-0.01,0.02-0.02,0.04c0.18-0.41,0.35-0.82,0.51-1.24c0.04-0.1,0.08-0.21,0.11-0.32
	c0.02-0.04,0.03-0.09,0.05-0.13c0.05-0.09,0.14-0.15,0.25-0.15c0.15,0,0.28,0.1,0.3,0.25c0.01,0.07,0,0.13-0.03,0.2
	c-0.01,0.02-0.02,0.04-0.04,0.06c-0.04,0.1-0.07,0.19-0.1,0.29c-0.05,0.14-0.11,0.28-0.16,0.41c-0.12,0.29-0.24,0.58-0.37,0.86
	c0.01-0.01,0.01-0.02,0.02-0.04c-0.19,0.42-0.38,0.83-0.57,1.24c-0.05,0.1-0.15,0.15-0.26,0.15
	C326.83,473.6,326.78,473.58,326.74,473.56z"/>
<path class="st0" d="M321.36,481.82c-0.12-0.09-0.16-0.28-0.07-0.4c0.78-1,1.57-2,2.35-2.99c0.27-0.35,0.55-0.69,0.81-1.05
	c0.25-0.34,0.49-0.7,0.72-1.06c0.28-0.46,0.55-0.95,0.8-1.43c0.26-0.48,0.48-0.98,0.71-1.48c-0.01,0.01-0.01,0.02-0.02,0.03
	c0.02-0.05,0.05-0.1,0.07-0.15c-0.01,0.01-0.01,0.02-0.02,0.04c0.01-0.02,0.02-0.04,0.03-0.06c0,0,0,0,0,0
	c0-0.01,0.01-0.02,0.01-0.02c0-0.01,0.01-0.02,0.01-0.03c0,0,0,0.01,0,0.01c0,0,0,0,0,0c0,0,0,0,0,0.01
	c0.21-0.48,0.43-0.95,0.64-1.43c0.1-0.23,0.19-0.45,0.28-0.68c0.05-0.12,0.09-0.23,0.13-0.35c0.03-0.09,0.06-0.18,0.11-0.26
	c0.09-0.13,0.28-0.16,0.41-0.07c0.12,0.09,0.15,0.26,0.08,0.39c-0.04,0.09-0.06,0.18-0.09,0.27c-0.04,0.11-0.08,0.23-0.13,0.34
	c-0.09,0.23-0.19,0.45-0.28,0.67c-0.19,0.45-0.4,0.9-0.6,1.35c0,0,0-0.01,0-0.01c-0.01,0.02-0.02,0.03-0.02,0.05c0,0,0,0.01,0,0.01
	c0,0.01-0.01,0.02-0.01,0.03c-0.02,0.05-0.05,0.1-0.07,0.15c0.01-0.01,0.01-0.02,0.02-0.04c-0.5,1.11-1.06,2.2-1.71,3.23
	c-0.34,0.53-0.71,1.03-1.1,1.52c-0.4,0.5-0.8,1.01-1.19,1.51c-0.49,0.62-0.97,1.24-1.46,1.86c-0.06,0.08-0.15,0.12-0.24,0.12
	C321.47,481.87,321.41,481.86,321.36,481.82z"/>
<path class="st0" d="M327.33,29.5c-0.01-0.02-0.02-0.04-0.02-0.06c-0.08-0.24-0.19-0.47-0.29-0.7c-0.11-0.25-0.22-0.5-0.34-0.74
	c-0.15-0.29-0.31-0.57-0.48-0.85c-0.18-0.3-0.36-0.59-0.55-0.89c0.01,0.01,0.01,0.02,0.02,0.03c0-0.01-0.01-0.01-0.01-0.02
	c-0.03-0.05-0.06-0.1-0.09-0.15c0.01,0.01,0.01,0.02,0.02,0.03c-0.66-1.01-1.37-2-2.08-2.99c-0.03-0.04-0.06-0.08-0.08-0.12
	c-0.09-0.13-0.07-0.31,0.06-0.41c0.12-0.09,0.31-0.07,0.41,0.06c0.72,1,1.43,1.99,2.1,3.01c0.03,0.04,0.06,0.09,0.09,0.13
	c-0.01-0.01-0.01-0.02-0.02-0.03c0.03,0.05,0.06,0.1,0.1,0.15c-0.01-0.01-0.01-0.02-0.02-0.03c0.17,0.26,0.33,0.52,0.49,0.79
	c0.16,0.26,0.32,0.53,0.46,0.8c0.15,0.28,0.27,0.57,0.4,0.85c0.12,0.27,0.24,0.55,0.35,0.82c0,0.01,0.01,0.03,0.01,0.04
	c0.06,0.13,0,0.3-0.12,0.37c-0.04,0.03-0.09,0.04-0.14,0.04C327.49,29.65,327.39,29.59,327.33,29.5z"/>
<path class="st0" d="M328.01,29.17c0.09,0.2,0.17,0.42,0.07,0.63c0,0,0,0.01,0,0.01c-0.02,0.04-0.04,0.08-0.07,0.11
	c-0.06,0.07-0.15,0.11-0.23,0.11c-0.06,0-0.12-0.02-0.18-0.06c-0.1-0.08-0.14-0.22-0.09-0.34c0.01-0.02,0.02-0.04,0.03-0.05
	c0-0.01-0.01-0.03-0.01-0.04c-0.06-0.17-0.14-0.33-0.22-0.49c-0.02-0.05-0.05-0.09-0.07-0.14c0,0,0-0.01-0.01-0.02
	c0-0.01-0.01-0.01-0.01-0.02c-0.01-0.02-0.02-0.05-0.04-0.07c-0.11-0.23-0.22-0.45-0.33-0.68c-0.14-0.28-0.28-0.56-0.42-0.84
	c-0.13-0.26-0.26-0.51-0.39-0.77c-0.14-0.27-0.29-0.54-0.44-0.8c-0.19-0.33-0.39-0.66-0.59-0.98c-0.21-0.31-0.43-0.62-0.66-0.92
	c-0.21-0.29-0.43-0.57-0.66-0.84c-0.04-0.05-0.09-0.1-0.13-0.15c0,0-0.01-0.01-0.01-0.01c0,0,0.01,0.01,0.01,0.01
	c0,0,0.01,0,0.01,0.01c0.01,0,0.01,0.01,0.02,0.01c0,0,0.01,0,0.01,0.01c-0.01-0.01-0.02-0.01-0.03-0.02
	c-0.01-0.01-0.02-0.01-0.02-0.02c-0.05-0.04-0.08-0.09-0.09-0.15c-0.02-0.06-0.01-0.12,0.01-0.18c0.06-0.14,0.24-0.22,0.38-0.15
	c0.07,0.03,0.11,0.08,0.16,0.13c0.05,0.06,0.1,0.12,0.15,0.18c0.1,0.12,0.19,0.24,0.29,0.36c0.19,0.24,0.37,0.48,0.54,0.72
	c0.19,0.25,0.37,0.51,0.54,0.77c0.16,0.25,0.32,0.51,0.47,0.77c0.14,0.23,0.27,0.46,0.39,0.7c0.16,0.29,0.31,0.59,0.46,0.89
	c0.26,0.52,0.51,1.04,0.77,1.56c0.03,0.06,0.06,0.12,0.09,0.18c0.01,0.01,0.01,0.03,0.02,0.04c0,0.01,0.01,0.01,0.01,0.02
	c0,0.01,0.01,0.01,0.01,0.02c0.03,0.06,0.06,0.12,0.09,0.18c0.02,0.05,0.05,0.1,0.07,0.16C327.95,29.04,327.98,29.11,328.01,29.17z"
	/>
<path class="st1" d="M383.65,160.37c0,1.28,0.02,2.56-0.03,3.84c-0.05,1.3-0.11,2.61-0.18,3.91c-0.13,2.42-0.37,4.82-0.62,7.23
	c-0.01,0.07-0.02,0.13-0.02,0.2c-0.57,4.88-1.21,9.74-1.99,14.59c-0.37,2.32-0.78,4.63-1.24,6.93c-0.45,2.29-0.97,4.56-1.51,6.83
	c-0.42,1.68-0.83,3.36-1.3,5.02c-0.52,1.86-1.08,3.71-1.65,5.56c-0.54,1.72-1.13,3.43-1.73,5.13c-0.3,0.85-0.61,1.71-0.93,2.55
	c-0.15,0.39-0.29,0.78-0.44,1.17c0,0.01-0.01,0.02-0.01,0.03c-0.2,0.51-0.39,1.02-0.59,1.52c-0.81,2.06-1.7,4.1-2.62,6.12
	c-1.71,3.74-3.51,7.44-5.47,11.06c-0.64,1.17-1.31,2.32-2.01,3.46c-0.1,0.17-0.17,0.36-0.18,0.55c-0.06,0.13-0.13,0.25-0.19,0.37
	c-0.3,0.57-0.61,1.14-0.92,1.71c-0.02,0.03-0.03,0.06-0.05,0.1c-4.48,0-8.96,0-13.44,0c-5.64,0-11.28,0-16.91,0
	c-0.03-0.14-0.07-0.29-0.1-0.43c0,0,0-0.01,0-0.01c-0.07-0.4-0.17-0.8-0.25-1.19c0.01-0.11,0-0.22-0.02-0.33
	c-0.01-0.04-0.01-0.07-0.02-0.11c-0.2-1.5-0.3-3.01-0.33-4.52c-0.01-1.4,0.07-2.79,0.18-4.18c0.11-1.4,0.24-2.8,0.39-4.2
	c0,0,0,0,0-0.01c0.29-2.32,0.63-4.63,1.05-6.94c0.21-1.15,0.42-2.31,0.66-3.46c0.25-1.18,0.52-2.36,0.8-3.54
	c0.01-0.03,0.02-0.07,0.03-0.11c0.02-0.07,0.04-0.15,0.05-0.22c0.02-0.06,0.03-0.12,0.05-0.18c0.01-0.03,0.02-0.06,0.02-0.09
	c0-0.01,0-0.01,0-0.02c0.04-0.15,0.08-0.29,0.11-0.44c0.03-0.11,0.06-0.23,0.09-0.35c0,0,0-0.01,0-0.01
	c0.08-0.3,0.15-0.61,0.23-0.91c0.15-0.58,0.3-1.16,0.45-1.74c0.3-1.13,0.62-2.26,0.95-3.39c1.38-4.76,2.9-9.5,4.54-14.18
	c0.84-2.38,1.7-4.75,2.58-7.11c0.87-2.34,1.76-4.67,2.55-7.03c0.45-1.33,0.89-2.66,1.31-4c0.33-1.03,0.64-2.08,0.91-3.13
	c0.35-1.32,0.68-2.64,1-3.97c0.3-1.25,0.55-2.51,0.82-3.77c0.14-0.66,0.24-1.33,0.35-2c0.08-0.48,0.16-0.95,0.22-1.44
	c0.09-0.68,0.21-1.36,0.28-2.04c0.07-0.73,0.14-1.45,0.21-2.18c0.06-0.59,0.08-1.18,0.12-1.77c0.03-0.52,0.07-1.03,0.08-1.55
	c0.02-0.76,0.03-1.52,0.05-2.27c0.01-0.64-0.02-1.29-0.03-1.94c-0.04-2.51-0.25-5.01-0.56-7.5c-0.3-2.44-0.71-4.86-1.26-7.26
	c-0.14-0.59-0.26-1.19-0.42-1.79c-0.2-0.74-0.4-1.48-0.6-2.22c-0.16-0.59-0.35-1.17-0.53-1.75c-0.14-0.47-0.28-0.95-0.44-1.42
	c-0.25-0.71-0.47-1.44-0.74-2.14c-0.24-0.63-0.48-1.27-0.73-1.9c-0.4-1.04-0.81-2.07-1.25-3.1c-0.5-1.17-0.99-2.33-1.51-3.49
	c-0.29-0.65-0.57-1.3-0.88-1.94c-0.28-0.58-0.56-1.15-0.83-1.73c-0.56-1.15-1.14-2.29-1.73-3.44c-0.28-0.55-0.58-1.08-0.87-1.63
	c-0.23-0.42-0.45-0.84-0.69-1.26c-0.39-0.69-0.79-1.39-1.18-2.08c-0.3-0.53-0.63-1.04-0.94-1.57c-0.61-1.01-1.22-2-1.87-2.99
	c-1.42-2.16-2.86-4.3-4.35-6.4c-2.96-4.18-5.93-8.35-8.86-12.56c-1.38-1.98-2.75-3.97-4.04-6c-1.35-2.11-2.67-4.22-3.99-6.34
	c-0.72-1.21-1.44-2.41-2.13-3.63c-0.31-0.54-0.62-1.08-0.91-1.63c-0.34-0.63-0.69-1.25-1.02-1.89c-0.39-0.77-0.79-1.54-1.18-2.31
	c-0.3-0.59-0.57-1.19-0.86-1.78c-0.56-1.17-1.09-2.36-1.62-3.55c-0.19-0.47-0.39-0.93-0.58-1.4c-0.17-0.41-0.36-0.82-0.51-1.24
	c-0.33-0.87-0.65-1.74-0.98-2.61c-0.14-0.37-0.25-0.75-0.38-1.13c-0.17-0.51-0.34-1.02-0.51-1.52c-0.13-0.38-0.22-0.78-0.33-1.16
	c-0.11-0.4-0.23-0.8-0.34-1.2c-0.32-1.37-0.64-2.75-0.95-4.13c-0.27-1.22-0.5-2.44-0.74-3.67c-0.09-0.68-0.19-1.36-0.28-2.04
	c-0.08-0.56-0.12-1.11-0.16-1.67c-0.05-0.59-0.1-1.18-0.11-1.78c-0.01-0.63-0.02-1.27-0.03-1.91c0.02-0.42,0.03-0.85,0.05-1.28
	c0.01-0.35,0.01-0.7,0.04-1.05c0.07-0.72,0.13-1.43,0.2-2.15c0.07-0.48,0.14-0.97,0.21-1.45c0.1-0.7,0.24-1.38,0.4-2.07
	c0.22-0.87,0.5-1.72,0.81-2.56c0.22-0.55,0.47-1.09,0.74-1.62c0.24-0.43,0.5-0.85,0.78-1.26c0.51-0.69,1.08-1.34,1.67-1.97
	c0.45-0.46,0.91-0.9,1.41-1.31c0.37-0.27,0.75-0.53,1.14-0.77c0.42-0.24,0.84-0.45,1.28-0.65c0.33-0.13,0.65-0.24,0.98-0.35
	c0.39-0.1,0.79-0.18,1.19-0.25c0.32-0.03,0.63-0.06,0.95-0.07c0.31,0,0.62,0.02,0.93,0.04c0.38,0.05,0.75,0.11,1.12,0.19
	c0.46,0.12,0.9,0.27,1.35,0.43c0.48,0.2,0.95,0.4,1.41,0.62c0.4,0.19,0.78,0.4,1.17,0.61c0.3,0.18,0.62,0.35,0.91,0.55
	c0.27,0.19,0.54,0.37,0.81,0.56c0.43,0.34,0.86,0.67,1.27,1.03c0.32,0.28,0.63,0.57,0.94,0.86c0.32,0.33,0.65,0.66,0.95,1.01
	c0.31,0.34,0.6,0.7,0.89,1.05c0.34,0.45,0.68,0.9,0.99,1.37c0.25,0.39,0.5,0.78,0.74,1.18c0.48,0.86,0.93,1.73,1.34,2.62
	c-0.15-0.09-0.3-0.17-0.45-0.25c-0.44-0.25-0.89-0.49-1.35-0.7c-0.47-0.22-0.95-0.45-1.45-0.62c-0.93-0.32-1.87-0.62-2.84-0.76
	c-0.6-0.09-1.21-0.18-1.82-0.2c-0.56-0.02-1.13-0.03-1.69-0.02c-0.59,0-1.17,0.06-1.76,0.12c-1.16,0.12-2.28,0.49-3.28,1.09
	c-0.51,0.31-1.01,0.68-1.44,1.1c-0.4,0.39-0.79,0.79-1.12,1.24c-0.62,0.85-1.17,1.75-1.54,2.74c-0.37,1-0.63,2.04-0.72,3.1
	c-0.02,0.26-0.06,0.52-0.07,0.78c-0.01,0.29-0.01,0.58-0.02,0.87c-0.01,0.64,0.07,1.28,0.15,1.92c0.06,0.48,0.13,0.97,0.25,1.44
	c0.08,0.34,0.16,0.69,0.25,1.03c0.08,0.32,0.18,0.62,0.27,0.93c0.15,0.51,0.31,1.03,0.5,1.53c0.4,1.02,0.8,2.04,1.27,3.03
	c0.51,1.07,1.02,2.13,1.58,3.17c2.26,4.14,4.82,8.12,7.75,11.83c2.98,3.77,6.06,7.45,9.29,11c1.58,1.74,3.17,3.47,4.82,5.16
	c1.7,1.74,3.42,3.45,5.16,5.15c1.75,1.71,3.54,3.36,5.35,5c1.71,1.55,3.4,3.11,5.08,4.69c1.34,1.28,2.68,2.56,3.99,3.87
	c1.44,1.44,2.85,2.91,4.24,4.39c1.21,1.29,2.41,2.59,3.57,3.92c1.29,1.48,2.55,2.99,3.8,4.5c0.96,1.21,1.91,2.42,2.84,3.66
	c1.05,1.4,2.08,2.8,3.09,4.23c0.92,1.29,1.78,2.63,2.65,3.96c0.48,0.73,0.95,1.47,1.42,2.21c0.38,0.6,0.75,1.22,1.11,1.83
	c0.47,0.81,0.93,1.62,1.38,2.44c0.47,0.86,0.91,1.72,1.36,2.59c0.87,1.68,1.65,3.41,2.42,5.14c0.73,1.72,1.45,3.44,2.06,5.2
	c0.34,0.98,0.67,1.96,0.99,2.95c0.24,0.77,0.45,1.54,0.67,2.31c0.16,0.62,0.33,1.24,0.47,1.87c0.14,0.64,0.3,1.28,0.42,1.93
	c0.12,0.65,0.26,1.29,0.36,1.94c0.09,0.6,0.19,1.21,0.29,1.81c0.09,0.73,0.2,1.46,0.27,2.19c0.08,0.82,0.16,1.64,0.21,2.46
	C383.57,157.36,383.61,158.86,383.65,160.37z"/>
<path class="st1" d="M384.08,335.79c0.05,1.28,0.04,2.56,0.03,3.84c-0.03,1.51-0.07,3.01-0.18,4.52c-0.06,0.82-0.13,1.64-0.21,2.46
	c-0.07,0.73-0.17,1.46-0.27,2.19c-0.1,0.6-0.19,1.21-0.29,1.81c-0.1,0.65-0.24,1.29-0.36,1.94c-0.12,0.64-0.28,1.28-0.42,1.93
	c-0.14,0.63-0.31,1.25-0.47,1.87c-0.22,0.77-0.43,1.55-0.67,2.31c-0.31,0.99-0.64,1.97-0.99,2.95c-0.61,1.76-1.34,3.49-2.06,5.2
	c-0.77,1.73-1.55,3.46-2.42,5.14c-0.45,0.87-0.89,1.73-1.36,2.59c-0.45,0.82-0.91,1.63-1.38,2.44c-0.37,0.61-0.73,1.22-1.11,1.83
	c-0.47,0.74-0.94,1.48-1.42,2.21c-0.87,1.33-1.73,2.66-2.65,3.96c-1.01,1.42-2.04,2.83-3.09,4.23c-0.93,1.23-1.88,2.45-2.84,3.66
	c-1.24,1.52-2.5,3.02-3.8,4.5c-1.16,1.33-2.37,2.63-3.57,3.92c-1.39,1.48-2.8,2.95-4.24,4.39c-1.31,1.31-2.64,2.59-3.99,3.87
	c-1.68,1.58-3.38,3.14-5.08,4.69c-1.81,1.64-3.6,3.3-5.35,5c-1.74,1.7-3.46,3.41-5.16,5.15c-1.64,1.68-3.23,3.42-4.82,5.16
	c-3.23,3.55-6.32,7.23-9.29,11c-2.93,3.71-5.48,7.69-7.75,11.83c-0.57,1.04-1.08,2.1-1.58,3.17c-0.47,0.99-0.88,2.01-1.27,3.03
	c-0.19,0.5-0.35,1.01-0.5,1.53c-0.09,0.31-0.2,0.62-0.27,0.93c-0.08,0.34-0.16,0.69-0.25,1.03c-0.11,0.47-0.19,0.96-0.25,1.44
	c-0.08,0.63-0.16,1.28-0.15,1.92c0.01,0.29,0.01,0.58,0.02,0.87c0,0.26,0.04,0.52,0.07,0.78c0.09,1.06,0.35,2.1,0.72,3.1
	c0.37,0.99,0.92,1.89,1.54,2.74c0.33,0.45,0.72,0.85,1.12,1.24c0.43,0.42,0.93,0.8,1.44,1.1c1,0.6,2.12,0.97,3.28,1.09
	c0.58,0.06,1.17,0.11,1.76,0.12c0.56,0,1.13-0.01,1.69-0.02c0.61-0.02,1.22-0.11,1.82-0.2c0.97-0.14,1.92-0.44,2.84-0.76
	c0.49-0.17,0.97-0.4,1.45-0.62c0.46-0.21,0.91-0.46,1.35-0.7c0.15-0.08,0.3-0.17,0.45-0.25c-0.41,0.89-0.86,1.76-1.34,2.62
	c-0.24,0.4-0.49,0.79-0.74,1.18c-0.31,0.47-0.65,0.92-0.99,1.37c-0.29,0.36-0.58,0.71-0.89,1.05c-0.31,0.35-0.63,0.68-0.95,1.01
	c-0.31,0.29-0.61,0.58-0.94,0.86c-0.41,0.36-0.84,0.7-1.27,1.03c-0.27,0.19-0.54,0.37-0.81,0.56c-0.29,0.2-0.6,0.37-0.91,0.55
	c-0.39,0.21-0.77,0.42-1.17,0.61c-0.47,0.22-0.94,0.42-1.41,0.62c-0.44,0.16-0.89,0.31-1.35,0.43c-0.37,0.08-0.74,0.15-1.12,0.19
	c-0.31,0.02-0.62,0.04-0.93,0.04c-0.32-0.01-0.63-0.03-0.95-0.07c-0.4-0.06-0.79-0.15-1.19-0.25c-0.33-0.11-0.66-0.22-0.98-0.35
	c-0.44-0.2-0.86-0.41-1.28-0.65c-0.39-0.24-0.77-0.49-1.14-0.77c-0.49-0.41-0.96-0.85-1.41-1.31c-0.59-0.63-1.15-1.28-1.67-1.97
	c-0.28-0.41-0.53-0.83-0.78-1.26c-0.27-0.53-0.52-1.07-0.74-1.62c-0.32-0.84-0.59-1.69-0.81-2.56c-0.16-0.69-0.29-1.37-0.4-2.07
	c-0.07-0.48-0.14-0.97-0.21-1.45c-0.07-0.72-0.13-1.43-0.2-2.15c-0.03-0.35-0.03-0.7-0.04-1.05c-0.02-0.42-0.03-0.85-0.05-1.28
	c0.01-0.63,0.02-1.27,0.03-1.91c0.01-0.59,0.07-1.18,0.11-1.78c0.04-0.56,0.08-1.12,0.16-1.67c0.09-0.68,0.19-1.36,0.28-2.04
	c0.24-1.22,0.47-2.45,0.74-3.67c0.31-1.38,0.63-2.75,0.95-4.13c0.11-0.4,0.23-0.8,0.34-1.2c0.11-0.38,0.2-0.78,0.33-1.16
	c0.17-0.51,0.34-1.02,0.51-1.52c0.13-0.37,0.24-0.76,0.38-1.13c0.33-0.87,0.65-1.74,0.98-2.61c0.16-0.42,0.34-0.82,0.51-1.24
	c0.19-0.47,0.39-0.93,0.58-1.4c0.53-1.19,1.06-2.37,1.62-3.55c0.28-0.59,0.56-1.2,0.86-1.78c0.39-0.77,0.79-1.54,1.18-2.31
	c0.33-0.64,0.68-1.26,1.02-1.89c0.3-0.55,0.6-1.09,0.91-1.63c0.7-1.22,1.41-2.43,2.13-3.63c1.31-2.12,2.64-4.24,3.99-6.34
	c1.3-2.03,2.67-4.02,4.04-6c2.93-4.21,5.9-8.38,8.86-12.56c1.49-2.11,2.94-4.24,4.35-6.4c0.64-0.98,1.26-1.98,1.87-2.99
	c0.31-0.52,0.64-1.04,0.94-1.57c0.39-0.69,0.79-1.39,1.18-2.08c0.24-0.42,0.46-0.84,0.69-1.26c0.29-0.54,0.59-1.08,0.87-1.63
	c0.58-1.14,1.17-2.28,1.73-3.44c0.28-0.58,0.56-1.15,0.83-1.73c0.31-0.64,0.59-1.3,0.88-1.94c0.52-1.15,1.01-2.32,1.51-3.49
	c0.44-1.02,0.85-2.06,1.25-3.1c0.24-0.63,0.48-1.27,0.73-1.9c0.27-0.7,0.49-1.43,0.74-2.14c0.16-0.47,0.3-0.94,0.44-1.42
	c0.18-0.58,0.37-1.16,0.53-1.75c0.2-0.74,0.4-1.48,0.6-2.22c0.16-0.59,0.28-1.19,0.42-1.79c0.55-2.39,0.96-4.82,1.26-7.26
	c0.31-2.49,0.52-4.99,0.56-7.5c0.01-0.64,0.04-1.29,0.03-1.94c-0.02-0.76-0.03-1.52-0.05-2.27c-0.01-0.52-0.05-1.03-0.08-1.55
	c-0.04-0.59-0.06-1.18-0.12-1.77c-0.07-0.73-0.14-1.45-0.21-2.18c-0.07-0.68-0.18-1.36-0.28-2.04c-0.07-0.48-0.14-0.96-0.22-1.44
	c-0.12-0.67-0.21-1.34-0.35-2c-0.26-1.26-0.52-2.52-0.82-3.77c-0.31-1.33-0.65-2.65-1-3.97c-0.27-1.05-0.58-2.09-0.91-3.13
	c-0.42-1.34-0.86-2.67-1.31-4c-0.8-2.36-1.68-4.7-2.55-7.03c-0.88-2.36-1.75-4.73-2.58-7.11c-1.65-4.68-3.16-9.41-4.54-14.18
	c-0.33-1.13-0.65-2.26-0.95-3.39c-0.15-0.58-0.31-1.16-0.45-1.74c-0.08-0.3-0.15-0.61-0.23-0.91c0,0,0-0.01,0-0.01
	c-0.03-0.12-0.06-0.24-0.09-0.35c-0.03-0.15-0.07-0.3-0.11-0.44c0-0.01,0-0.01,0-0.02c-0.01-0.03-0.01-0.06-0.02-0.09
	c-0.01-0.06-0.03-0.12-0.05-0.18c-0.02-0.07-0.03-0.15-0.05-0.22c-0.01-0.04-0.02-0.07-0.03-0.11c-0.28-1.18-0.55-2.36-0.8-3.54
	c-0.24-1.15-0.45-2.3-0.66-3.46c-0.42-2.3-0.77-4.61-1.05-6.94c0,0,0,0,0-0.01c-0.16-1.4-0.29-2.8-0.39-4.2
	c-0.11-1.39-0.19-2.79-0.18-4.18c0.03-1.46,0.12-2.92,0.31-4.37c0.05-0.1,0.08-0.2,0.1-0.32c0.02-0.15,0.05-0.3,0.06-0.46
	c0.01-0.07,0.01-0.13,0.02-0.2c0.02-0.16,0.03-0.32,0.05-0.48c0.02-0.22,0.03-0.43,0.04-0.65c0-0.04,0-0.08,0-0.12
	c5.69,0,11.37,0,17.06,0c4.42,0,8.84,0,13.26,0c0,0.01,0.01,0.01,0.01,0.02c0.15,0.31,0.32,0.61,0.48,0.91
	c0.24,0.45,0.55,0.86,0.86,1.27c0.02,0.18,0.08,0.36,0.18,0.52c0.7,1.13,1.37,2.29,2.01,3.46c1.96,3.62,3.76,7.32,5.47,11.06
	c0.92,2.02,1.8,4.05,2.62,6.12c0.2,0.51,0.4,1.02,0.59,1.52c0,0.01,0.01,0.02,0.01,0.03c0.15,0.39,0.29,0.78,0.44,1.17
	c0.32,0.85,0.63,1.7,0.93,2.55c0.6,1.7,1.19,3.41,1.73,5.13c0.58,1.84,1.13,3.7,1.65,5.56c0.47,1.66,0.89,3.34,1.3,5.02
	c0.53,2.27,1.05,4.54,1.51,6.83c0.46,2.3,0.87,4.61,1.24,6.93c0.77,4.85,1.42,9.72,1.99,14.59c0.01,0.07,0.02,0.13,0.02,0.2
	c0.25,2.4,0.49,4.81,0.62,7.23C383.98,333.18,384.03,334.48,384.08,335.79z"/>
<path class="st2" d="M441.35,250.14c-0.23,0.14-0.46,0.29-0.7,0.43c-4.01,2.46-8.03,4.92-12.04,7.38c-4.05,2.48-8.1,4.97-12.15,7.45
	c-4.05,2.48-8.1,4.96-12.15,7.45c-3.72,2.28-7.44,4.56-11.16,6.84c0.53-1.01,1.04-2.03,1.56-3.04c1.12-2.19,2.17-4.41,3.25-6.61
	c2.17-4.46,4.51-8.83,6.73-13.25c0.96-1.91,1.93-3.82,2.85-5.75c-0.04-0.04-0.08-0.09-0.12-0.13c0.01-0.13,0.02-0.26,0-0.39
	c-0.06-0.55-0.25-1.05-0.45-1.56c-0.34-0.85-0.72-1.68-1.07-2.52c-0.01-0.03-0.03-0.07-0.04-0.1c-0.06-0.15-0.16-0.28-0.28-0.38
	c-0.45-0.9-0.9-1.8-1.36-2.7c-2.23-4.43-4.57-8.8-6.73-13.25c-1.07-2.21-2.13-4.43-3.25-6.61c-0.52-1.01-1.03-2.03-1.56-3.04
	c3.72,2.28,7.44,4.56,11.16,6.84c4.05,2.48,8.1,4.96,12.15,7.45c4.05,2.48,8.1,4.96,12.15,7.45c4.01,2.46,8.03,4.92,12.04,7.38
	C440.57,249.67,440.96,249.91,441.35,250.14z"/>
<path class="st2" d="M159.13,251.76c-0.97,1.33-1.93,2.67-2.9,4c-2.62,3.61-5.25,7.23-7.87,10.85c-2.81,3.87-5.62,7.74-8.43,11.61
	c-1.75,2.41-3.49,4.81-5.24,7.22c-0.08,0.11-0.13,0.22-0.17,0.34c-0.15,0.13-0.29,0.27-0.44,0.4c-0.03,0.03-0.07,0.06-0.1,0.09
	c-0.51,0.03-1.03,0.03-1.54,0.03c-1.11,0-2.22-0.01-3.33-0.07c-0.02,0-0.04,0-0.07-0.01c0.01,0,0.01,0,0.02,0
	c-0.07-0.01-0.14-0.02-0.2-0.02c-0.19,0-0.39,0.04-0.57,0.14c-1.85,0-3.7,0-5.55,0c-0.73,0-1.46,0-2.19,0
	c-0.06-0.06-0.12-0.12-0.18-0.18c-0.01,0-0.02,0-0.02,0c-0.66,0.01-1.33,0.06-1.99,0.07c-0.39,0.01-0.77-0.01-1.15-0.04
	c0.25-0.33,0.49-0.65,0.73-0.98c0.73-1,1.46-2,2.19-2.99c1.51-2.04,3.03-4.06,4.54-6.1c1.55-2.1,3.09-4.2,4.61-6.33
	c1.49-2.09,2.94-4.21,4.38-6.34c1.26-1.86,2.53-3.71,3.83-5.55c1.5-2.1,3.1-4.12,4.8-6.06c0.03-0.03,0.06-0.07,0.08-0.1
	c2.57,0,5.13,0,7.7,0c0.72,0,1.45,0,2.17,0c-0.01,0.01-0.02,0.01-0.03,0.02c0.04-0.01,0.08-0.01,0.12-0.02
	c0.14-0.02,0.29-0.03,0.43-0.04c0.11-0.01,0.21-0.01,0.32-0.01c0.04,0,0.08,0,0.12,0c0.03,0,0.06,0,0.09,0.01
	c0.05,0,0.09,0.01,0.14,0.01c0.03,0,0.06,0.01,0.09,0.01c0,0,0,0,0.01,0c0.04,0.01,0.07,0.01,0.11,0.02
	C155.48,251.76,157.31,251.76,159.13,251.76z"/>
<path class="st2" d="M113.39,251.76c0.56,0,1.13,0,1.69,0c-0.7,0.94-1.38,1.9-2.06,2.86c-0.34,0.47-0.67,0.95-1.01,1.42
	c-0.01,0.01-0.02,0.03-0.03,0.04c-0.04,0.05-0.08,0.11-0.11,0.16c-0.35,0.49-0.69,0.98-1.04,1.48c-1.45,2.06-2.88,4.13-4.3,6.2
	c-2.85,4.16-5.64,8.37-8.49,12.53c-0.51,0.75-1.03,1.5-1.55,2.24c-0.29,0.41-0.58,0.82-0.87,1.23c-0.04,0.05-0.08,0.11-0.11,0.16
	c-0.01,0.02-0.03,0.04-0.04,0.06c0.01-0.01,0.01-0.02,0.02-0.03c-0.83,1.15-1.66,2.29-2.52,3.41c-0.41,0.54-0.84,1.08-1.26,1.62
	c-0.32,0.4-0.63,0.81-0.95,1.21c-3.68,0-7.36,0-11.04,0c-1.62,0-3.24,0-4.86,0c0.07-0.07,0.14-0.16,0.19-0.25
	c1.24-2.21,2.48-4.41,3.71-6.62c2.28-4.07,4.57-8.13,6.85-12.2c2.31-4.11,4.61-8.22,6.92-12.33c0.28-0.5,0.56-1,0.84-1.51h0
	c0.05-0.03,0.1-0.08,0.13-0.13c0.06-0.09,0.13-0.17,0.2-0.25c0.14-0.17,0.3-0.32,0.46-0.47c0.1-0.09,0.21-0.18,0.33-0.26
	c0.22-0.14,0.44-0.27,0.67-0.39c0,0,0.01,0,0.01-0.01c0.13-0.07,0.27-0.13,0.41-0.19C101.51,251.76,107.45,251.76,113.39,251.76z"/>
<path class="st2" d="M114.62,248.24c-0.56,0-1.13,0-1.7,0c-5.94,0-11.88,0-17.81,0c-0.14-0.06-0.28-0.12-0.41-0.19
	c0,0-0.01,0-0.01-0.01c-0.01-0.01-0.02-0.01-0.04-0.02c-0.22-0.11-0.43-0.23-0.63-0.37c-0.11-0.08-0.22-0.17-0.33-0.26
	c-0.16-0.15-0.31-0.31-0.46-0.47c-0.07-0.08-0.14-0.16-0.2-0.25c-0.03-0.05-0.08-0.1-0.13-0.13h0v0c-0.28-0.5-0.56-1-0.84-1.5
	c-2.31-4.11-4.61-8.22-6.92-12.33c-2.28-4.07-4.57-8.13-6.85-12.2c-1.24-2.21-2.48-4.41-3.71-6.62c-0.05-0.09-0.12-0.18-0.19-0.25
	c1.62,0,3.24,0,4.86,0c3.68,0,7.36,0,11.04,0c0.32,0.4,0.63,0.81,0.95,1.21c0.42,0.54,0.85,1.07,1.26,1.62
	c0.86,1.12,1.69,2.27,2.52,3.41c-0.01-0.01-0.01-0.02-0.02-0.03c0.01,0.02,0.03,0.04,0.04,0.06c0.03,0.05,0.07,0.11,0.11,0.16
	c0.29,0.41,0.58,0.82,0.87,1.23c0.52,0.74,1.04,1.49,1.55,2.24c2.85,4.16,5.64,8.37,8.49,12.53c1.42,2.07,2.85,4.15,4.3,6.2
	c0.35,0.49,0.69,0.99,1.04,1.48c0.04,0.05,0.08,0.11,0.11,0.16c0.01,0.01,0.02,0.03,0.03,0.04c0.34,0.47,0.67,0.95,1.01,1.42
	C113.24,246.34,113.92,247.3,114.62,248.24z"/>
<path class="st2" d="M155.76,244.24c0.97,1.33,1.93,2.67,2.9,4c-1.82,0-3.65,0-5.48,0c-0.04,0.01-0.08,0.01-0.11,0.02c0,0,0,0,0,0
	c-0.15,0.02-0.3,0.03-0.45,0.03c-0.11,0-0.21,0-0.32-0.01c-0.05,0-0.09-0.01-0.13-0.01c0,0-0.01,0-0.01,0
	c-0.05,0-0.09-0.01-0.14-0.01c-0.05,0-0.09-0.01-0.14-0.02c-0.05-0.01-0.09-0.01-0.14-0.02c0.01,0.01,0.02,0.01,0.03,0.02
	c-0.73,0-1.45,0-2.17,0c-2.57,0-5.13,0-7.7,0c-0.03-0.04-0.05-0.07-0.08-0.11c-1.7-1.94-3.3-3.96-4.8-6.06
	c-1.29-1.84-2.56-3.69-3.83-5.55c-1.45-2.12-2.89-4.25-4.38-6.34c-1.52-2.13-3.05-4.23-4.61-6.33c-1.51-2.04-3.03-4.06-4.54-6.1
	c-0.73-0.99-1.46-1.99-2.19-2.99c-0.24-0.33-0.48-0.66-0.73-0.98c0.38-0.02,0.77-0.04,1.15-0.04c0.66,0.01,1.33,0.06,1.99,0.07
	c0.01,0,0.02,0,0.02,0c0.06-0.06,0.12-0.12,0.18-0.18c0.73,0,1.46,0,2.19,0c1.85,0,3.7,0,5.55,0c0.18,0.1,0.38,0.14,0.57,0.14
	c0.07,0,0.14-0.01,0.2-0.02c-0.01,0-0.01,0-0.02,0c0.02,0,0.04-0.01,0.07-0.01c1.11-0.06,2.22-0.06,3.33-0.07
	c0.51,0,1.03,0,1.54,0.03c0.03,0.03,0.07,0.06,0.1,0.09c0.15,0.14,0.29,0.27,0.44,0.4c0.04,0.12,0.09,0.23,0.17,0.34
	c1.75,2.4,3.49,4.81,5.24,7.22c2.81,3.87,5.62,7.74,8.43,11.61C150.52,237.01,153.14,240.63,155.76,244.24z"/>
<path class="st3" d="M138.56,248.24c-6.93,0-13.87,0-20.8,0c-0.05-0.12-0.11-0.24-0.19-0.35c-0.86-1.11-1.69-2.24-2.5-3.38
	c-0.27-0.38-0.53-0.75-0.8-1.13c-0.14-0.2-0.29-0.4-0.43-0.6c-0.02-0.02-0.03-0.05-0.05-0.07c0-0.01-0.01-0.01-0.01-0.01
	c-0.04-0.06-0.08-0.11-0.12-0.17c0,0,0,0,0,0c-0.03-0.05-0.06-0.09-0.1-0.13c-0.02-0.03-0.05-0.07-0.07-0.1
	c-0.45-0.64-0.9-1.28-1.35-1.92c-2.86-4.09-5.68-8.22-8.47-12.36c-1.43-2.14-2.87-4.27-4.33-6.39c-0.37-0.54-0.75-1.08-1.13-1.62
	c-0.03-0.04-0.06-0.08-0.09-0.12c-0.04-0.07-0.09-0.13-0.14-0.2c-0.12-0.17-0.25-0.35-0.37-0.52c-0.17-0.23-0.33-0.47-0.5-0.7
	c-0.03-0.04-0.05-0.08-0.08-0.12c0,0,0,0,0,0c0,0,0,0,0-0.01c-0.87-1.22-1.76-2.42-2.67-3.61c-0.28-0.36-0.56-0.72-0.84-1.08
	c1.56,0,3.11,0,4.67,0c3.24,0,6.47,0,9.71,0c1.83,0,3.67,0,5.5,0c0.07,0.1,0.15,0.19,0.23,0.28c0.18,0.23,0.36,0.46,0.54,0.69
	c0.4,0.53,0.8,1.06,1.19,1.59c0.79,1.07,1.57,2.14,2.35,3.21c3.03,4.1,6.1,8.16,9.06,12.31c1.95,2.77,3.85,5.57,5.77,8.37
	c1.33,1.94,2.66,3.9,4.1,5.77C137.27,246.67,137.91,247.46,138.56,248.24z"/>
<path class="st3" d="M118.23,251.76c6.93,0,13.87,0,20.8,0c-0.65,0.78-1.29,1.57-1.9,2.38c-1.44,1.87-2.76,3.82-4.1,5.77
	c-1.92,2.79-3.82,5.6-5.77,8.37c-2.96,4.15-6.03,8.21-9.06,12.31c-0.79,1.07-1.57,2.14-2.35,3.21c-0.39,0.53-0.79,1.06-1.19,1.59
	c-0.18,0.23-0.36,0.46-0.54,0.69c-0.08,0.1-0.15,0.19-0.23,0.28c-1.83,0-3.67,0-5.5,0c-3.24,0-6.47,0-9.71,0c-1.56,0-3.11,0-4.67,0
	c0.28-0.36,0.56-0.71,0.84-1.08c0.91-1.19,1.8-2.39,2.67-3.61c0,0,0,0,0-0.01c0,0,0,0,0,0c0.03-0.04,0.06-0.08,0.08-0.12
	c0.17-0.23,0.33-0.47,0.5-0.7c0.12-0.17,0.24-0.35,0.37-0.52c0.05-0.07,0.09-0.13,0.14-0.2c0.03-0.04,0.06-0.08,0.09-0.12
	c0.38-0.54,0.76-1.08,1.13-1.62c1.45-2.12,2.89-4.26,4.33-6.39c2.78-4.15,5.6-8.27,8.47-12.36c0.45-0.64,0.9-1.28,1.35-1.92
	c0.02-0.03,0.05-0.07,0.07-0.1c0.03-0.04,0.07-0.09,0.1-0.13c0,0,0,0,0,0c0.04-0.06,0.08-0.11,0.12-0.17c0,0,0.01-0.01,0.01-0.01
	c0.02-0.02,0.03-0.05,0.05-0.07c0.14-0.2,0.29-0.4,0.43-0.6c0.27-0.37,0.53-0.75,0.8-1.13c0.81-1.14,1.64-2.28,2.5-3.38
	C118.12,252,118.18,251.88,118.23,251.76z"/>
</svg>
